<?xml version="1.0" standalone="no"?>
<!DOCTYPE svg PUBLIC "-//W3C//DTD SVG 1.1//EN" "http://www.w3.org/Graphics/SVG/1.1/DTD/svg11.dtd" >
<svg xmlns="http://www.w3.org/2000/svg">
<metadata></metadata>
<defs>
<font id="league_spartanbold" horiz-adv-x="1398" >
<font-face units-per-em="2048" ascent="1536" descent="-512" />
<missing-glyph horiz-adv-x="559" />
<glyph unicode="&#xfb01;" horiz-adv-x="1376" d="M33 774v277h151v223q2 238 113 378t319 140q80 0 158 -17.5t132.5 -43t97.5 -50t65 -43.5l21 -16l-127 -256q-131 106 -240 107q-104 0 -140 -47.5t-36 -161.5v-213h706v-1051h-362v774h-344v-774h-363v774h-151z" />
<glyph unicode="&#xfb02;" horiz-adv-x="1376" d="M33 774v277h151v223q2 236 110.5 377t301.5 141q143 0 256 -66l-84 -284q-49 29 -109 28q-68 0 -90 -46t-22 -160v-213h241v-277h-241v-774h-363v774h-151zM891 0v1761h362v-1761h-362z" />
<glyph horiz-adv-x="2048" />
<glyph horiz-adv-x="2048" />
<glyph unicode="&#xd;" horiz-adv-x="681" />
<glyph unicode=" "  horiz-adv-x="559" />
<glyph unicode="&#x09;" horiz-adv-x="559" />
<glyph unicode="&#xa0;" horiz-adv-x="559" />
<glyph unicode="!" horiz-adv-x="714" d="M123 203q0 98 68.5 166.5t164.5 68.5q98 0 167 -68.5t69 -166.5q0 -96 -68.5 -165t-167.5 -69q-96 0 -164.5 68.5t-68.5 165.5zM176 1761h363l-50 -1208h-264z" />
<glyph unicode="&#x22;" horiz-adv-x="1050" d="M123 1559v8q0 59 52 106t122 47t123 -47t53 -106v-8q0 -41 -31.5 -187.5t-64.5 -273.5l-31 -125h-137q-86 492 -86 586zM578 1559v8q0 59 52 106t121.5 47t123 -47t53.5 -106v-8q0 -41 -32 -187.5t-65 -273.5l-30 -125h-137q-86 492 -86 586z" />
<glyph unicode="#" horiz-adv-x="1705" d="M139 449l66 247h209l78 299h-220l66 248h219l117 447h254l-117 -447h221l117 447h254l-117 -447h209l-65 -248h-209l-78 -299h219l-66 -247h-219l-116 -449h-254l116 449h-221l-117 -449h-254l117 449h-209zM668 696h221l78 299h-222z" />
<glyph unicode="$" horiz-adv-x="1376" d="M68 215l186 311q25 -20 65.5 -51t147 -82t188.5 -51q233 0 234 160q0 35 -17.5 64.5t-59.5 57t-74.5 45t-105.5 51.5t-110 52q-147 74 -229 183.5t-82 236.5q0 182 122 314t296 171v295h221v-289q106 -14 205.5 -51t146.5 -67l47 -29l-149 -295q-18 12 -50 30.5 t-120 49.5t-162 31q-96 0 -145.5 -38t-49.5 -108q0 -45 50.5 -87t105.5 -68.5t170 -73.5q4 -2 7 -3t7 -3q158 -68 270.5 -183.5t112.5 -263.5q0 -225 -121.5 -350t-324.5 -160v-297h-221v283q-98 6 -192.5 29.5t-158 54.5t-113.5 60.5t-75 50.5z" />
<glyph unicode="%" horiz-adv-x="2009" d="M47 1317q0 176 131 289.5t326 113.5q190 0 319 -113.5t129 -289.5t-126 -290t-322 -114q-205 0 -331 114t-126 290zM311 1317q0 -82 52.5 -134.5t136.5 -52.5q80 0 132 52.5t52 134.5t-53 136t-131 54q-80 0 -134.5 -54t-54.5 -136zM395 0l983 1690h242l-983 -1690h-242z M1057 373q0 176 126 289.5t330 113.5q197 0 323 -113.5t126 -289.5t-129 -290t-320 -114q-195 0 -325.5 114t-130.5 290zM1321 373q0 -82 54.5 -136.5t133.5 -54.5q78 0 131.5 54.5t53.5 136.5t-52.5 134t-132.5 52q-84 0 -136 -52t-52 -134z" />
<glyph unicode="&#x26;" horiz-adv-x="1705" d="M59 444q0 76 35 145.5t98.5 127t129 100.5t149.5 88q-170 213 -170 375q0 201 140.5 320.5t398.5 119.5q238 0 369.5 -133t131.5 -307q0 -72 -34.5 -140.5t-82.5 -116.5t-97.5 -85t-84.5 -55l-34 -19l225 -233q74 33 248 213l237 -234q-115 -131 -239 -231l364 -379h-485 l-168 174q-78 -55 -115 -78.5t-109.5 -60.5t-149.5 -51.5t-169 -14.5q-80 0 -157.5 13.5t-156.5 47t-138.5 85t-97.5 136t-38 193.5zM496 475q0 -68 57 -104.5t133 -36.5q61 0 124.5 23.5t96.5 48.5l33 24l-268 264q-6 -2 -18.5 -7t-43 -24.5t-53 -43t-42 -62.5t-19.5 -82z M692 1280q0 -43 31 -95t61 -83l31 -29q188 102 189 207q0 168 -164 168q-74 0 -111 -47t-37 -121z" />
<glyph unicode="'" horiz-adv-x="595" d="M123 1559v8q0 59 52 106t122 47t123 -47t53 -106v-8q0 -41 -31.5 -187.5t-64.5 -273.5l-31 -125h-137q-86 492 -86 586z" />
<glyph unicode="(" horiz-adv-x="825" d="M113 608q0 205 40 401.5t97 332t113.5 242t95.5 157.5l41 51l235 -100q-12 -14 -31.5 -42t-68.5 -128.5t-88 -215t-70 -304t-31 -394.5q0 -195 27 -373t66 -293.5t76.5 -204.5t64.5 -130l27 -39l-236 -100q-14 18 -38.5 50.5t-86 145.5t-109 237t-86 316.5t-38.5 390.5z " />
<glyph unicode=")" horiz-adv-x="825" d="M90 1692l236 100q16 -18 41.5 -53t92 -153t118 -247t93.5 -327.5t42 -403.5q0 -199 -37 -389t-90.5 -320t-105.5 -231.5t-89 -150.5l-37 -49l-235 100q10 14 27.5 42t62.5 125t80 207.5t62.5 291t27.5 374.5q0 205 -30 392.5t-73 308.5t-84.5 211t-72.5 131z" />
<glyph unicode="*" horiz-adv-x="999" d="M123 1430l53 163l234 -71l2 239h176l2 -239l233 71l54 -163l-234 -84l135 -203l-135 -92l-143 186l-144 -186l-135 92l135 203z" />
<glyph unicode="+" horiz-adv-x="1296" d="M123 692v314h369v368h313v-368h369v-314h-369v-368h-313v368h-369z" />
<glyph unicode="," horiz-adv-x="714" d="M123 203q0 98 68.5 166.5t164.5 68.5q98 0 167 -68.5t69 -166.5q0 -303 -344 -588l-105 86q14 12 36 36.5t64 99.5t56 151q-78 18 -127 76.5t-49 138.5z" />
<glyph unicode="-" horiz-adv-x="905" d="M123 436v314h659v-314h-659z" />
<glyph unicode="." horiz-adv-x="714" d="M123 203q0 98 68.5 166.5t164.5 68.5q98 0 167 -68.5t69 -166.5q0 -96 -68.5 -165t-167.5 -69q-96 0 -164.5 68.5t-68.5 165.5z" />
<glyph unicode="/" horiz-adv-x="1251" d="M47 -246l844 2007h313l-844 -2007h-313z" />
<glyph unicode="0" horiz-adv-x="1488" d="M57 844q0 418 199 647t489.5 229t488.5 -229t198 -647q0 -227 -55.5 -399.5t-153 -273.5t-217 -151.5t-261 -50.5t-261 50.5t-218 151.5t-154 273.5t-55.5 399.5zM446 844q0 -268 78 -402.5t221 -134.5q141 0 219 134t78 403q0 256 -78.5 397t-218 141t-219.5 -142 t-80 -396z" />
<glyph unicode="1" horiz-adv-x="845" d="M59 997v381l482 312h182v-1690h-385v1178z" />
<glyph unicode="2" horiz-adv-x="1542" d="M113 0v96q35 29 94 79t208.5 191.5t264.5 265.5t209 265t94 229q0 35 -7 70t-27.5 85t-74 82t-131.5 32q-82 0 -156.5 -81t-109.5 -161l-35 -80l-321 156q6 20 20.5 53t67.5 118t117.5 149.5t176 117.5t240.5 53q166 0 290 -42t191.5 -104.5t109.5 -147.5t53.5 -154.5 t11.5 -145.5q0 -111 -61.5 -232.5t-148.5 -216.5t-175 -174t-150 -122l-61 -43h627v-338h-1317z" />
<glyph unicode="3" horiz-adv-x="1361" d="M35 385l356 174q0 -10 3 -27.5t21.5 -62.5t45 -79t81 -61.5t126.5 -27.5q109 0 176 59.5t67 163.5q0 109 -70.5 178.5t-172.5 69.5l-74 -12v252h84q80 0 141.5 61.5t61.5 151.5q0 80 -62.5 133t-146.5 53q-59 0 -107.5 -21.5t-74 -52t-43 -61.5t-21.5 -51l-6 -23 l-303 148q4 14 12 39.5t49 89t96.5 112.5t162 89t239.5 40q242 0 398.5 -138t156.5 -353q0 -201 -150 -318q215 -131 215 -387q0 -242 -177 -398.5t-449 -156.5q-145 0 -264 43t-185.5 103.5t-110.5 122t-61 104.5z" />
<glyph unicode="4" horiz-adv-x="1363" d="M-51 356v115l811 1219h381v-996h196v-338h-196v-356h-361v356h-831zM475 694h305v482h-4z" />
<glyph unicode="5" horiz-adv-x="1312" d="M37 336l305 147q57 -193 297 -192q104 0 173 69.5t69 176t-66.5 175t-160 95.5t-212.5 27q-168 0 -288 -54l141 910h862v-338h-532l-37 -236q6 0 22.5 1t24.5 1q129 0 234.5 -28.5t198.5 -92t145.5 -184.5t52.5 -289q0 -242 -177.5 -398.5t-449.5 -156.5 q-248 0 -397.5 107.5t-204.5 259.5z" />
<glyph unicode="6" horiz-adv-x="1411" d="M49 543q0 205 57.5 337t208.5 337l398 473h475l-498 -580q43 25 121 25q90 0 182 -38t173 -108.5t132.5 -187.5t51.5 -258q0 -143 -54.5 -257t-145.5 -180.5t-199.5 -101.5t-227.5 -35q-285 0 -479.5 166t-194.5 408zM449 543q0 -111 71.5 -183.5t184 -72.5t186.5 72.5 t74 183.5q0 113 -75 187.5t-185 74.5q-106 0 -181 -74.5t-75 -187.5z" />
<glyph unicode="7" horiz-adv-x="1409" d="M113 0l778 1352h-727v338h1296v-113l-893 -1577h-454z" />
<glyph unicode="8" horiz-adv-x="1406" d="M72 455q0 322 295 456q-223 127 -224 383q0 180 171 303t388 123q223 0 388 -122t165 -304q0 -256 -217 -383q135 -61 216 -175.5t81 -280.5q0 -207 -191.5 -346.5t-438.5 -139.5q-254 0 -443.5 138.5t-189.5 347.5zM489 516q0 -94 59.5 -154.5t153.5 -60.5 q92 0 154 60.5t62 154.5t-62.5 154.5t-153.5 60.5q-92 0 -152.5 -60.5t-60.5 -154.5zM514 1239q0 -82 55.5 -135t135.5 -53q82 0 134 52t52 136q0 82 -52.5 136.5t-134 54.5t-136 -54.5t-54.5 -136.5z" />
<glyph unicode="9" horiz-adv-x="1411" d="M61 1147q0 143 54.5 257t145.5 180.5t199.5 101t227.5 34.5q285 0 479.5 -165.5t194.5 -407.5q0 -205 -57.5 -337t-208.5 -337l-398 -473h-475l498 580q-43 -25 -121 -25q-90 0 -182 38t-173 108.5t-132.5 187.5t-51.5 258zM446 1147q0 -113 75 -187.5t186 -74.5 q106 0 181 74.5t75 187.5q0 111 -72 183.5t-184.5 72.5t-186.5 -73t-74 -183z" />
<glyph unicode=":" horiz-adv-x="714" d="M123 203q0 98 68.5 166.5t164.5 68.5q98 0 167 -68.5t69 -166.5q0 -96 -68.5 -165t-167.5 -69q-96 0 -164.5 68.5t-68.5 165.5zM123 899q0 98 68.5 167t164.5 69q98 0 167 -69t69 -167q0 -96 -68.5 -164.5t-167.5 -68.5q-96 0 -164.5 68.5t-68.5 164.5z" />
<glyph unicode=";" horiz-adv-x="714" d="M123 203q0 -80 49 -138.5t127 -76.5q-14 -76 -53 -147.5t-70 -106.5l-33 -33l105 -86q344 285 344 588q0 98 -69 166.5t-167 68.5q-96 0 -164.5 -68.5t-68.5 -166.5zM123 899q0 98 68.5 167t164.5 69q98 0 167 -69t69 -167q0 -96 -68.5 -164.5t-167.5 -68.5 q-96 0 -164.5 68.5t-68.5 164.5z" />
<glyph unicode="&#x3c;" horiz-adv-x="1355" d="M123 731v242l1120 454v-290l-733 -287l733 -283v-291z" />
<glyph unicode="=" horiz-adv-x="1296" d="M123 446v314h1051v-314h-1051zM123 938v313h1051v-313h-1051z" />
<glyph unicode="&#x3e;" horiz-adv-x="1355" d="M113 276v291l733 283l-733 287v290l1120 -454v-242z" />
<glyph unicode="?" horiz-adv-x="1220" d="M47 1333q0 8 12.5 44t49 96.5t93 113.5t159 93t231.5 40q238 0 410 -139t172 -350q0 -260 -347 -408q-47 -20 -59 -56t-12 -99v-115h-338v223q0 55 4 87t26.5 70t65.5 66q33 20 88 48t82 44.5t49.5 52.5t22.5 87q0 74 -48.5 121t-117.5 47q-100 0 -161 -64.5t-81 -146.5z M352 203q0 98 69 166.5t165 68.5q98 0 166.5 -68.5t68.5 -166.5q0 -96 -68.5 -165t-166.5 -69q-96 0 -165 68.5t-69 165.5z" />
<glyph unicode="@" horiz-adv-x="1886" d="M47 846q0 254 126 455.5t336 310t460 108.5q367 0 619.5 -229t252.5 -586q0 -223 -123 -335.5t-293 -112.5q-174 0 -284 94l-19 -27q-100 -111 -258 -110q-168 0 -277.5 118.5t-109.5 292.5q0 176 109.5 296t277.5 120q156 0 258 -98v76h244v-428q0 -10 4 -24.5t30.5 -38 t69.5 -23.5q68 0 97.5 45t29.5 155q0 240 -179 393.5t-449 153.5q-260 0 -441.5 -177t-181.5 -429q0 -248 182.5 -417t440.5 -169q121 0 216 35t130 70l37 34l237 -157q-8 -10 -22.5 -28.5t-68.5 -66t-119.5 -83t-176 -65.5t-233.5 -30q-250 0 -460 109.5t-336 311.5 t-126 456zM795 829.5q0 -71.5 46 -117.5t120 -46q70 0 115.5 47t45.5 116q0 72 -47 120t-114 48q-70 0 -118 -48t-48 -119.5z" />
<glyph unicode="A" horiz-adv-x="1605" d="M-57 0l682 1690h356l682 -1690h-414l-125 338h-643l-125 -338h-413zM612 676h381l-188 491h-4z" />
<glyph unicode="B" horiz-adv-x="1363" d="M123 0v1690h524q238 0 379 -101.5t141 -328.5q0 -254 -211 -363q360 -63 361 -426q0 -213 -147.5 -342t-405.5 -129h-641zM508 297h121q282 0 282 187q0 114 -70.5 163t-211.5 49h-121v-399zM508 1028h31q129 0 192.5 45t63.5 148q0 172 -256 172h-31v-365z" />
<glyph unicode="C" horiz-adv-x="1542" d="M47 842q0 178 76 342t202 280.5t293.5 186t344.5 69.5q164 0 302 -39t195 -77l58 -39l-164 -328q-14 12 -43 29.5t-115 46t-174 28.5q-139 0 -249.5 -45t-175.5 -118.5t-98.5 -158.5t-33.5 -173q0 -193 144.5 -345.5t412.5 -152.5q88 0 171 26.5t122 51.5l39 27l164 -328 q-8 -6 -22.5 -16.5t-67 -38t-112 -48t-155.5 -37t-198 -16.5q-236 0 -447 116t-340 318.5t-129 438.5z" />
<glyph unicode="D" horiz-adv-x="1511" d="M123 0v1690h489q352 0 602 -241t250 -603q0 -365 -248.5 -605.5t-603.5 -240.5h-489zM508 344h59q211 0 345.5 142.5t136.5 357.5q0 215 -134.5 358.5t-347.5 143.5h-59v-1002z" />
<glyph unicode="E" horiz-adv-x="1187" d="M123 0v1690h967v-338h-582v-336h557v-338h-557v-340h582v-338h-967z" />
<glyph unicode="F" horiz-adv-x="1161" d="M123 0v1690h977v-338h-592v-336h547v-338h-547v-678h-385z" />
<glyph unicode="G" horiz-adv-x="1697" d="M47 844q0 369 235.5 622.5t587.5 253.5q412 0 652 -288l-252 -277q-135 217 -377 217q-178 0 -304 -154.5t-126 -373.5q0 -215 126 -367.5t304 -152.5q147 0 257 89t110 236h-390v297h781v-366q-66 -301 -287 -456t-494 -155q-342 0 -582.5 256t-240.5 619z" />
<glyph unicode="H" horiz-adv-x="1560" d="M123 0v1690h385v-674h545v674h385v-1690h-385v678h-545v-678h-385z" />
<glyph unicode="I" horiz-adv-x="630" d="M123 0v1690h385v-1690h-385z" />
<glyph unicode="J" horiz-adv-x="960" d="M-63 131l122 322q121 -115 220 -115q88 0 141 58.5t53 178.5v1115h385v-1213q0 -248 -136 -378t-390 -130q-68 0 -133.5 16.5t-110.5 40t-81 48t-52 41.5z" />
<glyph unicode="K" horiz-adv-x="1611" d="M123 0v1690h385v-691l579 691h467l-680 -801l787 -889h-531l-622 717v-717h-385z" />
<glyph unicode="L" horiz-adv-x="1157" d="M123 0v1690h385v-1352h582v-338h-967z" />
<glyph unicode="M" horiz-adv-x="1937" d="M33 0l151 1690h410l375 -975l374 975h410l152 -1690h-385l-80 1001h-10l-347 -991h-229l-346 991h-10l-80 -1001h-385z" />
<glyph unicode="N" horiz-adv-x="1691" d="M123 0v1690h385l672 -1049h4v1049h385v-1690h-385l-672 1049h-4v-1049h-385z" />
<glyph unicode="O" horiz-adv-x="1796" d="M47 846q0 367 250 620.5t602 253.5q354 0 602 -253t248 -621q0 -371 -243.5 -624t-606.5 -253q-371 0 -611.5 251t-240.5 626zM463 846q0 -133 41 -242.5t143.5 -185.5t251.5 -76q215 0 324.5 147.5t109.5 356.5q0 207 -111.5 355.5t-322.5 148.5q-209 0 -322.5 -148.5 t-113.5 -355.5z" />
<glyph unicode="P" horiz-adv-x="1363" d="M123 0v1690h616q258 0 418 -133.5t160 -387.5t-162 -398t-416 -144h-231v-627h-385zM508 934h108q129 0 212 52t83 171q0 121 -83 173t-212 52h-108v-448z" />
<glyph unicode="Q" horiz-adv-x="1794" d="M47 846q0 369 246 621.5t596 252.5q352 0 596 -253t244 -621q0 -262 -125 -473q94 -45 231 -82l-170 -344q-170 63 -309 162q-203 -139 -467 -140q-371 0 -606.5 251t-235.5 626zM463 846q0 -98 22.5 -183t70.5 -155t133 -110t200 -40q70 0 121 15q-111 102 -209 229 l164 205q115 -127 286 -244q61 117 62 283q0 207 -106.5 347t-317.5 140q-209 0 -317.5 -141t-108.5 -346z" />
<glyph unicode="R" horiz-adv-x="1466" d="M123 0v1690h604q244 0 397.5 -130t153.5 -372q0 -186 -93 -312t-253 -178l581 -698h-489l-516 668v-668h-385zM508 940h45q53 0 90 2t84 14.5t75.5 35t49 65.5t20.5 104.5t-20.5 104.5t-49 65.5t-75.5 34.5t-84 14t-90 2h-45v-442z" />
<glyph unicode="S" horiz-adv-x="1376" d="M47 193l193 323q25 -20 67.5 -52t152 -85t193.5 -53q244 0 244 166q0 35 -17.5 64.5t-61.5 59t-77.5 47t-110.5 53.5t-114 54q-154 76 -237.5 189.5t-83.5 244.5q0 227 167.5 371.5t382.5 144.5q137 0 268.5 -40t194.5 -78l62 -41l-156 -308q-18 12 -51 32t-123 52.5 t-168 32.5q-96 0 -148.5 -41t-52.5 -110q0 -35 25 -65t84 -63.5t104 -54t140 -61.5q164 -70 279.5 -189.5t115.5 -271.5q0 -145 -52.5 -253.5t-143.5 -170t-201.5 -91.5t-239.5 -30q-111 0 -217.5 22.5t-178 56.5t-129 66.5t-83.5 55.5z" />
<glyph unicode="T" horiz-adv-x="1220" d="M16 1352v338h1188v-338h-401v-1352h-385v1352h-402z" />
<glyph unicode="U" horiz-adv-x="1523" d="M102 600v1090h385v-977q0 -205 64.5 -285t210 -80t210 80t64.5 285v977h385v-1090q0 -311 -168 -471t-491.5 -160t-491.5 160t-168 471z" />
<glyph unicode="V" horiz-adv-x="1605" d="M-57 1690h434l426 -1110l426 1110h434l-709 -1690h-303z" />
<glyph unicode="W" horiz-adv-x="2295" d="M-31 1690h428l289 -1160h10l308 1160h290l308 -1160h10l289 1160h426l-482 -1690h-426l-270 948l-270 -948h-428z" />
<glyph unicode="X" horiz-adv-x="1634" d="M-70 0l639 909l-532 781h459l311 -461l311 461h479l-553 -781l660 -909h-498l-399 575l-399 -575h-478z" />
<glyph unicode="Y" horiz-adv-x="1507" d="M-61 1690h462l353 -541l352 541h463l-623 -932v-758h-385v758z" />
<glyph unicode="Z" horiz-adv-x="1574" d="M33 0l835 1352h-716v338h1390l-837 -1352h782v-338h-1454z" />
<glyph unicode="[" horiz-adv-x="905" d="M123 -532v2293h659v-239h-346v-1815h346v-239h-659z" />
<glyph unicode="\" horiz-adv-x="1251" d="M47 1761h313l844 -1761h-313z" />
<glyph unicode="]" horiz-adv-x="905" d="M123 -293h346v1815h-346v239h659v-2293h-659v239z" />
<glyph unicode="^" horiz-adv-x="1015" d="M-10 1239l424 481h188l424 -481h-330l-188 223l-189 -223h-329z" />
<glyph unicode="_" horiz-adv-x="1050" d="M0 -31h1051v-174h-1051v174z" />
<glyph unicode="`" horiz-adv-x="794" d="M96 1485l187 235l415 -360l-114 -158z" />
<glyph unicode="a" d="M47 524.5q0 233.5 147.5 395t374.5 161.5q209 0 344 -131v101h363v-1051h-358v119h-5q-135 -150 -344 -150q-227 0 -374.5 161t-147.5 394.5zM432 524.5q0 -108.5 67.5 -177t178.5 -68.5q106 0 175 69.5t69 175.5q0 109 -71 178.5t-173 69.5q-104 0 -175 -69.5t-71 -178z " />
<glyph unicode="b" d="M123 0v1761h362v-811q135 131 344 131q227 0 375 -161.5t148 -395t-147.5 -394.5t-375.5 -161q-209 0 -344 150h-4v-119h-358zM477 524q0 -106 68.5 -175.5t175.5 -69.5q111 0 178.5 68.5t67.5 177t-71 178t-175 69.5q-102 0 -173 -69.5t-71 -178.5z" />
<glyph unicode="c" horiz-adv-x="1005" d="M47 522q0 229 175 394t407 165q104 0 192 -24.5t125 -48.5l35 -25l-123 -248q-67 49 -176 49q-102 0 -176 -75.5t-74 -182.5q0 -109 74 -184.5t176 -75.5q49 0 93 12.5t65 24.5l18 12l123 -252q-14 -10 -40 -25t-117 -42t-195 -27q-231 0 -406.5 163t-175.5 390z" />
<glyph unicode="d" d="M47 524.5q0 233.5 147.5 395t374.5 161.5q209 0 344 -131v811h363v-1761h-358v119h-5q-135 -150 -344 -150q-227 0 -374.5 161t-147.5 394.5zM432 524.5q0 -108.5 67.5 -177t178.5 -68.5q106 0 175 69.5t69 175.5q0 109 -71 178.5t-173 69.5q-104 0 -175 -69.5t-71 -178z " />
<glyph unicode="e" horiz-adv-x="1234" d="M47 524.5q0 229.5 170 393t408 163.5q250 0 406.5 -144t156.5 -413q0 -37 -2 -49h-762q0 -111 71.5 -164t155.5 -53q88 0 139.5 23.5t116.5 93.5l262 -131q-164 -274 -544 -275q-238 0 -408 163t-170 392.5zM434 676h400q-12 82 -64.5 126t-134.5 44q-90 0 -143.5 -47 t-57.5 -123z" />
<glyph unicode="f" horiz-adv-x="768" d="M33 774v277h151v223q2 236 110.5 377t301.5 141q82 0 156.5 -23.5t107.5 -48.5l35 -22l-127 -256q-47 28 -105 28h-4q-68 0 -90 -46t-22 -160v-213h241v-277h-241v-774h-363v774h-151z" />
<glyph unicode="g" d="M47 524.5q0 233.5 147.5 395t374.5 161.5q203 0 338 -125h6v95h363v-1080q0 -256 -170 -395t-449 -139q-450 0 -581 305l297 145q82 -135 284 -135q94 0 175 60.5t81 185.5v78q-96 -106 -344 -107q-227 0 -374.5 161t-147.5 394.5zM432 524.5q0 -108.5 67.5 -177 t178.5 -68.5q106 0 175 69.5t69 175.5q0 109 -71 178.5t-173 69.5q-104 0 -175 -69.5t-71 -178z" />
<glyph unicode="h" horiz-adv-x="1353" d="M123 0v1761h362v-821h4q141 141 302 141q78 0 154.5 -20.5t147 -63.5t114.5 -121.5t44 -183.5v-692h-362v594q0 82 -52.5 143.5t-136.5 61.5q-82 0 -148.5 -63.5t-66.5 -141.5v-594h-362z" />
<glyph unicode="i" horiz-adv-x="618" d="M94 1485q0 88 63.5 151.5t151.5 63.5t151.5 -63.5t63.5 -151.5t-63.5 -151.5t-151.5 -63.5t-151.5 63.5t-63.5 151.5zM123 0h362v1051h-362v-1051z" />
<glyph unicode="j" horiz-adv-x="608" d="M-182 -498q4 -2 26.5 -12t33.5 -15t38 -13.5t51.5 -12.5t61.5 -8t77 -4q102 0 180.5 35.5t119 96t60 127t19.5 142.5v1213h-362v-1143q0 -143 -100 -144q-20 0 -43 7.5t-37 15.5l-13 8zM94 1485q0 88 63.5 151.5t151.5 63.5t151.5 -63.5t63.5 -151.5t-63.5 -151.5 t-151.5 -63.5t-151.5 63.5t-63.5 151.5z" />
<glyph unicode="k" horiz-adv-x="1323" d="M123 0v1761h362v-1077l367 367h471l-500 -502l549 -549h-467l-420 420v-420h-362z" />
<glyph unicode="l" horiz-adv-x="608" d="M123 0v1761h362v-1761h-362z" />
<glyph unicode="m" horiz-adv-x="2017" d="M123 0v1051h362v-111h4q141 141 302 141q115 0 215 -47t151 -145q159 192 346 192h2q168 0 289 -94t121 -295v-692h-363v594q0 84 -46 140.5t-138 56.5q-80 0 -122 -48.5t-46 -115.5v-627h-362v594q0 84 -46.5 140.5t-138.5 56.5q-84 0 -126 -52.5t-42 -124.5v-614h-362z " />
<glyph unicode="n" horiz-adv-x="1353" d="M123 0v1051h362v-111h4q141 141 302 141q78 0 154.5 -20.5t147 -63.5t114.5 -121.5t44 -183.5v-692h-362v594q0 82 -52.5 143.5t-136.5 61.5q-82 0 -148.5 -63.5t-66.5 -141.5v-594h-362z" />
<glyph unicode="o" horiz-adv-x="1353" d="M47 524.5q0 243.5 182.5 400t450.5 156.5q264 0 445.5 -157.5t181.5 -399t-177.5 -398.5t-449.5 -157q-283 0 -458 156t-175 399.5zM432 524.5q0 -108.5 67.5 -177t178.5 -68.5q106 0 175 69.5t69 175.5q0 109 -71 178.5t-173 69.5q-104 0 -175 -69.5t-71 -178z" />
<glyph unicode="p" d="M123 -532v1583h358v-119h4q134 149 341 149h3q227 0 375 -160.5t148 -394t-147.5 -395.5t-375.5 -162q-209 0 -344 131v-632h-362zM477 526q0 -109 70.5 -178t173.5 -69q104 0 175 69.5t71 178t-68 177t-178 68.5q-106 0 -175 -69.5t-69 -176.5z" />
<glyph unicode="q" d="M47 526.5q0 233.5 147.5 394t374.5 160.5q209 0 344 -149h5v119h358v-1583h-363v632q-135 -131 -344 -131q-227 0 -374.5 162t-147.5 395.5zM432 526.5q0 -108.5 70.5 -178t175.5 -69.5q102 0 173 69.5t71 177.5q0 106 -69 176t-175 70q-111 0 -178.5 -68.5t-67.5 -177z " />
<glyph unicode="r" horiz-adv-x="1019" d="M123 0v1051h362v-152h4q4 8 13.5 20.5t40 43t65.5 55t90.5 44t112.5 19.5q59 0 116.5 -16t84.5 -33l28 -16l-151 -307q-68 57 -189 57q-66 0 -112.5 -28.5t-66 -69.5t-28 -70t-8.5 -45v-553h-362z" />
<glyph unicode="s" horiz-adv-x="1007" d="M47 111l148 247q16 -14 42.5 -33.5t96 -53t121.5 -33.5q112 0 112 74q0 36 -28.5 55.5t-97 44t-107.5 45.5q-98 51 -155.5 115.5t-57.5 170.5q0 160 124 249t335 89q90 0 178 -20.5t131 -40.5l43 -21l-119 -237q-121 65 -230 65h-3q-61 0 -87 -13t-26 -50q0 -8 2 -16.5 t8 -15.5t11.5 -12t17.5 -11.5t19 -9.5t23.5 -9t25 -9t28 -9t29.5 -8q63 -18 110 -41t99.5 -62t81 -98.5t28.5 -134.5q0 -358 -497 -359q-113 0 -214.5 35t-146.5 70z" />
<glyph unicode="t" horiz-adv-x="808" d="M33 774v277h151v391h363v-391h221v-277h-221v-334q0 -145 82 -145q20 0 42.5 8t35.5 16l12 9l90 -293q-117 -66 -266 -66q-102 0 -176 36t-112 96.5t-54.5 127t-16.5 142.5v403h-151z" />
<glyph unicode="u" horiz-adv-x="1343" d="M102 463v588h363v-500q0 -156 47 -221.5t159.5 -65.5t160 65.5t47.5 221.5v500h362v-588q0 -262 -136 -378t-433 -116t-433.5 116t-136.5 378z" />
<glyph unicode="v" horiz-adv-x="1290" d="M-41 1051h430l256 -572l256 572h430l-563 -1051h-246z" />
<glyph unicode="w" horiz-adv-x="2019" d="M-41 1051h418l256 -568l252 568h250l251 -568l256 568h418l-563 -1051h-246l-241 543l-242 -543h-246z" />
<glyph unicode="x" horiz-adv-x="1339" d="M0 0l449 549l-386 502h424l183 -244l182 244h424l-385 -502l448 -549h-438l-231 297l-232 -297h-438z" />
<glyph unicode="y" horiz-adv-x="1296" d="M-41 1051h418l293 -539l250 539h417l-825 -1583h-418l363 696z" />
<glyph unicode="z" horiz-adv-x="1148" d="M10 0l520 774h-434v277h1043l-521 -775h480v-276h-1088z" />
<glyph unicode="{" horiz-adv-x="913" d="M123 518v193q143 0 143 133v547q0 70 14.5 130t49.5 117.5t101.5 90t160.5 32.5h199v-262h-82q-55 0 -92 -39t-37 -100v-526q0 -154 -125 -220q125 -66 125 -219v-526q0 -61 36.5 -100t92.5 -39h82v-262h-199q-94 0 -160.5 32.5t-101.5 90t-49.5 118t-14.5 129.5v547 q0 133 -143 133z" />
<glyph unicode="|" horiz-adv-x="559" d="M123 0v1761h313v-1761h-313z" />
<glyph unicode="}" horiz-adv-x="913" d="M123 -270h82q55 0 92 38.5t37 100.5v526q0 154 125 219q-125 66 -125 220v526q0 61 -37 100t-92 39h-82v262h199q94 0 160.5 -32.5t101 -90t49 -118t14.5 -129.5v-547q1 -133 144 -133v-193q-143 0 -144 -133v-547q0 -70 -14.5 -130t-49 -117.5t-101 -90t-160.5 -32.5 h-199v262z" />
<glyph unicode="~" horiz-adv-x="1421" d="M123 801q6 12 16.5 30.5t45 66.5t73.5 85t101.5 67.5t126 30.5t125 -19.5t90 -35.5t90.5 -55q94 -63 145 -64q53 0 96 40t60 81l16 39l190 -166q-6 -12 -16 -30.5t-45 -66.5t-74 -85t-101.5 -67.5t-125.5 -30.5q-137 0 -301 108q-98 66 -150 66q-53 0 -96 -40t-59 -79 l-17 -41z" />
<glyph unicode="&#xa1;" horiz-adv-x="714" d="M123 1026q0 96 68.5 165t164.5 69q98 0 167 -69t69 -165q0 -98 -69 -166.5t-167 -68.5q-96 0 -164.5 68.5t-68.5 166.5zM176 -532l49 1208h264l50 -1208h-363z" />
<glyph unicode="&#xa2;" horiz-adv-x="1005" d="M47 522q0 180 113.5 325.5t285.5 203.5v252h222v-224q92 -4 169.5 -28.5t110.5 -46.5l33 -21l-123 -248q-68 49 -176 49q-102 0 -176 -75.5t-74 -182.5q0 -109 74 -184.5t176 -75.5q49 0 93 12.5t65 24.5l18 12l123 -252q-88 -66 -252 -88v-239h-221v248 q-195 41 -328 192.5t-133 345.5z" />
<glyph unicode="&#xa3;" horiz-adv-x="1533" d="M113 0q0 61 34.5 143t106.5 152t158 70q33 47 32 118q0 49 -24 109h-307v201h209q-106 168 -107 350q0 252 150.5 415.5t425.5 163.5q135 0 241.5 -40t163.5 -97t95 -114.5t48 -98.5l13 -39l-324 -157q-2 10 -5 25.5t-21.5 56t-42 71.5t-68.5 56.5t-100 25.5 q-92 0 -143.5 -73.5t-51.5 -194.5q0 -49 5 -89t18.5 -80t20.5 -59.5t28.5 -65.5t25.5 -56h355v-201h-281q6 -43 6 -94q0 -43 -14.5 -84t-28.5 -62l-14 -20q2 0 116.5 -34t204.5 -34q51 0 86 37t43 74l9 37l280 -140q-2 -12 -7 -32.5t-30.5 -72.5t-62.5 -92t-109.5 -73 t-165.5 -33q-135 0 -342 59.5t-295 59.5q-37 0 -61.5 -21.5t-30.5 -43.5l-4 -23h-235z" />
<glyph unicode="&#xa5;" horiz-adv-x="1564" d="M-33 1690h463l352 -541l353 541h462l-532 -797h344v-272h-434v-123h434v-273h-434v-225h-385v225h-436v273h436v123h-436v272h346z" />
<glyph unicode="&#xa6;" horiz-adv-x="559" d="M123 0v680h313v-680h-313zM123 1081v680h313v-680h-313z" />
<glyph unicode="&#xa7;" horiz-adv-x="1310" d="M47 -172l328 70q2 -6 6 -17.5t21.5 -38t39 -47t61.5 -38t87 -17.5q168 0 168 113q0 31 -19.5 57.5t-71 57t-91 51t-125.5 59.5q-201 94 -302.5 207.5t-101.5 279.5q6 117 78 215.5t197 153.5q-94 68 -138.5 151.5t-44.5 206.5q0 180 134.5 304t394.5 124 q88 0 163.5 -20.5t125 -52t88 -71.5t60 -79t35 -70.5t17.5 -52.5l4 -20l-327 -70q0 6 -2.5 14.5t-12.5 32t-25.5 41t-49 31.5t-76.5 14q-61 0 -95 -31.5t-34 -80.5q0 -55 72.5 -102.5t238.5 -123.5q201 -94 302 -207.5t101 -279.5q-6 -117 -77.5 -215t-196.5 -154 q94 -70 138 -153.5t44 -204.5q0 -74 -27.5 -142.5t-88 -136t-178 -108.5t-277.5 -41q-133 0 -238.5 40t-160 98t-90 115.5t-44.5 96.5zM383 625q2 -47 49 -92.5t93 -70t128 -63.5q4 -2 16.5 -7t18.5 -9l47 -23q174 45 183 172q-2 47 -49.5 92.5t-93.5 70t-128 63.5 q-4 2 -16.5 7t-18.5 9l-49 23q-172 -49 -180 -172z" />
<glyph unicode="&#xa8;" horiz-adv-x="1148" d="M143 1431.5q0 77.5 55.5 133t133.5 55.5t133 -55.5t55 -133t-55 -133t-133 -55.5t-133.5 55.5t-55.5 133zM629 1431.5q0 77.5 55 133t133 55.5t133.5 -55.5t55.5 -133t-55.5 -133t-133.5 -55.5t-133 55.5t-55 133z" />
<glyph unicode="&#xa9;" horiz-adv-x="1845" d="M47 844q0 362 257 619t618 257q362 0 619 -257t257 -619q0 -360 -257 -617.5t-619 -257.5q-360 0 -617.5 257.5t-257.5 617.5zM281 844q0 -264 188 -452.5t453 -188.5q266 0 454.5 188.5t188.5 452.5q0 266 -188.5 454.5t-454.5 188.5q-264 0 -452.5 -188.5 t-188.5 -454.5zM514 846q0 -174 135 -299t312 -125q70 0 137 16.5t98 32.5l33 18q-14 33 -45 92.5t-45 92.5q-55 -33 -135 -33q-84 0 -142.5 60.5t-58.5 148.5q0 86 58.5 146.5t142.5 60.5q31 0 64.5 -8.5t53.5 -16.5l19 -8l88 182q-8 8 -33 22.5t-91.5 32t-143.5 17.5 q-176 0 -311.5 -128t-135.5 -304z" />
<glyph unicode="&#xaa;" horiz-adv-x="1048" d="M143 1374q0 145 91.5 245.5t232.5 100.5q127 0 215 -82v62h223v-649h-221v73h-2q-86 -92 -215 -92q-141 0 -232.5 99.5t-91.5 242.5zM383 1374q0 -66 42 -108.5t110 -42.5q66 0 108.5 43t42.5 108q0 68 -44 111t-107.5 43t-107.5 -43t-44 -111z" />
<glyph unicode="&#xab;" horiz-adv-x="1280" d="M68 569l399 512l190 -149l-282 -363l282 -362l-190 -150zM580 569l399 512l190 -149l-282 -363l282 -362l-190 -150z" />
<glyph unicode="&#xad;" horiz-adv-x="905" d="M123 436v314h659v-314h-659z" />
<glyph unicode="&#xae;" horiz-adv-x="1011" d="M47 1260q0 190 134 325t323 135q193 0 327 -135t134 -325q0 -188 -134.5 -322.5t-326.5 -134.5q-188 0 -322.5 134.5t-134.5 322.5zM170 1260q0 -137 98.5 -235.5t235.5 -98.5q141 0 239.5 97t98.5 236.5t-98.5 238.5t-239.5 99q-137 0 -235.5 -99t-98.5 -238zM365 1051 v424h149q61 0 100 -33t39 -92q0 -92 -86 -123l150 -176h-127l-129 168v-168h-96zM461 1286h12q76 0 76 55q0 57 -76 58h-12v-113z" />
<glyph unicode="&#xaf;" horiz-adv-x="1122" d="M143 1298v246h836v-246h-836z" />
<glyph unicode="&#xb0;" horiz-adv-x="761" d="M143 1581q0 92 69 151.5t169 59.5t168.5 -59.5t68.5 -151.5t-66.5 -151.5t-171 -59.5t-171 59.5t-66.5 151.5zM293 1581q0 -39 24.5 -66.5t63.5 -27.5t64.5 27.5t25.5 66.5t-25.5 65.5t-64.5 26.5q-37 0 -62.5 -26.5t-25.5 -65.5z" />
<glyph unicode="&#xb1;" horiz-adv-x="1296" d="M123 0v313h1051v-313h-1051zM123 743v314h369v317h313v-317h369v-314h-369v-317h-313v317h-369z" />
<glyph unicode="&#xb2;" horiz-adv-x="546" d="M66 1051v36q14 12 36.5 32t81 74t103.5 103.5t82 103.5t37 89q-1 104 -95 104q-33 0 -61.5 -30.5t-40.5 -63.5l-14 -31l-125 62q2 8 7 20.5t26.5 45t46 58t68.5 46t93 20.5q80 0 135.5 -23.5t79 -62.5t32.5 -72.5t9 -72.5q0 -68 -58 -144.5t-116 -119.5l-57 -43h244v-131 h-514z" />
<glyph unicode="&#xb3;" horiz-adv-x="518" d="M18 1210l138 66q0 -10 4 -26.5t30.5 -44t69.5 -27.5t68.5 22.5t25.5 63.5t-26.5 67.5t-67.5 26.5l-27 -4v96h31q31 0 54.5 23.5t23.5 58.5q0 31 -24.5 51.5t-55.5 20.5q-37 0 -60.5 -19.5t-29.5 -40.5l-6 -20l-115 55q2 6 5 15.5t18.5 34t37 43t61.5 33.5t91 15 q92 0 151.5 -53t59.5 -135q0 -76 -57 -121q82 -49 82 -147q0 -94 -67.5 -153.5t-170.5 -59.5q-55 0 -101 16t-70.5 39.5t-42 47.5t-23.5 40z" />
<glyph unicode="&#xb4;" horiz-adv-x="1159" d="M279 1360l415 360l187 -235l-488 -283z" />
<glyph unicode="&#xb6;" horiz-adv-x="1449" d="M47 1169q0 221 147.5 371t389.5 150h743v-1690h-211v1477h-125v-1477h-211v627h-196q-240 0 -388.5 159.5t-148.5 382.5z" />
<glyph unicode="&#xb7;" horiz-adv-x="714" d="M123 551q0 98 68.5 166.5t164.5 68.5q98 0 167 -68.5t69 -166.5q0 -96 -68.5 -165t-167.5 -69q-96 0 -164.5 69t-68.5 165z" />
<glyph unicode="&#xb8;" horiz-adv-x="913" d="M143 -432l148 110q8 -10 23.5 -26.5t59.5 -43t85 -26.5q53 0 77.5 23.5t24.5 56.5q0 45 -39 68.5t-88 23.5q-33 0 -59.5 -4t-34.5 -8l-10 -6l-21 16l99 301l143 -45l-45 -137q96 0 180 -55.5t84 -153.5q0 -109 -77 -186.5t-234 -77.5q-82 0 -161 43t-118 84z" />
<glyph unicode="&#xb9;" horiz-adv-x="286" d="M18 1427v146l181 117h69v-639h-145v444z" />
<glyph unicode="&#xba;" horiz-adv-x="1067" d="M143 1374.5q0 149.5 114 247.5t280 98q164 0 275.5 -98t111.5 -247.5t-109.5 -246t-277.5 -96.5q-176 0 -285 96.5t-109 246zM383 1374.5q0 -67.5 42 -109.5t110 -42q66 0 108.5 43t42.5 108q0 68 -44 111t-107.5 43t-107.5 -43t-44 -110.5z" />
<glyph unicode="&#xbb;" horiz-adv-x="1280" d="M111 207l282 362l-282 363l190 149l399 -512l-399 -512zM623 207l282 362l-282 363l190 149l399 -512l-399 -512z" />
<glyph unicode="&#xbc;" horiz-adv-x="1794" d="M123 1286v223l278 181h107v-983h-223v686zM207 0l983 1690h242l-983 -1690h-242zM918 207v67l473 709h221v-580h112v-196h-112v-207h-211v207h-483zM1225 403h176v281h-2z" />
<glyph unicode="&#xbd;" horiz-adv-x="1935" d="M123 1286v223l278 181h107v-983h-223v686zM207 0l983 1690h242l-983 -1690h-242zM1094 0v55q20 16 54 45t120 110t151.5 152.5t119.5 152.5t54 132q0 29 -6 57.5t-40 62.5t-93 34q-47 0 -90 -46t-61 -91l-21 -48l-184 89q4 12 12 30.5t38 67.5t66.5 86t101 67.5 t138.5 30.5q117 0 198 -34.5t116.5 -92t49 -108t13.5 -105.5q0 -63 -35 -133t-85 -125t-101 -100t-86 -70l-35 -24h360v-195h-755z" />
<glyph unicode="&#xbe;" horiz-adv-x="2000" d="M74 938l202 98q0 -6 2.5 -15t12.5 -34.5t24.5 -45t45 -35t71.5 -15.5q61 0 100 33.5t39 93.5q0 61 -39.5 100t-99.5 39l-41 -6v143h47q45 0 80 35t35 86q0 45 -36 76t-83 31q-53 0 -89 -30t-46 -58l-8 -31l-172 84q2 8 7 22.5t27.5 50t54.5 63.5t93 50.5t137 22.5 q137 0 225.5 -78t88.5 -201q0 -115 -84 -180q123 -76 123 -219q0 -137 -101.5 -227.5t-255.5 -90.5q-84 0 -151.5 25t-104.5 59.5t-62.5 69.5t-33.5 59zM414 0l983 1690h241l-983 -1690h-241zM1124 207v67l473 709h222v-580h112v-196h-112v-207h-211v207h-484zM1432 403h176 v281h-2z" />
<glyph unicode="&#xbf;" horiz-adv-x="1220" d="M47 -74q0 -211 172 -350t410 -139q129 0 231.5 40t158.5 93t93 113.5t49.5 96.5t12.5 44l-302 145q-20 -82 -80.5 -146.5t-160.5 -64.5q-70 0 -118 47.5t-48 120.5q0 51 22.5 87t49 52.5t82 44t88.5 48.5q63 41 79.5 90t16.5 133v223h-338v-115q0 -43 -3 -65.5t-19.5 -49 t-49.5 -40.5q-346 -147 -346 -408zM399 954q0 96 69 165t167 69q96 0 164.5 -68.5t68.5 -165.5q0 -98 -68.5 -166.5t-164.5 -68.5q-98 0 -167 68.5t-69 166.5z" />
<glyph unicode="&#xc0;" horiz-adv-x="1605" d="M-57 0l682 1690h356l682 -1690h-414l-125 338h-643l-125 -338h-413zM319 2124l187 235l416 -360l-115 -158zM612 676h381l-188 491h-4z" />
<glyph unicode="&#xc1;" horiz-adv-x="1605" d="M-57 0l682 1690h356l682 -1690h-414l-125 338h-643l-125 -338h-413zM612 676h381l-188 491h-4zM682 1999l416 360l186 -235l-487 -283z" />
<glyph unicode="&#xc2;" horiz-adv-x="1605" d="M-57 0l682 1690h356l682 -1690h-414l-125 338h-643l-125 -338h-413zM350 2028l453 331l452 -331l-139 -187l-313 230l-314 -230zM612 676h381l-188 491h-4z" />
<glyph unicode="&#xc3;" horiz-adv-x="1605" d="M-57 0l682 1690h356l682 -1690h-414l-125 338h-643l-125 -338h-413zM330 1898q2 14 7 38t26.5 84.5t49 107.5t80 85t115.5 38q35 0 88.5 -13.5t89.5 -27.5l35 -15q82 -39 156 -38q29 0 52.5 23.5t31.5 47.5l8 23h207q-2 -14 -7 -38t-26.5 -84.5t-49.5 -107.5t-80 -85 t-116 -38q-35 0 -88 13.5t-90 27.5l-35 15q-82 39 -155 39q-29 0 -52.5 -23.5t-31.5 -48.5l-8 -23h-207zM612 676h381l-188 491h-4z" />
<glyph unicode="&#xc4;" horiz-adv-x="1605" d="M-57 0l682 1690h356l682 -1690h-414l-125 338h-643l-125 -338h-413zM371 2070.5q0 77.5 55 133t133 55.5t133.5 -55.5t55.5 -133t-55.5 -133t-133.5 -55.5t-133 55.5t-55 133zM612 676h381l-188 491h-4zM856 2070.5q0 77.5 55.5 133t133 55.5t133 -55.5t55.5 -133 t-55.5 -133t-133 -55.5t-133 55.5t-55.5 133z" />
<glyph unicode="&#xc5;" horiz-adv-x="1605" d="M-57 0l682 1690h356l682 -1690h-414l-125 338h-643l-125 -338h-413zM473 2140q0 127 95.5 209t234.5 82q141 0 235.5 -82t94.5 -209q0 -129 -92.5 -211t-237.5 -82q-147 0 -238.5 82t-91.5 211zM612 676h381l-188 491h-4zM678 2140q0 -55 35 -93t90 -38q53 0 89 38t36 93 q0 53 -37 90t-88 37t-88 -38t-37 -89z" />
<glyph unicode="&#xc6;" horiz-adv-x="2007" d="M-10 0l772 1690h1147v-338h-582v-336h557v-338h-557v-340h582v-338h-967v338h-395l-144 -338h-413zM682 676h260v618h-4z" />
<glyph unicode="&#xc7;" horiz-adv-x="1542" d="M47 842q0 178 76 342t202 280.5t293.5 186t344.5 69.5q164 0 302 -39t195 -77l58 -39l-164 -328q-14 12 -43 29.5t-115 46t-174 28.5q-139 0 -249.5 -45t-175.5 -118.5t-98.5 -158.5t-33.5 -173q0 -193 144.5 -345.5t412.5 -152.5q88 0 171 26.5t122 51.5l39 27l164 -328 q-8 -6 -22.5 -16.5t-67 -38t-112 -48t-155.5 -37t-198 -16.5q-68 0 -123 8l-35 -106q96 0 180 -55.5t84 -153.5q0 -109 -77 -186.5t-234 -77.5q-82 0 -161 43t-118 84l-37 43l148 110q8 -10 23.5 -26.5t59.5 -43t85 -26.5q53 0 77.5 23.5t24.5 56.5q0 45 -39 68.5t-88 23.5 q-33 0 -59.5 -4t-34.5 -8l-10 -6l-21 16l84 258q-279 86 -462 315.5t-183 516.5z" />
<glyph unicode="&#xc8;" horiz-adv-x="1187" d="M111 2124l186 235l416 -360l-115 -158zM123 0v1690h967v-338h-582v-336h557v-338h-557v-340h582v-338h-967z" />
<glyph unicode="&#xc9;" horiz-adv-x="1187" d="M123 0v1690h967v-338h-582v-336h557v-338h-557v-340h582v-338h-967zM352 1999l416 360l186 -235l-487 -283z" />
<glyph unicode="&#xca;" horiz-adv-x="1187" d="M123 0v1690h967v-338h-582v-336h557v-338h-557v-340h582v-338h-967zM141 2028l453 331l453 -331l-140 -187l-313 230l-313 -230z" />
<glyph unicode="&#xcb;" horiz-adv-x="1187" d="M123 0v1690h967v-338h-582v-336h557v-338h-557v-340h582v-338h-967zM162 2070.5q0 77.5 55 133t133 55.5t133.5 -55.5t55.5 -133t-55.5 -133t-133.5 -55.5t-133 55.5t-55 133zM647 2070.5q0 77.5 55.5 133t133 55.5t133 -55.5t55.5 -133t-55.5 -133t-133 -55.5t-133 55.5 t-55.5 133z" />
<glyph unicode="&#xcc;" horiz-adv-x="630" d="M-168 2124l186 235l416 -360l-115 -158zM123 0v1690h385v-1690h-385z" />
<glyph unicode="&#xcd;" horiz-adv-x="630" d="M115 1999l415 360l187 -235l-488 -283zM123 0v1690h385v-1690h-385z" />
<glyph unicode="&#xce;" horiz-adv-x="630" d="M-137 2028l452 331l453 -331l-139 -187l-314 230l-313 -230zM123 0v1690h385v-1690h-385z" />
<glyph unicode="&#xcf;" horiz-adv-x="630" d="M-115 2070.5q0 77.5 55.5 133t133.5 55.5t133 -55.5t55 -133t-55 -133t-133 -55.5t-133.5 55.5t-55.5 133zM123 0v1690h385v-1690h-385zM371 2070.5q0 77.5 55 133t133 55.5t133.5 -55.5t55.5 -133t-55.5 -133t-133.5 -55.5t-133 55.5t-55 133z" />
<glyph unicode="&#xd0;" horiz-adv-x="1589" d="M33 688v313h168v689h489q354 0 603 -241t249 -605q-2 -365 -251 -604.5t-601 -239.5h-489v688h-168zM586 344h59q213 0 347 143.5t134 358.5q-2 213 -136 356.5t-345 143.5h-59v-345h223v-313h-223v-344z" />
<glyph unicode="&#xd1;" horiz-adv-x="1691" d="M123 0v1690h385l672 -1049h4v1049h385v-1690h-385l-672 1049h-4v-1049h-385zM373 1898q2 14 7 38t26.5 84.5t49 107.5t80 85t115.5 38q35 0 88.5 -13.5t87.5 -27.5l37 -15q82 -39 156 -38q29 0 52.5 23.5t31.5 47.5l8 23h207q-2 -14 -7 -38t-26.5 -84.5t-49.5 -107.5 t-80 -85t-116 -38q-35 0 -88 13.5t-88 27.5l-37 15q-82 39 -155 39q-29 0 -52.5 -23.5t-31.5 -48.5l-8 -23h-207z" />
<glyph unicode="&#xd2;" horiz-adv-x="1796" d="M47 846q0 367 250 620.5t602 253.5q354 0 602 -253t248 -621q0 -371 -243.5 -624t-606.5 -253q-371 0 -611.5 251t-240.5 626zM414 2124l186 235l416 -360l-115 -158zM463 846q0 -133 41 -242.5t143.5 -185.5t251.5 -76q215 0 324.5 147.5t109.5 356.5 q0 207 -111.5 355.5t-322.5 148.5q-209 0 -322.5 -148.5t-113.5 -355.5z" />
<glyph unicode="&#xd3;" horiz-adv-x="1796" d="M47 846q0 367 250 620.5t602 253.5q354 0 602 -253t248 -621q0 -371 -243.5 -624t-606.5 -253q-371 0 -611.5 251t-240.5 626zM463 846q0 -133 41 -242.5t143.5 -185.5t251.5 -76q215 0 324.5 147.5t109.5 356.5q0 207 -111.5 355.5t-322.5 148.5q-209 0 -322.5 -148.5 t-113.5 -355.5zM696 1999l416 360l186 -235l-487 -283z" />
<glyph unicode="&#xd4;" horiz-adv-x="1796" d="M47 846q0 367 250 620.5t602 253.5q354 0 602 -253t248 -621q0 -371 -243.5 -624t-606.5 -253q-371 0 -611.5 251t-240.5 626zM444 2028l453 331l453 -331l-140 -187l-313 230l-313 -230zM463 846q0 -133 41 -242.5t143.5 -185.5t251.5 -76q215 0 324.5 147.5 t109.5 356.5q0 207 -111.5 355.5t-322.5 148.5q-209 0 -322.5 -148.5t-113.5 -355.5z" />
<glyph unicode="&#xd5;" horiz-adv-x="1796" d="M47 846q0 367 250 620.5t602 253.5q354 0 602 -253t248 -621q0 -371 -243.5 -624t-606.5 -253q-371 0 -611.5 251t-240.5 626zM424 1898q2 14 7 38t26.5 84.5t49.5 107.5t80 85t115 38q35 0 88.5 -13.5t90.5 -27.5l34 -15q82 -39 156 -38q29 0 52.5 23.5t31.5 47.5l8 23 h207q-2 -14 -7 -38t-26.5 -84.5t-49 -107.5t-80 -85t-115.5 -38q-35 0 -88.5 13.5t-90.5 27.5l-34 15q-82 39 -156 39q-29 0 -52.5 -23.5t-31.5 -48.5l-8 -23h-207zM463 846q0 -133 41 -242.5t143.5 -185.5t251.5 -76q215 0 324.5 147.5t109.5 356.5q0 207 -111.5 355.5 t-322.5 148.5q-209 0 -322.5 -148.5t-113.5 -355.5z" />
<glyph unicode="&#xd6;" horiz-adv-x="1796" d="M47 846q0 367 250 620.5t602 253.5q354 0 602 -253t248 -621q0 -371 -243.5 -624t-606.5 -253q-371 0 -611.5 251t-240.5 626zM463 846q0 -133 41 -242.5t143.5 -185.5t251.5 -76q215 0 324.5 147.5t109.5 356.5q0 207 -111.5 355.5t-322.5 148.5q-209 0 -322.5 -148.5 t-113.5 -355.5zM467 2070.5q0 77.5 55.5 133t133 55.5t133 -55.5t55.5 -133t-55.5 -133t-133 -55.5t-133 55.5t-55.5 133zM952 2070.5q0 77.5 55.5 133t133.5 55.5t133 -55.5t55 -133t-55 -133t-133 -55.5t-133.5 55.5t-55.5 133z" />
<glyph unicode="&#xd7;" horiz-adv-x="1296" d="M115 539l311 311l-311 313l221 219l311 -311l314 311l221 -221l-314 -313l314 -311l-219 -222l-314 314l-313 -314z" />
<glyph unicode="&#xd8;" horiz-adv-x="1796" d="M47 846q0 367 250 620.5t602 253.5q223 0 420 -112l111 139l229 -176l-119 -150q209 -246 209 -575q0 -371 -243.5 -624t-606.5 -253q-236 0 -428 109l-104 -133l-230 176l113 141q-203 242 -203 584zM463 846q0 -143 47 -256l571 721q-82 39 -182 39 q-209 0 -322.5 -148.5t-113.5 -355.5zM711 379q80 -37 188 -37q215 0 324.5 147.5t109.5 356.5q0 137 -51 252z" />
<glyph unicode="&#xd9;" horiz-adv-x="1523" d="M102 600q0 -311 168 -471t491.5 -160t491.5 160t168 471v1090h-385v-977q0 -205 -64.5 -285t-210 -80t-210 80t-64.5 285v977h-385v-1090zM279 2124l186 235l416 -360l-115 -158z" />
<glyph unicode="&#xda;" horiz-adv-x="1523" d="M102 600q0 -311 168 -471t491.5 -160t491.5 160t168 471v1090h-385v-977q0 -205 -64.5 -285t-210 -80t-210 80t-64.5 285v977h-385v-1090zM520 1999l416 360l186 -235l-487 -283z" />
<glyph unicode="&#xdb;" horiz-adv-x="1523" d="M102 600q0 -311 168 -471t491.5 -160t491.5 160t168 471v1090h-385v-977q0 -205 -64.5 -285t-210 -80t-210 80t-64.5 285v977h-385v-1090zM309 2028l453 331l452 -331l-139 -187l-313 230l-313 -230z" />
<glyph unicode="&#xdc;" horiz-adv-x="1523" d="M102 600q0 -311 168 -471t491.5 -160t491.5 160t168 471v1090h-385v-977q0 -205 -64.5 -285t-210 -80t-210 80t-64.5 285v977h-385v-1090zM330 2070.5q0 77.5 55 133t133 55.5t133.5 -55.5t55.5 -133t-55.5 -133t-133.5 -55.5t-133 55.5t-55 133zM815 2070.5 q0 77.5 55.5 133t133 55.5t133 -55.5t55.5 -133t-55.5 -133t-133 -55.5t-133 55.5t-55.5 133z" />
<glyph unicode="&#xdd;" horiz-adv-x="1507" d="M-61 1690h462l353 -541l352 541h463l-623 -932v-758h-385v758zM514 1999l416 360l186 -235l-487 -283z" />
<glyph unicode="&#xde;" horiz-adv-x="1363" d="M123 0v1690h385v-314h231q258 0 418 -133t160 -387t-162 -398.5t-416 -144.5h-231v-313h-385zM508 621h108q285 0 285 223q0 225 -285 225h-108v-448z" />
<glyph unicode="&#xdf;" horiz-adv-x="1343" d="M49 666v276h135v332q0 225 154 371.5t364 146.5q236 -4 382.5 -146.5t146.5 -355.5q0 -233 -205 -348q270 -125 270 -420q0 -242 -177 -397.5t-451 -155.5v332q106 0 174.5 66.5t68.5 173.5q0 117 -64.5 186.5t-178.5 69.5v276q92 0 156.5 61.5t64.5 155.5 q0 92 -49 144.5t-138 52.5q-57 0 -106 -50.5t-49 -133.5v-1303h-363v666h-135z" />
<glyph unicode="&#xe0;" d="M47 524.5q0 -233.5 147.5 -394.5t374.5 -161q209 0 344 150h5v-119h358v1051h-363v-101q-135 131 -344 131q-227 0 -374.5 -161.5t-147.5 -395zM215 1485l186 235l416 -360l-115 -158zM432 524.5q0 108.5 70.5 178t175.5 69.5q102 0 173 -69.5t71 -178.5 q0 -106 -69 -175.5t-175 -69.5q-111 0 -178.5 68.5t-67.5 177z" />
<glyph unicode="&#xe1;" d="M47 524.5q0 -233.5 147.5 -394.5t374.5 -161q209 0 344 150h5v-119h358v1051h-363v-101q-135 131 -344 131q-227 0 -374.5 -161.5t-147.5 -395zM432 524.5q0 108.5 70.5 178t175.5 69.5q102 0 173 -69.5t71 -178.5q0 -106 -69 -175.5t-175 -69.5q-111 0 -178.5 68.5 t-67.5 177zM580 1360l415 360l187 -235l-488 -283z" />
<glyph unicode="&#xe2;" d="M47 524.5q0 -233.5 147.5 -394.5t374.5 -161q209 0 344 150h5v-119h358v1051h-363v-101q-135 131 -344 131q-227 0 -374.5 -161.5t-147.5 -395zM246 1389l452 331l453 -331l-139 -187l-314 230l-313 -230zM432 524.5q0 108.5 70.5 178t175.5 69.5q102 0 173 -69.5 t71 -178.5q0 -106 -69 -175.5t-175 -69.5q-111 0 -178.5 68.5t-67.5 177z" />
<glyph unicode="&#xe3;" d="M47 524.5q0 -233.5 147.5 -394.5t374.5 -161q209 0 344 150h5v-119h358v1051h-363v-101q-135 131 -344 131q-227 0 -374.5 -161.5t-147.5 -395zM225 1260q2 14 7.5 37.5t27 84t49 107.5t79.5 85t116 38q35 0 88 -13.5t88 -27.5l37 -15q82 -39 155 -38q29 0 52.5 23.5 t31.5 47.5l9 23h206q-2 -14 -7 -38t-26.5 -84t-49 -107.5t-80 -85t-115.5 -37.5q-35 0 -88 13t-88 27l-37 15q-82 39 -156 39q-29 0 -52 -23.5t-32 -48.5l-8 -22h-207zM432 524.5q0 108.5 70.5 178t175.5 69.5q102 0 173 -69.5t71 -178.5q0 -106 -69 -175.5t-175 -69.5 q-111 0 -178.5 68.5t-67.5 177z" />
<glyph unicode="&#xe4;" d="M47 524.5q0 -233.5 147.5 -394.5t374.5 -161q209 0 344 150h5v-119h358v1051h-363v-101q-135 131 -344 131q-227 0 -374.5 -161.5t-147.5 -395zM268 1431.5q0 77.5 55.5 133t133.5 55.5t133 -55.5t55 -133t-55 -133t-133 -55.5t-133.5 55.5t-55.5 133zM432 524.5 q0 108.5 70.5 178t175.5 69.5q102 0 173 -69.5t71 -178.5q0 -106 -69 -175.5t-175 -69.5q-111 0 -178.5 68.5t-67.5 177zM754 1431.5q0 77.5 55 133t133 55.5t133 -55.5t55 -133t-55 -133t-133 -55.5t-133 55.5t-55 133z" />
<glyph unicode="&#xe5;" d="M47 524.5q0 233.5 147.5 395t374.5 161.5q209 0 344 -131v101h363v-1051h-358v119h-5q-135 -150 -344 -150q-227 0 -374.5 161t-147.5 394.5zM369 1501q0 127 95 209t234 82q141 0 235.5 -82t94.5 -209q0 -129 -92 -211t-238 -82q-147 0 -238 82t-91 211zM432 524.5 q0 -108.5 67.5 -177t178.5 -68.5q106 0 175 69.5t69 175.5q0 109 -71 178.5t-173 69.5q-104 0 -175 -69.5t-71 -178zM573 1501q0 -55 35 -93t90 -38q53 0 89 38t36 93q0 53 -36.5 90t-88 37t-88.5 -38t-37 -89z" />
<glyph unicode="&#xe6;" horiz-adv-x="1931" d="M47 279q0 145 100.5 241t274.5 96q207 0 321 -79v75q0 80 -71.5 130.5t-157.5 50.5q-84 0 -154.5 -15.5t-101.5 -32.5l-29 -14l-114 248q14 12 43.5 28.5t133 45t222.5 28.5q268 0 434 -131q160 131 373 131q250 0 406.5 -144t156.5 -413q0 -37 -2 -49h-762 q0 -111 72 -164t156 -53q88 0 139 23.5t117 93.5l262 -131q-164 -274 -545 -275q-264 0 -436 193q-6 -8 -16.5 -20.5t-49.5 -46.5t-86 -59.5t-127 -46t-170 -20.5q-168 0 -278.5 85t-110.5 225zM408 309.5q0 -55.5 45 -89.5t116 -34q70 0 122 38t52 85t-51 81t-123 34 q-74 0 -117.5 -29.5t-43.5 -85zM1130 676h400q-12 82 -64.5 126t-134.5 44q-90 0 -143.5 -47t-57.5 -123z" />
<glyph unicode="&#xe7;" horiz-adv-x="1005" d="M47 522q0 229 175 394t407 165q104 0 192 -24.5t125 -48.5l35 -25l-123 -248q-68 49 -176 49q-102 0 -176 -75.5t-74 -182.5q0 -109 74 -184.5t176 -75.5q49 0 93 12.5t65 24.5l18 12l123 -252q-14 -10 -40 -25t-117 -42t-195 -27q-25 0 -37 2l-33 -100q96 0 180 -55.5 t84 -153.5q0 -109 -76.5 -186.5t-234.5 -77.5q-82 0 -161 43t-118 84l-36 43l147 110q8 -10 23.5 -26.5t59.5 -43t85 -26.5q53 0 77.5 23.5t24.5 56.5q0 45 -38.5 68.5t-88.5 23.5q-33 0 -59.5 -4t-34.5 -8l-10 -6l-21 16l80 248q-170 57 -282.5 200.5t-112.5 321.5z" />
<glyph unicode="&#xe8;" horiz-adv-x="1234" d="M47 524.5q0 229.5 170 393t408 163.5q250 0 406.5 -144t156.5 -413q0 -37 -2 -49h-762q0 -111 71.5 -164t155.5 -53q88 0 139.5 23.5t116.5 93.5l262 -131q-164 -274 -544 -275q-238 0 -408 163t-170 392.5zM133 1485l186 235l416 -360l-114 -158zM434 676h400 q-12 82 -64.5 126t-134.5 44q-90 0 -143.5 -47t-57.5 -123z" />
<glyph unicode="&#xe9;" horiz-adv-x="1234" d="M47 524.5q0 229.5 170 393t408 163.5q250 0 406.5 -144t156.5 -413q0 -37 -2 -49h-762q0 -111 71.5 -164t155.5 -53q88 0 139.5 23.5t116.5 93.5l262 -131q-164 -274 -544 -275q-238 0 -408 163t-170 392.5zM434 676h400q-12 82 -64.5 126t-134.5 44q-90 0 -143.5 -47 t-57.5 -123zM498 1360l415 360l187 -235l-488 -283z" />
<glyph unicode="&#xea;" horiz-adv-x="1234" d="M47 524.5q0 229.5 170 393t408 163.5q250 0 406.5 -144t156.5 -413q0 -37 -2 -49h-762q0 -111 71.5 -164t155.5 -53q88 0 139.5 23.5t116.5 93.5l262 -131q-164 -274 -544 -275q-238 0 -408 163t-170 392.5zM164 1389l452 331l453 -331l-139 -187l-314 230l-313 -230z M434 676h400q-12 82 -64.5 126t-134.5 44q-90 0 -143.5 -47t-57.5 -123z" />
<glyph unicode="&#xeb;" horiz-adv-x="1234" d="M47 524.5q0 229.5 170 393t408 163.5q250 0 406.5 -144t156.5 -413q0 -37 -2 -49h-762q0 -111 71.5 -164t155.5 -53q88 0 139.5 23.5t116.5 93.5l262 -131q-164 -274 -544 -275q-238 0 -408 163t-170 392.5zM186 1431.5q0 77.5 55.5 133t133.5 55.5t133 -55.5t55 -133 t-55 -133t-133 -55.5t-133.5 55.5t-55.5 133zM434 676h400q-12 82 -64.5 126t-134.5 44q-90 0 -143.5 -47t-57.5 -123zM672 1431.5q0 77.5 55 133t133 55.5t133.5 -55.5t55.5 -133t-55.5 -133t-133.5 -55.5t-133 55.5t-55 133z" />
<glyph unicode="&#xec;" horiz-adv-x="608" d="M-178 1485l186 235l416 -360l-115 -158zM123 0h362v1051h-362v-1051z" />
<glyph unicode="&#xed;" horiz-adv-x="608" d="M123 0h362v1051h-362v-1051zM184 1360l416 360l186 -235l-487 -283z" />
<glyph unicode="&#xee;" horiz-adv-x="608" d="M-147 1389l452 331l453 -331l-140 -187l-313 230l-313 -230zM123 0h362v1051h-362v-1051z" />
<glyph unicode="&#xef;" horiz-adv-x="608" d="M-127 1431.5q0 77.5 55.5 133t133 55.5t133 -55.5t55.5 -133t-55.5 -133t-133 -55.5t-133 55.5t-55.5 133zM123 0h362v1051h-362v-1051zM358 1431.5q0 77.5 55.5 133t133.5 55.5t133 -55.5t55 -133t-55 -133t-133 -55.5t-133.5 55.5t-55.5 133z" />
<glyph unicode="&#xf0;" horiz-adv-x="1400" d="M84 524q0 162 86 294t206 197.5t236 65.5q125 0 185 -32q-90 129 -240 235l-170 -168l-158 158l127 127q-57 27 -114.5 48t-85.5 30l-27 6l86 307q174 -39 385 -147l150 147l155 -160l-106 -106q545 -383 544 -1002q0 -242 -177 -398.5t-449 -156.5q-283 0 -458 155.5 t-175 399.5zM469 524.5q0 -108.5 67.5 -177t178.5 -68.5q106 0 174.5 69.5t68.5 175.5v11q-4 104 -74.5 170.5t-168.5 66.5q-104 0 -175 -69.5t-71 -178z" />
<glyph unicode="&#xf1;" horiz-adv-x="1353" d="M123 0h362v594q0 78 66.5 141.5t148.5 63.5q84 0 136.5 -61.5t52.5 -143.5v-594h362v692q0 104 -44 183t-114.5 122t-147.5 63.5t-154 20.5q-160 0 -302 -141h-4v111h-362v-1051zM203 1260q2 14 7 37.5t26.5 84t49 107.5t80 85t115.5 38q35 0 88.5 -13.5t89.5 -27.5 l35 -15q82 -39 156 -38q29 0 52.5 23.5t31.5 47.5l8 23h207q-2 -14 -7 -38t-26.5 -84t-49.5 -107.5t-80 -85t-116 -37.5q-35 0 -88 13t-90 27l-35 15q-82 39 -155 39q-29 0 -52.5 -23.5t-31.5 -48.5l-8 -22h-207z" />
<glyph unicode="&#xf2;" horiz-adv-x="1353" d="M47 524.5q0 -243.5 175 -399.5t458 -156q272 0 449.5 157t177.5 398.5t-181.5 399t-445.5 157.5q-268 0 -450.5 -156.5t-182.5 -400zM193 1485l186 235l416 -360l-115 -158zM432 524.5q0 108.5 70.5 178t175.5 69.5q102 0 173 -69.5t71 -178.5q0 -106 -69 -175.5 t-175 -69.5q-111 0 -178.5 68.5t-67.5 177z" />
<glyph unicode="&#xf3;" horiz-adv-x="1353" d="M47 524.5q0 -243.5 175 -399.5t458 -156q272 0 449.5 157t177.5 398.5t-181.5 399t-445.5 157.5q-268 0 -450.5 -156.5t-182.5 -400zM432 524.5q0 108.5 70.5 178t175.5 69.5q102 0 173 -69.5t71 -178.5q0 -106 -69 -175.5t-175 -69.5q-111 0 -178.5 68.5t-67.5 177z M475 1360l416 360l186 -235l-487 -283z" />
<glyph unicode="&#xf4;" horiz-adv-x="1353" d="M47 524.5q0 -243.5 175 -399.5t458 -156q272 0 449.5 157t177.5 398.5t-181.5 399t-445.5 157.5q-268 0 -450.5 -156.5t-182.5 -400zM223 1389l453 331l452 -331l-139 -187l-313 230l-314 -230zM432 524.5q0 108.5 70.5 178t175.5 69.5q102 0 173 -69.5t71 -178.5 q0 -106 -69 -175.5t-175 -69.5q-111 0 -178.5 68.5t-67.5 177z" />
<glyph unicode="&#xf5;" horiz-adv-x="1353" d="M47 524.5q0 -243.5 175 -399.5t458 -156q272 0 449.5 157t177.5 398.5t-181.5 399t-445.5 157.5q-268 0 -450.5 -156.5t-182.5 -400zM203 1260q2 14 7 37.5t26.5 84t49 107.5t80 85t115.5 38q35 0 88.5 -13.5t89.5 -27.5l35 -15q82 -39 156 -38q29 0 52.5 23.5t31.5 47.5 l8 23h207q-2 -14 -7 -38t-26.5 -84t-49.5 -107.5t-80 -85t-116 -37.5q-35 0 -88 13t-90 27l-35 15q-82 39 -155 39q-29 0 -52.5 -23.5t-31.5 -48.5l-8 -22h-207zM432 524.5q0 108.5 70.5 178t175.5 69.5q102 0 173 -69.5t71 -178.5q0 -106 -69 -175.5t-175 -69.5 q-111 0 -178.5 68.5t-67.5 177z" />
<glyph unicode="&#xf6;" horiz-adv-x="1353" d="M47 524.5q0 -243.5 175 -399.5t458 -156q272 0 449.5 157t177.5 398.5t-181.5 399t-445.5 157.5q-268 0 -450.5 -156.5t-182.5 -400zM246 1431.5q0 77.5 55 133t133 55.5t133.5 -55.5t55.5 -133t-55.5 -133t-133.5 -55.5t-133 55.5t-55 133zM432 524.5q0 108.5 70.5 178 t175.5 69.5q102 0 173 -69.5t71 -178.5q0 -106 -69 -175.5t-175 -69.5q-111 0 -178.5 68.5t-67.5 177zM731 1431.5q0 77.5 55.5 133t133 55.5t133 -55.5t55.5 -133t-55.5 -133t-133 -55.5t-133 55.5t-55.5 133z" />
<glyph unicode="&#xf7;" horiz-adv-x="1296" d="M123 692v314h1051v-314h-1051zM481 387q0 70 48 119t116 49q72 0 120 -48t48 -120q0 -68 -49 -116t-119 -48q-68 0 -116 48t-48 116zM481 1307q0 70 48 119t116 49q72 0 120 -49.5t48 -118.5q0 -68 -49 -116t-119 -48q-68 0 -116 48t-48 116z" />
<glyph unicode="&#xf8;" horiz-adv-x="1353" d="M-14 57l170 138q-109 141 -109 329q0 244 182.5 400.5t450.5 156.5q238 0 412 -129l184 150l92 -111l-174 -141q113 -139 113 -326q0 -242 -177.5 -398.5t-449.5 -156.5q-254 0 -420 125l-182 -147zM432 524q0 -53 14 -94l371 299q-63 43 -139 43q-104 0 -175 -69.5 t-71 -178.5zM537 317q61 -38 141 -38q106 0 175 69.5t69 175.5q0 47 -17 92z" />
<glyph unicode="&#xf9;" horiz-adv-x="1343" d="M102 463q0 -262 136.5 -378t433.5 -116t433 116t136 378v588h-362v-500q0 -156 -47.5 -221.5t-160 -65.5t-159.5 65.5t-47 221.5v500h-363v-588zM188 1485l187 235l416 -360l-115 -158z" />
<glyph unicode="&#xfa;" horiz-adv-x="1343" d="M102 463q0 -262 136.5 -378t433.5 -116t433 116t136 378v588h-362v-500q0 -156 -47.5 -221.5t-160 -65.5t-159.5 65.5t-47 221.5v500h-363v-588zM551 1360l416 360l186 -235l-487 -283z" />
<glyph unicode="&#xfb;" horiz-adv-x="1343" d="M102 463q0 -262 136.5 -378t433.5 -116t433 116t136 378v588h-362v-500q0 -156 -47.5 -221.5t-160 -65.5t-159.5 65.5t-47 221.5v500h-363v-588zM219 1389l453 331l452 -331l-139 -187l-313 230l-314 -230z" />
<glyph unicode="&#xfc;" horiz-adv-x="1343" d="M102 463q0 -262 136.5 -378t433.5 -116t433 116t136 378v588h-362v-500q0 -156 -47.5 -221.5t-160 -65.5t-159.5 65.5t-47 221.5v500h-363v-588zM240 1431.5q0 77.5 55 133t133 55.5t133 -55.5t55 -133t-55 -133t-133 -55.5t-133 55.5t-55 133zM725 1431.5 q0 77.5 55.5 133t133 55.5t133 -55.5t55.5 -133t-55.5 -133t-133 -55.5t-133 55.5t-55.5 133z" />
<glyph unicode="&#xfd;" horiz-adv-x="1296" d="M-41 1051h418l293 -539l250 539h417l-825 -1583h-418l363 696zM449 1360l415 360l187 -235l-488 -283z" />
<glyph unicode="&#xfe;" d="M123 -532v2293h362v-811q135 131 344 131q227 0 375 -161.5t148 -395t-147.5 -394.5t-375.5 -161q-209 0 -344 150h-4v-651h-358zM477 524q0 -106 68.5 -175.5t175.5 -69.5q111 0 178.5 68.5t67.5 177t-71 178t-175 69.5q-102 0 -173 -69.5t-71 -178.5z" />
<glyph unicode="&#xff;" horiz-adv-x="1296" d="M-41 1051h418l293 -539l250 539h417l-825 -1583h-418l363 696zM217 1431.5q0 77.5 55.5 133t133 55.5t133 -55.5t55.5 -133t-55.5 -133t-133 -55.5t-133 55.5t-55.5 133zM702 1431.5q0 77.5 55.5 133t133.5 55.5t133 -55.5t55 -133t-55 -133t-133 -55.5t-133.5 55.5 t-55.5 133z" />
<glyph unicode="&#x152;" horiz-adv-x="2068" d="M47 843.5q0 364.5 249 605.5t603 241h1071v-338h-581v-336h557v-338h-557v-340h581v-338h-1071q-354 0 -603 239.5t-249 604zM463 846q0 -215 134 -358.5t347 -143.5h60v1002h-60q-213 0 -347 -143.5t-134 -356.5z" />
<glyph unicode="&#x153;" horiz-adv-x="2091" d="M47 524q0 244 176 400.5t445 156.5q70 0 137 -17t112.5 -42t80 -49.5t51.5 -42.5l16 -17q6 6 18.5 17.5t52.5 41t85 51t115.5 40t144.5 18.5q250 0 406.5 -144t156.5 -413q0 -37 -2 -49h-762q0 -111 71.5 -164t155.5 -53q88 0 139.5 23.5t116.5 93.5l262 -131 q-164 -274 -544 -275q-109 0 -212.5 42t-152.5 83l-49 41q-6 -6 -16.5 -17.5t-49 -40t-80.5 -50t-111 -40t-142 -18.5q-281 0 -451 155t-170 400zM426 524.5q0 -108.5 67.5 -177t178.5 -68.5q106 0 174.5 69.5t68.5 175.5q0 109 -70.5 178.5t-172.5 69.5q-104 0 -175 -69.5 t-71 -178zM1290 676h400q-12 82 -64.5 126t-134.5 44q-90 0 -143.5 -47t-57.5 -123z" />
<glyph unicode="&#x178;" horiz-adv-x="1507" d="M-61 1690h462l353 -541l352 541h463l-623 -932v-758h-385v758zM322 2070.5q0 77.5 55 133t133 55.5t133 -55.5t55 -133t-55 -133t-133 -55.5t-133 55.5t-55 133zM807 2070.5q0 77.5 55.5 133t133 55.5t133 -55.5t55.5 -133t-55.5 -133t-133 -55.5t-133 55.5t-55.5 133z " />
<glyph unicode="&#x2c6;" horiz-adv-x="1191" d="M143 1389l453 331l453 -331l-140 -187l-313 230l-313 -230z" />
<glyph unicode="&#x2dc;" horiz-adv-x="1232" d="M143 1260q2 14 7.5 37.5t27 84t49 107.5t79.5 85t116 38q35 0 88 -13.5t88 -27.5l37 -15q82 -39 156 -38q29 0 52 23.5t31 47.5l9 23h207q-2 -14 -7.5 -38t-27 -84t-49 -107.5t-80 -85t-115.5 -37.5q-35 0 -88 13t-88 27l-37 15q-82 39 -156 39q-29 0 -52 -23.5 t-32 -48.5l-8 -22h-207z" />
<glyph unicode="&#x2000;" horiz-adv-x="1215" />
<glyph unicode="&#x2001;" horiz-adv-x="2431" />
<glyph unicode="&#x2002;" horiz-adv-x="1215" />
<glyph unicode="&#x2003;" horiz-adv-x="2431" />
<glyph unicode="&#x2004;" horiz-adv-x="810" />
<glyph unicode="&#x2005;" horiz-adv-x="607" />
<glyph unicode="&#x2006;" horiz-adv-x="405" />
<glyph unicode="&#x2007;" horiz-adv-x="405" />
<glyph unicode="&#x2008;" horiz-adv-x="303" />
<glyph unicode="&#x2009;" horiz-adv-x="486" />
<glyph unicode="&#x200a;" horiz-adv-x="135" />
<glyph unicode="&#x2010;" horiz-adv-x="905" d="M123 436v314h659v-314h-659z" />
<glyph unicode="&#x2011;" horiz-adv-x="905" d="M123 436v314h659v-314h-659z" />
<glyph unicode="&#x2012;" horiz-adv-x="905" d="M123 436v314h659v-314h-659z" />
<glyph unicode="&#x2013;" horiz-adv-x="1105" d="M0 436v314h1106v-314h-1106z" />
<glyph unicode="&#x2014;" horiz-adv-x="2211" d="M0 436v314h2212v-314h-2212z" />
<glyph unicode="&#x2018;" horiz-adv-x="595" d="M47 1190q0 270 311 530l97 -75q-12 -12 -32 -34t-58.5 -90.5t-51.5 -138.5q70 -16 115 -69t45 -123q0 -90 -61.5 -152.5t-149.5 -62.5q-90 0 -152.5 63.5t-62.5 151.5z" />
<glyph unicode="&#x2019;" horiz-adv-x="595" d="M123 1505q0 90 61.5 152.5t149.5 62.5t151.5 -63.5t63.5 -151.5q0 -270 -311 -530l-97 76q12 12 32 33.5t58.5 90t51.5 138.5q-70 16 -115 69.5t-45 122.5z" />
<glyph unicode="&#x201a;" horiz-adv-x="595" d="M123 223q0 90 61.5 152.5t149.5 62.5t151.5 -63.5t63.5 -151.5q0 -270 -311 -530l-97 76q12 12 32 33.5t58.5 90t51.5 138.5q-70 16 -115 69.5t-45 122.5z" />
<glyph unicode="&#x201c;" horiz-adv-x="1116" d="M47 1190q0 270 311 530l97 -75q-12 -12 -32 -34t-58.5 -90.5t-51.5 -138.5q70 -16 115 -69t45 -123q0 -90 -61.5 -152.5t-149.5 -62.5q-90 0 -152.5 63.5t-62.5 151.5zM569 1190q0 276 310 530l96 -75q-12 -12 -31.5 -34t-58.5 -90.5t-54 -138.5q72 -16 117 -69t45 -123 q0 -88 -62.5 -151.5t-150.5 -63.5t-149.5 62.5t-61.5 152.5z" />
<glyph unicode="&#x201d;" horiz-adv-x="1116" d="M123 1505q0 88 62.5 151.5t150.5 63.5t149.5 -62.5t61.5 -152.5q0 -276 -309 -530l-97 76q12 12 32 33.5t58.5 90t53.5 138.5q-72 16 -117 69.5t-45 122.5zM643 1505q0 90 61.5 152.5t149.5 62.5t151.5 -63.5t63.5 -151.5q0 -270 -311 -530l-96 76q12 12 31.5 33.5 t58.5 90t51 138.5q-70 16 -115 69.5t-45 122.5z" />
<glyph unicode="&#x201e;" horiz-adv-x="1116" d="M123 223q0 88 62.5 151.5t150.5 63.5t149.5 -62.5t61.5 -152.5q0 -276 -309 -530l-97 76q12 12 32 33.5t58.5 90t53.5 138.5q-72 16 -117 69.5t-45 122.5zM643 223q0 90 61.5 152.5t149.5 62.5t151.5 -63.5t63.5 -151.5q0 -270 -311 -530l-96 76q12 12 31.5 33.5t58.5 90 t51 138.5q-70 16 -115 69.5t-45 122.5z" />
<glyph unicode="&#x2022;" horiz-adv-x="1466" d="M332 729q0 168 116.5 286t282.5 118q168 0 286 -118t118 -286q0 -166 -118 -282.5t-286 -116.5q-166 0 -282.5 116.5t-116.5 282.5z" />
<glyph unicode="&#x2026;" horiz-adv-x="2144" d="M123 203q0 98 68.5 166.5t164.5 68.5q98 0 167 -68.5t69 -166.5q0 -96 -68.5 -165t-167.5 -69q-96 0 -164.5 68.5t-68.5 165.5zM838 203q0 98 68.5 166.5t164.5 68.5q98 0 167 -68.5t69 -166.5q0 -96 -69 -165t-167 -69q-96 0 -164.5 68.5t-68.5 165.5zM1552 203 q0 98 69 166.5t165 68.5q98 0 166.5 -68.5t68.5 -166.5q0 -96 -68.5 -165t-166.5 -69q-96 0 -165 68.5t-69 165.5z" />
<glyph unicode="&#x202f;" horiz-adv-x="486" />
<glyph unicode="&#x2039;" horiz-adv-x="768" d="M68 569l399 512l190 -149l-282 -363l282 -362l-190 -150z" />
<glyph unicode="&#x203a;" horiz-adv-x="768" d="M111 207l282 362l-282 363l190 149l399 -512l-399 -512z" />
<glyph unicode="&#x205f;" horiz-adv-x="607" />
<glyph unicode="&#x20ac;" horiz-adv-x="1701" d="M47 561v221h148q-2 18 -2 59.5t2 63.5h-148v221h197q98 260 338.5 427t525.5 167q164 0 302 -39t196 -77l57 -39l-168 -336q-14 12 -43 29.5t-115 46t-174 28.5q-307 0 -463 -207h623v-221h-711q-4 -20 -4 -57q0 -20 4 -66h711v-221h-621q154 -205 461 -205q88 0 171 27 t122 51l39 27l168 -336q-8 -6 -22.5 -16.5t-66.5 -38t-111.5 -48t-156 -37t-198.5 -16.5q-285 0 -525.5 166t-338.5 426h-197z" />
<glyph unicode="&#x2122;" horiz-adv-x="1052" d="M35 1583v107h375v-107h-125v-422h-125v422h-125zM428 1161l47 529h129l117 -304l117 304h129l49 -529h-123l-25 314h-2l-108 -310h-72l-108 310h-3l-26 -314h-121z" />
<glyph unicode="&#xe000;" horiz-adv-x="1054" d="M0 0v1055h1055v-1055h-1055z" />
<glyph unicode="&#xfb03;" horiz-adv-x="2144" d="M74 774v277h151v223q2 236 110.5 377t301.5 141q82 0 156.5 -23.5t107.5 -48.5l35 -22l-127 -256q-49 29 -109 28q-68 0 -90 -46t-22 -160v-213h364v223q2 238 113 378t319 140q80 0 158 -17.5t132.5 -43t97.5 -50t63 -43.5l23 -16l-127 -256q-131 106 -240 107 q-104 0 -140 -47.5t-36 -161.5v-213h706v-1051h-362v774h-344v-774h-363v774h-364v-774h-363v774h-151z" />
<glyph unicode="&#xfb04;" horiz-adv-x="2144" d="M74 774v277h151v223q2 236 110.5 377t301.5 141q82 0 156.5 -23.5t107.5 -48.5l35 -22l-127 -256q-49 29 -109 28q-68 0 -90 -46t-22 -160v-213h364v223q2 236 110.5 377t301.5 141q143 0 256 -66l-84 -284q-49 29 -109 28q-68 0 -90 -46t-22 -160v-213h241v-277h-241 v-774h-363v774h-364v-774h-363v774h-151zM1659 0v1761h362v-1761h-362z" />
</font>
</defs>
</svg>
