<?xml version="1.0" standalone="no"?>
<!DOCTYPE svg PUBLIC "-//W3C//DTD SVG 1.1//EN" "http://www.w3.org/Graphics/SVG/1.1/DTD/svg11.dtd" >
<svg xmlns="http://www.w3.org/2000/svg">
<metadata></metadata>
<defs>
<font id="gotham_xnarrowlight" horiz-adv-x="905" >
<font-face units-per-em="2048" ascent="1638" descent="-410" />
<missing-glyph horiz-adv-x="409" />
<glyph unicode="&#xfb01;" horiz-adv-x="909" d="M57 983v84h123v117q0 146 72 221q61 61 168 61q36 0 90 -12v-88q-51 14 -90 14q-150 0 -150 -198v-115h232v-84h-232v-983h-90v983h-123zM668 1309v141h102v-141h-102zM674 0v1067h90v-1067h-90z" />
<glyph unicode="&#xfb02;" horiz-adv-x="909" d="M57 983v84h123v117q0 146 72 221q61 61 168 61q36 0 90 -12v-88q-51 14 -90 14q-150 0 -150 -198v-115h232v-84h-232v-983h-90v983h-123zM674 0v1462h90v-1462h-90z" />
<glyph unicode="&#xfb03;" horiz-adv-x="1437" d="M57 983v84h123v117q0 146 72 221q61 61 168 61q36 0 90 -12v-88q-51 14 -90 14q-150 0 -150 -198v-115h232v-84h-232v-983h-90v983h-123zM588 983v84h123v117q0 150 71 221q58 61 166 61q40 0 90 -12v-88q-51 14 -88 14q-149 0 -149 -198v-115h229v-84h-229v-983h-90v983 h-123zM1196 1309v141h104v-141h-104zM1204 0v1067h90v-1067h-90z" />
<glyph unicode="&#xfb04;" horiz-adv-x="1437" d="M57 983v84h123v117q0 146 72 221q61 61 168 61q36 0 90 -12v-88q-51 14 -90 14q-150 0 -150 -198v-115h232v-84h-232v-983h-90v983h-123zM588 983v84h123v117q0 150 71 221q58 61 166 61q40 0 90 -12v-88q-51 14 -88 14q-149 0 -149 -198v-115h229v-84h-229v-983h-90v983 h-123zM1204 0v1462h90v-1462h-90z" />
<glyph horiz-adv-x="2048" />
<glyph horiz-adv-x="2048" />
<glyph unicode="&#xd;" horiz-adv-x="2048" />
<glyph unicode=" "  horiz-adv-x="409" />
<glyph unicode="&#x09;" horiz-adv-x="409" />
<glyph unicode="&#xa0;" horiz-adv-x="409" />
<glyph unicode="!" horiz-adv-x="436" d="M154 0v170h129v-170h-129zM162 1290v144h112v-144l-30 -915h-51z" />
<glyph unicode="&#x22;" horiz-adv-x="602" d="M106 930l27 504h113v-17l-92 -487h-48zM377 930l24 504h113v-17l-92 -487h-45z" />
<glyph unicode="#" horiz-adv-x="1017" d="M63 381v88h189l55 500h-188v86h196l43 379h80l-41 -379h297l41 379h82l-43 -379h178v-86h-186l-55 -500h188v-88h-199l-41 -381h-79l41 381h-297l-41 -381h-82l41 381h-179zM334 469h297l53 500h-297z" />
<glyph unicode="$" d="M59 154l60 71q126 -140 297 -149v622q-165 71 -241.5 158t-76.5 229v2q0 139 87 236.5t229 114.5v127h80v-127q158 -8 294 -129l-55 -72q-121 109 -241 117v-576q176 -76 248.5 -172.5t72.5 -236.5v-4q0 -149 -87 -250.5t-232 -118.5v-199h-80v195q-102 5 -194 44.5 t-161 117.5zM190 1087q0 -104 52.5 -167.5t173.5 -116.5v549q-105 -12 -165.5 -83.5t-60.5 -176.5v-5zM492 78q110 14 169.5 94.5t59.5 194.5v2q0 107 -52 180t-177 127v-598z" />
<glyph unicode="%" horiz-adv-x="1255" d="M76 1090v12q0 153 71 248.5t177 95.5t176.5 -95t70.5 -247v-12q0 -153 -71 -248.5t-178 -95.5q-106 0 -176 95t-70 247zM162 1092q0 -118 46.5 -190.5t115.5 -72.5q70 0 114.5 72.5t44.5 188.5v12q0 117 -45.5 189.5t-115.5 72.5q-69 0 -114.5 -72.5t-45.5 -187.5v-12z M193 0l401 733l383 701h88l-406 -736l-378 -698h-88zM686 330v12q0 153 71 248.5t177 95.5t177 -95.5t71 -246.5v-12q0 -153 -71.5 -248.5t-178.5 -95.5q-106 0 -176 95t-70 247zM772 332q0 -117 46.5 -189.5t115.5 -72.5q70 0 115 72t45 188v12q0 117 -46 189.5t-116 72.5 q-69 0 -114.5 -72.5t-45.5 -187.5v-12z" />
<glyph unicode="&#x26;" horiz-adv-x="1044" d="M72 348v10q0 128 71 242t207 205q-80 120 -113.5 196.5t-33.5 155.5v8q0 117 79.5 202t202.5 85q118 0 191.5 -82t73.5 -192v-11q0 -114 -68 -204t-203 -181l283 -413q58 130 108 333l82 -24q-55 -226 -133 -389l185 -256l-76 -51l-160 225q-74 -107 -160.5 -165 t-197.5 -58q-149 0 -243.5 105.5t-94.5 258.5zM168 354q0 -121 69 -202.5t175 -81.5q91 0 164 54t139 155l-320 462q-116 -72 -171.5 -170t-55.5 -206v-11zM295 1163q0 -68 29 -136t108 -179q225 134 225 319v4q0 84 -48.5 141.5t-125.5 57.5q-83 0 -135.5 -59t-52.5 -144 v-4z" />
<glyph unicode="'" horiz-adv-x="319" d="M106 930l27 504h113v-17l-92 -487h-48z" />
<glyph unicode="(" horiz-adv-x="620" d="M98 592q0 295 115.5 515.5t316.5 352.5l35 -57q-372 -280 -372 -811q0 -529 372 -809l-35 -57q-201 132 -316.5 352t-115.5 514z" />
<glyph unicode=")" horiz-adv-x="620" d="M55 -217q373 281 373 809q0 530 -373 811l35 57q201 -132 316.5 -352.5t115.5 -515.5q0 -294 -115.5 -514t-316.5 -352z" />
<glyph unicode="*" horiz-adv-x="677" d="M90 1044l209 107l-209 109l41 67l186 -135l-16 246h78l-19 -246l187 135l41 -67l-209 -109l209 -107l-41 -67l-187 135l19 -246h-78l16 246l-186 -135z" />
<glyph unicode="+" horiz-adv-x="897" d="M88 678v86h315v321h91v-321h315v-86h-315v-322h-91v322h-315z" />
<glyph unicode="," horiz-adv-x="364" d="M66 -162q61 28 86 65.5t20 96.5h-55v170h131v-147q0 -94 -35.5 -145.5t-122.5 -90.5z" />
<glyph unicode="-" horiz-adv-x="649" d="M104 561v92h443v-92h-443z" />
<glyph unicode="." horiz-adv-x="364" d="M117 0v170h131v-170h-131z" />
<glyph unicode="/" horiz-adv-x="704" d="M-18 -223l628 1818h86l-628 -1818h-86z" />
<glyph unicode="0" horiz-adv-x="1003" d="M98 702v25q0 343 108.5 534t297.5 191q188 0 294.5 -189t106.5 -532v-24q0 -344 -107 -534.5t-296 -190.5t-296.5 188.5t-107.5 531.5zM197 707q0 -293 84 -466t223 -173q138 0 221.5 171t83.5 463v25q0 292 -84.5 465.5t-222.5 173.5t-221.5 -171.5t-83.5 -463.5v-24z " />
<glyph unicode="1" horiz-adv-x="514" d="M51 1333l219 105h80v-1438h-94v1327l-195 -90z" />
<glyph unicode="2" horiz-adv-x="860" d="M68 0v66l413 618q95 141 134.5 230.5t39.5 185.5q0 119 -69.5 189.5t-182.5 70.5q-152 0 -260 -158l-67 55q57 91 144.5 143t193.5 52q152 0 247 -96t95 -248v-6q0 -111 -43 -206.5t-152 -260.5l-362 -543h569v-92h-700z" />
<glyph unicode="3" horiz-adv-x="841" d="M51 104l58 74q57 -53 115.5 -80.5t140.5 -27.5q125 0 207.5 92t82.5 244v8q0 153 -105.5 230t-273.5 77h-4l-10 61l356 557h-530v95h653v-66l-362 -567q78 -11 143 -37.5t118 -71.5t82.5 -115t29.5 -159v-10q0 -189 -113 -307.5t-277 -118.5q-182 0 -311 122z" />
<glyph unicode="4" horiz-adv-x="931" d="M59 410l572 1034h82v-1024h155v-82h-155v-338h-88v338h-553zM162 420h463v835z" />
<glyph unicode="5" horiz-adv-x="870" d="M80 98l53 74q113 -102 250 -102q128 0 213.5 102t85.5 264v6q0 164 -79.5 248t-203.5 84q-100 0 -204 -51l-68 47l33 664h563v-93h-479l-27 -520q95 43 191 43q161 0 266.5 -108.5t105.5 -306.5v-7q0 -200 -115 -330t-286 -130q-169 0 -299 116z" />
<glyph unicode="6" horiz-adv-x="931" d="M100 633v35q0 378 118.5 581t318.5 203q125 0 241 -84l-45 -80q-98 74 -201 74q-155 0 -245.5 -179.5t-96.5 -494.5q41 91 122.5 145t176.5 54q150 0 252.5 -114.5t102.5 -317.5v-4q0 -206 -105 -337.5t-260 -131.5q-137 0 -227 90q-74 74 -113 206t-39 355zM213 455 q0 -169 71 -278t199 -109q119 0 192 110t73 271v4q0 163 -75 255.5t-190 92.5q-114 0 -192 -91.5t-78 -248.5v-6z" />
<glyph unicode="7" horiz-adv-x="831" d="M92 1341v93h653v-78l-444 -1356h-98l442 1341h-553z" />
<glyph unicode="8" horiz-adv-x="888" d="M74 371v10q0 124 63.5 220t169.5 138q-90 45 -144 131.5t-54 206.5v10q0 165 98 265t237 100q138 0 237 -100.5t99 -264.5v-10q0 -120 -54 -206.5t-144 -131.5q105 -42 169 -138t64 -220v-10q0 -171 -104.5 -280t-266.5 -109t-266 109t-104 280zM170 373 q0 -131 74.5 -218t199.5 -87t200 87t75 218v4q0 137 -79.5 228t-195.5 91t-195 -91t-79 -228v-4zM203 1079q0 -124 69.5 -212.5t171.5 -88.5t172 88.5t70 212.5v6q0 124 -68.5 202.5t-173.5 78.5t-173 -78.5t-68 -202.5v-6z" />
<glyph unicode="9" horiz-adv-x="931" d="M88 971v4q0 210 105 343.5t260 133.5q137 0 227 -90q74 -74 112.5 -206t38.5 -355v-35q0 -378 -118 -581t-318 -203q-129 0 -262 94l45 80q60 -42 110 -63t111 -21q154 0 244 177t96 478q-41 -91 -121.5 -144t-175.5 -53q-150 0 -252 116.5t-102 324.5zM184 973 q0 -168 75 -262.5t190 -94.5q114 0 192 94t78 255v6q0 174 -71 284.5t-199 110.5q-119 0 -192 -112t-73 -277v-4z" />
<glyph unicode=":" horiz-adv-x="385" d="M127 0v170h131v-170h-131zM127 895v170h131v-170h-131z" />
<glyph unicode=";" horiz-adv-x="385" d="M76 -162q61 28 86 65.5t20 96.5h-55v170h131v-147q0 -94 -35.5 -145.5t-122.5 -90.5zM127 895v170h131v-170h-131z" />
<glyph unicode="&#x3c;" horiz-adv-x="897" d="M98 680v82l664 375v-107l-561 -309l561 -309v-107z" />
<glyph unicode="=" horiz-adv-x="897" d="M104 502v92h689v-92h-689zM104 848v92h689v-92h-689z" />
<glyph unicode="&#x3e;" horiz-adv-x="897" d="M135 305v107l561 309l-561 309v107l664 -375v-82z" />
<glyph unicode="?" horiz-adv-x="786" d="M41 1313q143 133 315 133q156 0 256.5 -103.5t100.5 -257.5v-8q0 -160 -90 -261t-238 -148l-18 -293h-60l-18 346l10 12q317 67 317 340v6q0 124 -74.5 201.5t-191.5 77.5q-130 0 -256 -117zM279 0v170h127v-170h-127z" />
<glyph unicode="@" horiz-adv-x="1546" d="M84 479q0 154 34 299t99.5 266.5t154.5 213t206 143t247 51.5q188 0 334.5 -95.5t224.5 -255t78 -353.5q0 -166 -45.5 -304t-122 -216t-166.5 -78q-89 0 -139.5 57t-52.5 153q-58 -100 -126 -157.5t-159 -57.5q-102 0 -169.5 84.5t-67.5 225.5q0 150 51 283.5t139 214.5 t189 81q88 0 142.5 -53.5t76.5 -140.5l30 161l88 -14l-94 -493q-14 -74 -14 -142q0 -61 29.5 -98t85.5 -37q71 0 132.5 76t96.5 197.5t35 254.5q0 128 -40.5 245.5t-113.5 207.5t-182.5 143.5t-239.5 53.5q-154 0 -284.5 -78.5t-216 -207t-133.5 -291t-48 -333.5 q0 -165 46 -301.5t127.5 -228t194.5 -141.5t245 -50q114 0 200.5 26t180.5 83l28 -47q-100 -61 -194 -90t-215 -29q-142 0 -265.5 54t-213.5 152.5t-141.5 244.5t-51.5 321zM506 465q0 -117 44 -175.5t122 -58.5q79 0 153 74q64 64 109 172.5t45 227.5q0 105 -50.5 174 t-127.5 69q-83 0 -152 -69q-65 -67 -104 -184t-39 -230z" />
<glyph unicode="A" horiz-adv-x="1112" d="M70 0l436 1442h100l436 -1442h-100l-119 401h-538l-119 -401h-96zM311 489h486l-242 820z" />
<glyph unicode="B" horiz-adv-x="1013" d="M150 0v1434h325q203 0 318 -115q94 -94 94 -242v-4q0 -142 -71 -224.5t-183 -119.5q136 -33 215.5 -119t79.5 -227v-4q0 -177 -126.5 -278t-340.5 -101h-311zM246 88h219q170 0 268 76.5t98 214.5v4q0 143 -96 220t-274 77h-215v-592zM246 768h207q159 0 248.5 79 t89.5 220v4q0 126 -85.5 200.5t-232.5 74.5h-227v-578z" />
<glyph unicode="C" horiz-adv-x="966" d="M102 707v18q0 169 40 307t109.5 228t162 139t198.5 49q158 0 285 -111l-53 -75q-106 96 -236 96q-174 0 -291.5 -175t-117.5 -458v-14q0 -287 115.5 -461t291.5 -174q128 0 244 104l53 -71q-134 -123 -303 -123q-217 0 -357.5 191t-140.5 530z" />
<glyph unicode="D" horiz-adv-x="1093" d="M150 0v1434h276q253 0 409 -189.5t156 -513.5v-26q0 -324 -156.5 -514.5t-408.5 -190.5h-276zM246 88h174q215 0 345 165t130 449v27q0 284 -131 450.5t-346 166.5h-172v-1258z" />
<glyph unicode="E" horiz-adv-x="913" d="M150 0v1434h673v-88h-577v-578h522v-88h-522v-592h585v-88h-681z" />
<glyph unicode="F" horiz-adv-x="878" d="M150 0v1434h657v-88h-561v-601h506v-88h-506v-657h-96z" />
<glyph unicode="G" horiz-adv-x="1085" d="M102 705v22q0 327 149.5 524t381.5 197q94 0 166 -24.5t143 -80.5l-55 -81q-107 96 -254 96q-186 0 -310 -172.5t-124 -460.5v-14q0 -297 121.5 -467t320.5 -170q123 0 221 65v510h-305v88h397v-645q-62 -46 -145.5 -76t-173.5 -30q-246 0 -389.5 192t-143.5 527z" />
<glyph unicode="H" horiz-adv-x="1097" d="M150 0v1434h96v-668h608v668h96v-1434h-96v678h-608v-678h-96z" />
<glyph unicode="I" horiz-adv-x="421" d="M164 0v1434h96v-1434h-96z" />
<glyph unicode="J" horiz-adv-x="706" d="M35 127l69 57q43 -61 87 -85.5t100 -24.5q85 0 135.5 63t50.5 182v1115h94v-1117q0 -167 -84 -251q-80 -80 -204 -80q-76 0 -141.5 36.5t-106.5 104.5z" />
<glyph unicode="K" horiz-adv-x="1005" d="M150 0v1434h96v-865l581 865h113l-438 -637l475 -797h-113l-422 709l-196 -285v-424h-96z" />
<glyph unicode="L" horiz-adv-x="821" d="M150 0v1434h96v-1346h528v-88h-624z" />
<glyph unicode="M" horiz-adv-x="1259" d="M150 0v1434h104l375 -826l377 826h104v-1434h-94v1243l-383 -835h-8l-383 835v-1243h-92z" />
<glyph unicode="N" horiz-adv-x="1126" d="M150 0v1434h96l639 -1223v1223h92v-1434h-84l-651 1251v-1251h-92z" />
<glyph unicode="O" horiz-adv-x="1148" d="M102 705v24q0 330 131.5 526.5t341.5 196.5t342 -196.5t132 -526.5v-24q0 -330 -132 -526.5t-342 -196.5t-341.5 196.5t-131.5 526.5zM201 705q0 -286 105.5 -459.5t268.5 -173.5t269 174t106 459v24q0 285 -106 459t-269 174t-268.5 -173.5t-105.5 -459.5v-24z" />
<glyph unicode="P" horiz-adv-x="962" d="M150 0v1434h296q208 0 331.5 -120t123.5 -325v-4q0 -210 -128 -332.5t-341 -122.5h-186v-530h-96zM246 616h194q170 0 267.5 98.5t97.5 268.5v4q0 171 -98 265t-265 94h-196v-730z" />
<glyph unicode="Q" horiz-adv-x="1148" d="M102 705v24q0 330 131.5 526.5t341.5 196.5t342 -196.5t132 -526.5v-24q0 -328 -134 -527l152 -155l-68 -64l-139 150q-121 -127 -285 -127q-210 0 -341.5 196.5t-131.5 526.5zM201 705q0 -286 105.5 -459.5t268.5 -173.5q133 0 222 102l-189 195l68 63l174 -186 q100 173 100 459v24q0 285 -106 459t-269 174t-268.5 -173.5t-105.5 -459.5v-24z" />
<glyph unicode="R" horiz-adv-x="1028" d="M150 0v1434h325q215 0 336 -121q111 -114 111 -297v-4q0 -160 -83.5 -264t-224.5 -142l344 -606h-112l-330 586q-25 -2 -74 -2h-196v-584h-96zM246 672h178q208 0 305.5 90.5t97.5 247.5v4q0 160 -95 246t-261 86h-225v-674z" />
<glyph unicode="S" horiz-adv-x="901" d="M51 145l64 78q156 -153 321 -153q123 0 202 78t79 192v4q0 93 -57 168.5t-220 169.5q-103 60 -169.5 112t-102.5 103.5t-49 98.5t-13 108v4q0 145 104.5 245.5t264.5 100.5q185 0 334 -135l-59 -78q-132 123 -279 123q-120 0 -193 -72.5t-73 -177.5v-4q0 -97 59 -169 t228 -171q83 -48 141.5 -93.5t93 -85t54 -82.5t26 -80t6.5 -85v-4q0 -152 -107.5 -256t-269.5 -104q-214 0 -385 165z" />
<glyph unicode="T" horiz-adv-x="858" d="M55 1346v88h750v-88h-328v-1346h-96v1346h-326z" />
<glyph unicode="U" horiz-adv-x="1089" d="M139 449v985h94v-983q0 -183 83.5 -283t230.5 -100q145 0 228 97.5t83 280.5v988h96v-981q0 -222 -111 -347.5t-298 -125.5q-185 0 -295.5 125t-110.5 344z" />
<glyph unicode="V" horiz-adv-x="1058" d="M70 1434h100l360 -1291l363 1291h98l-416 -1444h-92z" />
<glyph unicode="W" horiz-adv-x="1603" d="M76 1434h100l289 -1260l297 1262h84l297 -1262l287 1260h98l-344 -1444h-84l-297 1249l-299 -1249h-84z" />
<glyph unicode="X" horiz-adv-x="993" d="M63 0l375 743l-350 691h107l299 -607l303 607h104l-348 -686l377 -748h-107l-329 664l-326 -664h-105z" />
<glyph unicode="Y" horiz-adv-x="980" d="M33 1434h106l353 -732l352 732h104l-409 -832v-602h-97v600z" />
<glyph unicode="Z" horiz-adv-x="940" d="M88 0v59l647 1287h-620v88h741v-58l-647 -1288h647v-88h-768z" />
<glyph unicode="[" horiz-adv-x="645" d="M174 -266v1700h381v-72h-293v-1557h293v-71h-381z" />
<glyph unicode="\" horiz-adv-x="704" d="M8 1595h86l629 -1818h-86z" />
<glyph unicode="]" horiz-adv-x="645" d="M90 -195h293v1557h-293v72h381v-1700h-381v71z" />
<glyph unicode="^" horiz-adv-x="757" d="M133 1063l207 354h78l207 -354h-93l-155 258l-156 -258h-88z" />
<glyph unicode="_" horiz-adv-x="1032" d="M-4 -248h1040v-78h-1040v78z" />
<glyph unicode="`" horiz-adv-x="1024" d="M379 1397l104 55l146 -260h-66z" />
<glyph unicode="a" horiz-adv-x="841" d="M72 311v13q0 154 89.5 248t241.5 94q118 0 230 -41v108q0 126 -63 193t-179 67q-127 0 -227 -67l-33 78q136 75 268 75q148 0 236 -88q88 -85 88 -250v-741h-90v162q-88 -182 -271 -182q-123 0 -206.5 92.5t-83.5 238.5zM164 315q0 -112 57.5 -183t151.5 -71 q112 0 186 86t74 205v187q-110 45 -225 45q-117 0 -180.5 -70t-63.5 -186v-13z" />
<glyph unicode="b" horiz-adv-x="937" d="M133 0v1462h90v-610q101 233 293 233q66 0 126 -34.5t108 -99.5t76 -169t28 -233v-29q0 -128 -28 -232.5t-75.5 -170t-108 -100.5t-126.5 -35q-193 0 -293 231v-213h-90zM217 514q0 -204 85.5 -327.5t203.5 -123.5q111 0 183.5 119.5t72.5 337.5v25q0 217 -73 338 t-183 121q-118 0 -203.5 -124.5t-85.5 -328.5v-37z" />
<glyph unicode="c" horiz-adv-x="747" d="M82 518v21q0 130 31 235t85 172t123.5 103t147.5 36q124 0 223 -92l-49 -71q-87 79 -180 79q-117 0 -203 -125.5t-86 -338.5v-19q0 -112 25.5 -201.5t68 -143t92.5 -81.5q49 -27 101 -26h4q94 3 176 81l53 -63q-94 -102 -231 -102q-168 0 -274.5 139.5t-106.5 396.5z" />
<glyph unicode="d" horiz-adv-x="937" d="M86 518v29q0 128 28 232.5t75.5 170t108 100.5t126.5 35q193 0 293 -231v608h90v-1462h-90v215q-101 -233 -293 -233q-66 0 -126 34.5t-108 99.5t-76 169t-28 233zM178 522q0 -217 73 -338t183 -121q118 0 203.5 124.5t85.5 328.5v37q0 204 -85.5 327.5t-203.5 123.5 q-111 0 -183.5 -119.5t-72.5 -337.5v-25z" />
<glyph unicode="e" horiz-adv-x="851" d="M82 518v14q0 254 101 403.5t251 149.5q155 0 246.5 -143t91.5 -389v-57h-600q6 -203 95.5 -316.5t219.5 -113.5q121 0 220 90l47 -70q-122 -104 -275 -104q-171 0 -284 142t-113 394zM172 575h510q-3 183 -70 304.5t-178 121.5q-107 0 -180 -114.5t-82 -311.5z" />
<glyph unicode="f" horiz-adv-x="526" d="M57 983v84h123v117q0 146 72 221q61 61 168 61q36 0 90 -12v-88q-51 14 -90 14q-150 0 -150 -198v-115h232v-84h-232v-983h-90v983h-123z" />
<glyph unicode="g" horiz-adv-x="937" d="M86 567v15q0 233 99.5 368t240.5 135q99 0 172.5 -63t118.5 -164v209h90v-997q0 -168 -92 -260q-99 -99 -279 -99q-155 0 -313 82l35 80q136 -78 282 -78q131 0 204 69.5t73 203.5v225q-105 -230 -293 -230q-140 0 -239 134.5t-99 369.5zM178 569q0 -198 73.5 -311 t184.5 -113q113 0 199 116.5t86 305.5v15q0 189 -86 305.5t-199 116.5q-111 0 -184.5 -112.5t-73.5 -311.5v-11z" />
<glyph unicode="h" d="M133 0v1462h90v-565q38 83 105 135.5t166 52.5q133 0 211.5 -91.5t78.5 -264.5v-729h-90v696q0 310 -221 310q-107 0 -178.5 -88t-71.5 -226v-692h-90z" />
<glyph unicode="i" horiz-adv-x="380" d="M139 1309v141h103v-141h-103zM145 0v1067h91v-1067h-91z" />
<glyph unicode="j" horiz-adv-x="391" d="M-29 -197q23 -10 52 -10q73 0 103 46.5t30 133.5v1094h90v-1114q0 -108 -51 -176t-162 -68q-30 0 -62 12v82zM150 1309v141h102v-141h-102z" />
<glyph unicode="k" horiz-adv-x="808" d="M133 0v1462h90v-1013l412 618h102l-303 -442l324 -625h-105l-276 541l-154 -222v-319h-90z" />
<glyph unicode="l" horiz-adv-x="380" d="M145 0v1462h91v-1462h-91z" />
<glyph unicode="m" horiz-adv-x="1419" d="M133 0v1067h90v-170q83 188 256 188q85 0 151 -47.5t99 -140.5q98 188 283 188q131 0 207.5 -91.5t76.5 -264.5v-729h-90v696q0 156 -53.5 233t-155.5 77t-169.5 -85.5t-67.5 -230.5v-690h-90v696q0 156 -53.5 233t-155.5 77q-101 0 -169.5 -88t-68.5 -226v-692h-90z" />
<glyph unicode="n" d="M133 0v1067h90v-170q38 83 105 135.5t166 52.5q133 0 211.5 -91.5t78.5 -264.5v-729h-90v696q0 310 -221 310q-107 0 -178.5 -88t-71.5 -226v-692h-90z" />
<glyph unicode="o" horiz-adv-x="907" d="M82 526v15q0 238 105.5 391t267.5 153t266 -152t104 -392v-15q0 -238 -105 -391t-267 -153t-266.5 152t-104.5 392zM174 526q0 -202 81.5 -331t199.5 -129q117 0 197.5 129.5t80.5 330.5v15q0 200 -82 330t-198 130q-117 0 -198 -129.5t-81 -330.5v-15z" />
<glyph unicode="p" horiz-adv-x="937" d="M133 -285v1352h90v-215q101 233 293 233q66 0 126 -34.5t108 -99.5t76 -169t28 -233v-29q0 -128 -28 -232.5t-75.5 -170t-108 -100.5t-126.5 -35q-193 0 -293 231v-498h-90zM217 514q0 -204 85.5 -327.5t203.5 -123.5q111 0 183.5 119.5t72.5 337.5v25q0 217 -73 338 t-183 121q-118 0 -203.5 -124.5t-85.5 -328.5v-37z" />
<glyph unicode="q" horiz-adv-x="937" d="M86 518v29q0 128 28 232.5t75.5 170t108 100.5t126.5 35q193 0 293 -231v213h90v-1352h-90v500q-101 -233 -293 -233q-66 0 -126 34.5t-108 99.5t-76 169t-28 233zM178 522q0 -217 73 -338t183 -121q118 0 203.5 124.5t85.5 328.5v37q0 204 -85.5 327.5t-203.5 123.5 q-111 0 -183.5 -119.5t-72.5 -337.5v-25z" />
<glyph unicode="r" horiz-adv-x="577" d="M133 0v1067h90v-199q41 98 123 158q74 54 171 54q10 0 20 -1v-96h-7q-132 0 -219.5 -90t-87.5 -256v-637h-90z" />
<glyph unicode="s" horiz-adv-x="700" d="M20 129l60 70q123 -129 258 -129q87 0 145 53.5t58 138.5v4q0 68 -44.5 123t-164.5 121q-138 77 -196 146t-58 165v2q0 114 79.5 186t202.5 72q157 0 277 -112l-57 -70q-109 98 -224 98q-82 0 -135 -47.5t-53 -118.5v-2q0 -66 44.5 -117t162.5 -118q147 -85 201.5 -156 t54.5 -170v-2q0 -124 -85.5 -202t-211.5 -78q-168 0 -314 143z" />
<glyph unicode="t" horiz-adv-x="565" d="M55 983v84h117v311h90v-311h230v-84h-230v-766q0 -79 35.5 -111t103.5 -32q49 0 93 18v-84q-46 -18 -103 -18q-102 0 -160.5 52t-58.5 163v778h-117z" />
<glyph unicode="u" d="M121 338v729h90v-696q0 -310 221 -310q107 0 178.5 88t71.5 226v692h90v-1067h-90v170q-85 -188 -270 -188q-133 0 -212 92t-79 264z" />
<glyph unicode="v" horiz-adv-x="851" d="M63 1067h97l266 -932l270 932h92l-323 -1073h-78z" />
<glyph unicode="w" horiz-adv-x="1286" d="M76 1067h96l213 -928l221 928h80l217 -928l217 928h90l-268 -1073h-82l-217 901l-217 -901h-80z" />
<glyph unicode="x" horiz-adv-x="829" d="M68 0l290 549l-274 518h98l230 -444l233 444h96l-276 -516l295 -551h-98l-250 477l-248 -477h-96z" />
<glyph unicode="y" horiz-adv-x="851" d="M61 1067h97l280 -936l254 936h96l-305 -1067q-46 -161 -107 -226t-153 -65q-77 0 -139 41l31 84q50 -37 108 -37q57 0 95 42t77 153z" />
<glyph unicode="z" horiz-adv-x="751" d="M72 0v53l497 934h-475v80h584v-53l-496 -934h490v-80h-600z" />
<glyph unicode="{" horiz-adv-x="698" d="M68 559v66h30q124 0 180 62.5t56 156.5q0 54 -26.5 157.5t-26.5 159.5q0 58 16 105.5t53.5 89t105.5 70t165 40.5l10 -65q-146 -22 -202 -80t-56 -168q0 -53 26.5 -149.5t26.5 -149.5q0 -101 -49.5 -170.5t-151.5 -91.5q102 -22 151.5 -91.5t49.5 -170.5 q0 -53 -26.5 -149.5t-26.5 -149.5q0 -110 56 -168t202 -80l-10 -66q-97 12 -165 40.5t-105.5 70.5t-53.5 89.5t-16 105.5q0 56 26.5 159.5t26.5 157.5q0 94 -56 156.5t-180 62.5h-30z" />
<glyph unicode="|" horiz-adv-x="493" d="M207 -223v1818h80v-1818h-80z" />
<glyph unicode="}" horiz-adv-x="698" d="M68 -217q146 22 202 80t56 168q0 53 -27 149.5t-27 149.5q0 101 49.5 170.5t151.5 91.5q-102 22 -151.5 91.5t-49.5 170.5q0 53 27 149.5t27 149.5q0 110 -56 168t-202 80l10 65q97 -12 165 -40.5t105.5 -70t53.5 -89t16 -105.5q0 -56 -26.5 -159.5t-26.5 -157.5 q0 -94 55.5 -156.5t179.5 -62.5h31v-66h-31q-124 0 -179.5 -62.5t-55.5 -156.5q0 -54 26.5 -157.5t26.5 -159.5q0 -58 -16 -105.5t-53.5 -89.5t-105.5 -70.5t-165 -40.5z" />
<glyph unicode="~" horiz-adv-x="720" d="M125 528q22 87 53.5 126.5t77.5 39.5q47 0 113 -47q58 -47 90 -47q25 0 41 22t32 74l66 -16q-23 -88 -55 -128t-78 -40q-48 0 -113 49q-62 47 -90 47q-25 0 -41.5 -22.5t-32.5 -73.5z" />
<glyph unicode="&#xa1;" horiz-adv-x="436" d="M154 1264v170h129v-170h-129zM162 0v143l31 916h51l30 -916v-143h-112z" />
<glyph unicode="&#xa2;" horiz-adv-x="802" d="M90 711v14q0 247 97 390t257 155l13 172h82l-15 -174q111 -16 207 -105l-53 -65q-86 69 -160 82l-61 -924h18q115 0 209 94l51 -65q-112 -115 -268 -115h-14l-15 -180h-82l15 192q-128 38 -204.5 175.5t-76.5 353.5zM184 711q0 -180 52 -290t143 -147l61 908 q-118 -14 -187 -128t-69 -325v-18z" />
<glyph unicode="&#xa3;" horiz-adv-x="890" d="M88 653v84h133v281q0 125 20.5 205.5t82.5 142.5q84 84 221 84q101 0 171.5 -44t106.5 -99l-69 -58q-83 115 -213 115q-93 0 -148 -55q-45 -43 -61.5 -113t-16.5 -178v-281h383v-84h-383v-567h514v-86h-737v45l129 39v569h-133z" />
<glyph unicode="&#xa5;" horiz-adv-x="946" d="M29 1434h110l336 -740l338 740h105l-379 -797h262v-78h-281v-203h281v-80h-281v-276h-92v276h-283v80h283v203h-283v78h263z" />
<glyph unicode="&#xa7;" horiz-adv-x="931" d="M76 735v4q0 88 66 156t196 92q-77 53 -112.5 104t-35.5 117v4q0 103 81.5 170.5t209.5 67.5q162 0 289 -100l-49 -72q-116 86 -248 86q-88 0 -137 -42.5t-49 -109.5v-4q0 -65 58 -112.5t206 -110.5q174 -74 239.5 -136.5t65.5 -150.5v-4q0 -88 -66 -156t-196 -92 q77 -53 112 -103.5t35 -117.5v-4q0 -103 -81 -170t-209 -67q-162 0 -289 100l49 72q116 -86 248 -86q88 0 137 42t49 109v4q0 65 -58 113t-206 111q-175 74 -240 136t-65 150zM168 739q0 -59 49 -105t176 -97q78 -31 137 -31q96 0 165 51.5t69 128.5v8q0 60 -49 106t-176 97 q-78 31 -138 31q-95 0 -164 -51.5t-69 -128.5v-9z" />
<glyph unicode="&#xa8;" horiz-adv-x="1024" d="M338 1206v144h106v-144h-106zM580 1206v144h106v-144h-106z" />
<glyph unicode="&#xa9;" horiz-adv-x="1290" d="M70 692v49q0 195 72.5 358t205 260t297.5 97q125 0 233 -56.5t183 -153.5t117.5 -228t42.5 -277v-47q0 -145 -43 -276.5t-118 -228.5t-183 -154.5t-232 -57.5q-166 0 -298.5 97t-204.5 260t-72 358zM127 692q0 -180 63.5 -330t183 -240.5t271.5 -90.5t272 91t184 241.5 t64 330.5v47q0 180 -64 330.5t-184 241t-272 90.5q-115 0 -212.5 -53t-164 -143t-104 -211t-37.5 -255v-49zM389 713v16q0 180 78.5 285.5t196.5 105.5q91 0 170 -67l-43 -62q-57 53 -127 53q-85 0 -140 -83t-55 -228v-22q0 -146 56 -230t141 -84q68 0 129 58l43 -58 q-78 -75 -176 -75q-118 0 -195.5 104.5t-77.5 286.5z" />
<glyph unicode="&#xaa;" horiz-adv-x="612" d="M102 639v66h400v-66h-400zM104 1014v10q0 86 51.5 137t137.5 51q59 0 117 -20v45q0 63 -33 97t-92 34q-63 0 -127 -33l-25 64q80 39 158 39q96 0 147 -60q43 -46 43 -137v-399h-71v76q-54 -87 -140 -87q-69 0 -117.5 50.5t-48.5 132.5zM176 1018q0 -54 28.5 -87.5 t74.5 -33.5q54 0 92.5 43.5t38.5 106.5v81q-58 21 -115 21q-56 0 -87.5 -34.5t-31.5 -88.5v-8z" />
<glyph unicode="&#xab;" horiz-adv-x="821" d="M80 514v16l274 426l68 -36l-240 -396l240 -399l-68 -37zM387 514v16l277 426l65 -36l-237 -396l237 -399l-65 -37z" />
<glyph unicode="&#xad;" horiz-adv-x="649" d="M104 561v92h443v-92h-443z" />
<glyph unicode="&#xae;" horiz-adv-x="712" d="M63 1083v25q0 150 84 253t209 103q126 0 210.5 -102.5t84.5 -251.5v-25q0 -149 -84.5 -251.5t-210.5 -102.5t-209.5 101.5t-83.5 250.5zM102 1083q0 -133 71 -224t183 -91t183 91.5t71 225.5v25q0 134 -70.5 224.5t-183.5 90.5q-112 0 -183 -92t-71 -225v-25zM254 913 v381h104q57 0 91 -31t34 -85q0 -83 -71 -109l84 -156h-56l-75 144h-62v-144h-49zM303 1100h53q36 0 57 20t21 56q0 34 -21 52.5t-57 18.5h-53v-147z" />
<glyph unicode="&#xaf;" horiz-adv-x="1024" d="M293 1225v84h438v-84h-438z" />
<glyph unicode="&#xb0;" horiz-adv-x="653" d="M86 1133v12q0 133 70.5 218t169.5 85q101 0 171 -84.5t70 -218.5v-12q0 -132 -70 -217t-171 -85q-99 0 -169.5 85t-70.5 217zM170 1133q0 -98 43.5 -161t112.5 -63t113 63t44 161v12q0 98 -44 161.5t-113 63.5t-112.5 -63t-43.5 -162v-12z" />
<glyph unicode="&#xb1;" horiz-adv-x="897" d="M94 129v88h709v-88h-709zM94 698v88h309v312h91v-312h309v-88h-309v-311h-91v311h-309z" />
<glyph unicode="&#xb2;" horiz-adv-x="614" d="M84 926v53l258 305q54 66 77 109t23 90q0 56 -37 88.5t-92 32.5q-13 0 -25.5 -2t-22.5 -4.5t-21.5 -8t-19 -9.5t-18.5 -12t-16 -12t-15 -13.5t-13 -12.5t-12.5 -13.5t-10.5 -11.5l-49 49q51 60 103.5 90.5t123.5 30.5q88 0 145.5 -53t57.5 -137q0 -66 -26.5 -114 t-92.5 -126l-211 -248h338v-71h-444z" />
<glyph unicode="&#xb3;" horiz-adv-x="614" d="M70 1008l45 53q84 -80 178 -80q63 0 107 40.5t44 111.5q0 72 -55.5 110.5t-159.5 40.5h-20l-6 47l215 262h-320v72h416v-57l-217 -262q223 -35 223 -216q0 -96 -68 -156.5t-165 -60.5q-122 0 -217 95z" />
<glyph unicode="&#xb4;" horiz-adv-x="1024" d="M395 1192l146 260l104 -55l-184 -205h-66z" />
<glyph unicode="&#xb6;" horiz-adv-x="776" d="M66 989v4q0 202 123 321.5t329 119.5h117v-1434h-96v543h-4q-215 0 -342 120.5t-127 325.5z" />
<glyph unicode="&#xb7;" horiz-adv-x="366" d="M117 522v174h133v-174h-133z" />
<glyph unicode="&#xb8;" horiz-adv-x="1024" d="M369 -205l139 225h72l-111 -268z" />
<glyph unicode="&#xb9;" horiz-adv-x="499" d="M84 1583l170 84h65v-741h-73v657l-154 -74z" />
<glyph unicode="&#xba;" horiz-adv-x="612" d="M92 1128v15q0 130 59.5 214.5t155.5 84.5t155.5 -84t59.5 -213v-15q0 -130 -60.5 -214.5t-156.5 -84.5t-154.5 84t-58.5 213zM98 639v66h418v-66h-418zM168 1130q0 -97 37 -163t102 -66t101 65.5t36 161.5v15q0 96 -37 161.5t-102 65.5t-101 -65t-36 -160v-15z" />
<glyph unicode="&#xbb;" horiz-adv-x="821" d="M90 125l240 395l-240 400l68 36l274 -426v-16l-274 -426zM399 125l240 395l-240 400l66 36l276 -426v-16l-276 -426z" />
<glyph unicode="&#xbc;" horiz-adv-x="1269" d="M88 1354l170 84h66v-742h-74v658l-154 -74zM221 0l371 731l348 705h78l-369 -734l-350 -702h-78zM711 215l307 528h86v-520h86v-63h-86v-162h-70v162h-315zM791 223h243v412h-6z" />
<glyph unicode="&#xbd;" horiz-adv-x="1269" d="M88 1354l170 84h66v-742h-74v658l-154 -74zM176 0l371 731l348 705h78l-369 -734l-350 -702h-78zM731 0v53l258 305q55 66 78 109t23 90q0 56 -37 88.5t-92 32.5q-31 0 -57.5 -8.5t-52 -28.5t-34 -28t-31.5 -33l-49 49q51 60 104 90.5t124 30.5q88 0 145 -53.5t57 -137.5 q0 -66 -26.5 -114.5t-91.5 -125.5l-211 -247h338v-72h-445z" />
<glyph unicode="&#xbe;" horiz-adv-x="1382" d="M74 778l45 53q83 -79 178 -79q63 0 107.5 40.5t44.5 110.5q0 72 -56 111t-160 41h-20l-6 47l215 262h-320v72h416v-58l-217 -262q223 -35 223 -215q0 -96 -68 -156.5t-165 -60.5q-123 0 -217 94zM336 0l371 731l348 705h78l-369 -734l-350 -702h-78zM829 215l308 528h86 v-520h86v-63h-86v-162h-70v162h-315zM909 223h244v412h-6z" />
<glyph unicode="&#xbf;" horiz-adv-x="786" d="M74 348v8q0 160 90 261.5t237 148.5l19 293h59l19 -346l-11 -13q-317 -67 -317 -340v-6q0 -124 74 -201t192 -77q130 0 256 117l53 -72q-143 -133 -315 -133q-156 0 -256 103t-100 257zM381 1264v170h127v-170h-127z" />
<glyph unicode="&#xc0;" horiz-adv-x="1112" d="M70 0l436 1442h100l436 -1442h-100l-119 401h-538l-119 -401h-96zM311 489h486l-242 820zM342 1720l104 49l150 -223h-74z" />
<glyph unicode="&#xc1;" horiz-adv-x="1112" d="M70 0l436 1442h100l436 -1442h-100l-119 401h-538l-119 -401h-96zM311 489h486l-242 820zM516 1546l150 223l104 -49l-180 -174h-74z" />
<glyph unicode="&#xc2;" horiz-adv-x="1112" d="M70 0l436 1442h100l436 -1442h-100l-119 401h-538l-119 -401h-96zM311 489h486l-242 820zM342 1546l170 207h86l170 -207h-94l-121 121l-121 -121h-90z" />
<glyph unicode="&#xc3;" horiz-adv-x="1112" d="M70 0l436 1442h100l436 -1442h-100l-119 401h-538l-119 -401h-96zM311 489h486l-242 820zM315 1565q48 149 136 149q50 0 118 -43q62 -35 88 -35q25 0 41.5 18t34.5 60l68 -16q-48 -150 -133 -150q-21 0 -43 6.5t-35 13t-43 23.5q-63 37 -88 37t-41.5 -19t-32.5 -61z" />
<glyph unicode="&#xc4;" horiz-adv-x="1112" d="M70 0l436 1442h100l436 -1442h-100l-119 401h-538l-119 -401h-96zM311 489h486l-242 820zM362 1559v139h121v-139h-121zM627 1559v139h118v-139h-118z" />
<glyph unicode="&#xc5;" horiz-adv-x="1112" d="M70 0l413 1364q-50 19 -80 60t-30 94q0 71 54 119.5t130 48.5q74 0 126 -48.5t52 -119.5q0 -51 -29.5 -92t-76.5 -60l413 -1366h-100l-119 401h-538l-119 -401h-96zM311 487h486l-242 822zM442 1518q0 -46 32 -76.5t81 -30.5q47 0 80 30.5t33 76.5t-33 77t-80 31 q-49 0 -81 -31t-32 -77z" />
<glyph unicode="&#xc6;" horiz-adv-x="1427" d="M18 0l566 1434h753v-88h-567v-580h512v-86h-512v-592h573v-88h-669v401h-400l-157 -401h-99zM309 487h365v861h-33z" />
<glyph unicode="&#xc7;" horiz-adv-x="966" d="M102 707v18q0 169 40 307t109.5 228t162 139t198.5 49q158 0 285 -111l-53 -75q-106 96 -236 96q-174 0 -291.5 -175t-117.5 -458v-14q0 -287 115.5 -461t291.5 -174q128 0 244 104l53 -71q-134 -123 -303 -123h-2l-96 -234l-101 43l121 197q-187 34 -303.5 220.5 t-116.5 494.5z" />
<glyph unicode="&#xc8;" horiz-adv-x="913" d="M150 0v1434h673v-88h-577v-578h522v-88h-522v-592h585v-88h-681zM276 1708l105 49l149 -223h-73z" />
<glyph unicode="&#xc9;" horiz-adv-x="913" d="M150 0v1434h673v-88h-577v-578h522v-88h-522v-592h585v-88h-681zM451 1534l149 223l105 -49l-181 -174h-73z" />
<glyph unicode="&#xca;" horiz-adv-x="913" d="M150 0v1434h673v-88h-577v-578h522v-88h-522v-592h585v-88h-681zM279 1540l170 207h86l170 -207h-95l-121 121l-120 -121h-90z" />
<glyph unicode="&#xcb;" horiz-adv-x="913" d="M150 0v1434h673v-88h-577v-578h522v-88h-522v-592h585v-88h-681zM299 1546v140h121v-140h-121zM563 1546v140h119v-140h-119z" />
<glyph unicode="&#xcc;" horiz-adv-x="421" d="M-4 1708l104 49l150 -223h-74zM164 0v1434h96v-1434h-96z" />
<glyph unicode="&#xcd;" horiz-adv-x="421" d="M164 0v1434h96v-1434h-96zM174 1534l150 223l104 -49l-180 -174h-74z" />
<glyph unicode="&#xce;" horiz-adv-x="421" d="M0 1540l170 207h86l170 -207h-94l-121 121l-121 -121h-90zM164 0v1434h96v-1434h-96z" />
<glyph unicode="&#xcf;" horiz-adv-x="421" d="M20 1546v140h121v-140h-121zM164 0v1434h96v-1434h-96zM285 1546v140h118v-140h-118z" />
<glyph unicode="&#xd0;" horiz-adv-x="1122" d="M51 678v86h127v670h279q251 0 408 -189.5t157 -513.5v-26q0 -324 -157 -514.5t-408 -190.5h-279v678h-127zM274 88h183q213 0 340 164.5t127 449.5v27q0 284 -129 450.5t-340 166.5h-181v-582h283v-86h-283v-590z" />
<glyph unicode="&#xd1;" horiz-adv-x="1126" d="M150 0v1434h96l639 -1223v1223h92v-1434h-84l-651 1251v-1251h-92zM324 1542q48 150 135 150q51 0 119 -43q62 -35 88 -35q25 0 40.5 17.5t34.5 60.5l68 -17q-48 -149 -133 -149q-21 0 -43 6.5t-35 13t-43 23.5q-63 37 -88 37t-41.5 -19t-32.5 -61z" />
<glyph unicode="&#xd2;" horiz-adv-x="1148" d="M102 705v24q0 330 131.5 526.5t341.5 196.5t342 -196.5t132 -526.5v-24q0 -330 -132 -526.5t-342 -196.5t-341.5 196.5t-131.5 526.5zM201 705q0 -286 105.5 -459.5t268.5 -173.5t269 174t106 459v24q0 285 -106 459t-269 174t-268.5 -173.5t-105.5 -459.5v-24zM360 1720 l105 49l149 -223h-73z" />
<glyph unicode="&#xd3;" horiz-adv-x="1148" d="M102 705v24q0 330 131.5 526.5t341.5 196.5t342 -196.5t132 -526.5v-24q0 -330 -132 -526.5t-342 -196.5t-341.5 196.5t-131.5 526.5zM201 705q0 -286 105.5 -459.5t268.5 -173.5t269 174t106 459v24q0 285 -106 459t-269 174t-268.5 -173.5t-105.5 -459.5v-24zM535 1546 l149 223l104 -49l-180 -174h-73z" />
<glyph unicode="&#xd4;" horiz-adv-x="1148" d="M102 705v24q0 330 131.5 526.5t341.5 196.5t342 -196.5t132 -526.5v-24q0 -330 -132 -526.5t-342 -196.5t-341.5 196.5t-131.5 526.5zM201 705q0 -286 105.5 -459.5t268.5 -173.5t269 174t106 459v24q0 285 -106 459t-269 174t-268.5 -173.5t-105.5 -459.5v-24zM360 1552 l170 207h86l170 -207h-94l-121 121l-120 -121h-91z" />
<glyph unicode="&#xd5;" horiz-adv-x="1148" d="M102 705v24q0 330 131.5 526.5t341.5 196.5t342 -196.5t132 -526.5v-24q0 -330 -132 -526.5t-342 -196.5t-341.5 196.5t-131.5 526.5zM201 705q0 -286 105.5 -459.5t268.5 -173.5t269 174t106 459v24q0 285 -106 459t-269 174t-268.5 -173.5t-105.5 -459.5v-24zM336 1565 q48 149 135 149q51 0 119 -43q62 -35 88 -35q25 0 41.5 18t34.5 60l67 -16q-48 -150 -133 -150q-21 0 -43 6.5t-35 13t-43 23.5q-63 37 -88 37t-41 -19t-32 -61z" />
<glyph unicode="&#xd6;" horiz-adv-x="1148" d="M102 705v24q0 330 131.5 526.5t341.5 196.5t342 -196.5t132 -526.5v-24q0 -330 -132 -526.5t-342 -196.5t-341.5 196.5t-131.5 526.5zM201 705q0 -286 105.5 -459.5t268.5 -173.5t269 174t106 459v24q0 285 -106 459t-269 174t-268.5 -173.5t-105.5 -459.5v-24zM383 1559 v139h121v-139h-121zM647 1559v139h119v-139h-119z" />
<glyph unicode="&#xd7;" horiz-adv-x="897" d="M133 451l258 270l-258 268l66 62l250 -269l251 269l64 -60l-258 -270l258 -268l-66 -62l-249 268l-252 -268z" />
<glyph unicode="&#xd8;" horiz-adv-x="1148" d="M94 -14l125 213q-117 189 -117 506v22q0 330 131 527.5t342 197.5q177 0 297 -139l84 135h101l-127 -213q119 -198 119 -506v-22q0 -330 -132 -527.5t-344 -197.5q-173 0 -294 137l-84 -133h-101zM197 709q0 -251 77 -418l553 934q-103 143 -254 143q-164 0 -270 -174 t-106 -465v-20zM324 205q102 -139 251 -139q166 0 272.5 174t106.5 465v20q0 240 -80 418z" />
<glyph unicode="&#xd9;" horiz-adv-x="1089" d="M139 449v985h94v-983q0 -183 83.5 -283t230.5 -100q145 0 228 97.5t83 280.5v988h96v-981q0 -222 -111 -347.5t-298 -125.5q-185 0 -295.5 125t-110.5 344zM332 1698l104 49l150 -223h-74z" />
<glyph unicode="&#xda;" horiz-adv-x="1089" d="M139 449v985h94v-983q0 -183 83.5 -283t230.5 -100q145 0 228 97.5t83 280.5v988h96v-981q0 -222 -111 -347.5t-298 -125.5q-185 0 -295.5 125t-110.5 344zM506 1524l149 223l105 -49l-180 -174h-74z" />
<glyph unicode="&#xdb;" horiz-adv-x="1089" d="M139 449v985h94v-983q0 -183 83.5 -283t230.5 -100q145 0 228 97.5t83 280.5v988h96v-981q0 -222 -111 -347.5t-298 -125.5q-185 0 -295.5 125t-110.5 344zM332 1530l170 207h86l170 -207h-94l-121 121l-121 -121h-90z" />
<glyph unicode="&#xdc;" horiz-adv-x="1089" d="M139 449v985h94v-983q0 -183 83.5 -283t230.5 -100q145 0 228 97.5t83 280.5v988h96v-981q0 -222 -111 -347.5t-298 -125.5q-185 0 -295.5 125t-110.5 344zM352 1536v139h121v-139h-121zM616 1536v139h119v-139h-119z" />
<glyph unicode="&#xdd;" horiz-adv-x="980" d="M33 1434h106l353 -732l352 732h104l-409 -832v-602h-97v600zM451 1524l149 223l105 -49l-181 -174h-73z" />
<glyph unicode="&#xde;" horiz-adv-x="966" d="M150 0v1434h98v-254h198q208 0 331.5 -120t123.5 -323v-4q0 -211 -128.5 -334t-340.5 -123h-186v-276h-96zM246 362h194q170 0 267.5 98.5t97.5 268.5v4q0 171 -98 265t-265 94h-196v-730z" />
<glyph unicode="&#xdf;" horiz-adv-x="897" d="M133 0v1061q0 189 88 299t238 110q132 0 216.5 -90.5t84.5 -236.5v-8q0 -136 -71 -235t-183 -144q143 -39 227 -130t84 -237v-10q0 -173 -112 -276.5t-310 -106.5v78q160 7 245 87t85 216v6q0 135 -84.5 217t-245.5 107v71q136 45 204.5 139.5t68.5 212.5v7 q0 115 -59.5 181t-153.5 66q-105 0 -168.5 -86t-63.5 -231v-1067h-90z" />
<glyph unicode="&#xe0;" horiz-adv-x="841" d="M72 311v13q0 154 89.5 248t241.5 94q118 0 230 -41v108q0 126 -63 193t-179 67q-127 0 -227 -67l-33 78q136 75 268 75q148 0 236 -88q88 -85 88 -250v-741h-90v162q-88 -182 -271 -182q-123 0 -206.5 92.5t-83.5 238.5zM164 315q0 -112 57.5 -183t151.5 -71 q112 0 186 86t74 205v187q-110 45 -225 45q-117 0 -180.5 -70t-63.5 -186v-13zM209 1397l104 55l146 -260h-66z" />
<glyph unicode="&#xe1;" horiz-adv-x="841" d="M72 311v13q0 154 89.5 248t241.5 94q118 0 230 -41v108q0 126 -63 193t-179 67q-127 0 -227 -67l-33 78q136 75 268 75q148 0 236 -88q88 -85 88 -250v-741h-90v162q-88 -182 -271 -182q-123 0 -206.5 92.5t-83.5 238.5zM164 315q0 -112 57.5 -183t151.5 -71 q112 0 186 86t74 205v187q-110 45 -225 45q-117 0 -180.5 -70t-63.5 -186v-13zM383 1192l145 260l105 -55l-184 -205h-66z" />
<glyph unicode="&#xe2;" horiz-adv-x="841" d="M72 311v13q0 154 89.5 248t241.5 94q118 0 230 -41v108q0 126 -63 193t-179 67q-127 0 -227 -67l-33 78q136 75 268 75q148 0 236 -88q88 -85 88 -250v-741h-90v162q-88 -182 -271 -182q-123 0 -206.5 92.5t-83.5 238.5zM164 315q0 -112 57.5 -183t151.5 -71 q112 0 186 86t74 205v187q-110 45 -225 45q-117 0 -180.5 -70t-63.5 -186v-13zM227 1198l156 250h74l155 -250h-80l-114 150l-115 -150h-76z" />
<glyph unicode="&#xe3;" horiz-adv-x="841" d="M72 311v13q0 154 89.5 248t241.5 94q118 0 230 -41v108q0 126 -63 193t-179 67q-127 0 -227 -67l-33 78q136 75 268 75q148 0 236 -88q88 -85 88 -250v-741h-90v162q-88 -182 -271 -182q-123 0 -206.5 92.5t-83.5 238.5zM164 315q0 -112 57.5 -183t151.5 -71 q112 0 186 86t74 205v187q-110 45 -225 45q-117 0 -180.5 -70t-63.5 -186v-13zM193 1210q23 86 54 126t75 40q30 0 54 -12t58 -39q57 -45 86 -45q22 0 38 22.5t32 71.5l65 -16q-23 -86 -54 -125t-75 -39q-30 0 -53.5 11.5t-58.5 37.5q-56 47 -86 47q-23 0 -39 -22.5 t-31 -73.5z" />
<glyph unicode="&#xe4;" horiz-adv-x="841" d="M72 311v13q0 154 89.5 248t241.5 94q118 0 230 -41v108q0 126 -63 193t-179 67q-127 0 -227 -67l-33 78q136 75 268 75q148 0 236 -88q88 -85 88 -250v-741h-90v162q-88 -182 -271 -182q-123 0 -206.5 92.5t-83.5 238.5zM164 315q0 -112 57.5 -183t151.5 -71 q112 0 186 86t74 205v187q-110 45 -225 45q-117 0 -180.5 -70t-63.5 -186v-13zM246 1206v144h106v-144h-106zM487 1206v144h107v-144h-107z" />
<glyph unicode="&#xe5;" horiz-adv-x="841" d="M72 311v13q0 154 89.5 248t241.5 94q118 0 230 -41v108q0 126 -63 193t-179 67q-127 0 -227 -67l-33 78q136 75 268 75q148 0 236 -88q88 -85 88 -250v-741h-90v162q-88 -182 -271 -182q-123 0 -206.5 92.5t-83.5 238.5zM164 315q0 -112 57.5 -183t151.5 -71 q112 0 186 86t74 205v187q-110 45 -225 45q-117 0 -180.5 -70t-63.5 -186v-13zM244 1366q0 72 51.5 123t126.5 51q73 0 123.5 -51t50.5 -123t-51.5 -123t-126.5 -51q-73 0 -123.5 51t-50.5 123zM305 1366q0 -51 33 -85t82 -34t82 34t33 85q0 50 -33 84.5t-82 34.5t-82 -34.5 t-33 -84.5z" />
<glyph unicode="&#xe6;" horiz-adv-x="1386" d="M72 311v13q0 154 88.5 248t240.5 94q112 0 224 -41v108q0 126 -62 193t-180 67q-115 0 -221 -59l-31 82q132 63 256 63q119 0 195 -52t104 -153q46 100 120 155.5t163 55.5q151 0 244.5 -144.5t93.5 -387.5v-57h-600q6 -204 93.5 -317t215.5 -113q126 0 225 90l47 -70 q-73 -56 -133.5 -80t-142.5 -24q-110 0 -196.5 62t-137.5 179q-50 -107 -129.5 -175t-188.5 -68q-122 0 -205 92t-83 239zM164 315q0 -112 56.5 -183t150.5 -71q93 0 164 73t110 181q-24 101 -24 228q-125 41 -220 41q-114 0 -175.5 -70t-61.5 -186v-13zM707 575h510 q-3 184 -71 305t-179 121q-107 0 -179 -114t-81 -312z" />
<glyph unicode="&#xe7;" horiz-adv-x="747" d="M82 518v21q0 130 31 235t85 172t123.5 103t147.5 36q124 0 223 -92l-49 -71q-87 79 -180 79q-117 0 -203 -125.5t-86 -338.5v-19q0 -112 25.5 -201.5t68 -143t93 -81t104.5 -26.5q94 3 176 81l53 -63q-91 -99 -229 -102l-94 -230l-101 43l119 195q-139 29 -223 165 t-84 363z" />
<glyph unicode="&#xe8;" horiz-adv-x="851" d="M82 518v14q0 254 101 403.5t251 149.5q155 0 246.5 -143t91.5 -389v-57h-600q6 -203 95.5 -316.5t219.5 -113.5q121 0 220 90l47 -70q-122 -104 -275 -104q-171 0 -284 142t-113 394zM172 575h510q-3 183 -70 304.5t-178 121.5q-107 0 -180 -114.5t-82 -311.5zM223 1397 l105 55l145 -260h-65z" />
<glyph unicode="&#xe9;" horiz-adv-x="851" d="M82 518v14q0 254 101 403.5t251 149.5q155 0 246.5 -143t91.5 -389v-57h-600q6 -203 95.5 -316.5t219.5 -113.5q121 0 220 90l47 -70q-122 -104 -275 -104q-171 0 -284 142t-113 394zM172 575h510q-3 183 -70 304.5t-178 121.5q-107 0 -180 -114.5t-82 -311.5zM395 1192 l146 260l104 -55l-184 -205h-66z" />
<glyph unicode="&#xea;" horiz-adv-x="851" d="M82 518v14q0 254 101 403.5t251 149.5q155 0 246.5 -143t91.5 -389v-57h-600q6 -203 95.5 -316.5t219.5 -113.5q121 0 220 90l47 -70q-122 -104 -275 -104q-171 0 -284 142t-113 394zM172 575h510q-3 183 -70 304.5t-178 121.5q-107 0 -180 -114.5t-82 -311.5zM242 1198 l155 250h74l156 -250h-80l-115 150l-115 -150h-75z" />
<glyph unicode="&#xeb;" horiz-adv-x="851" d="M82 518v14q0 254 101 403.5t251 149.5q155 0 246.5 -143t91.5 -389v-57h-600q6 -203 95.5 -316.5t219.5 -113.5q121 0 220 90l47 -70q-122 -104 -275 -104q-171 0 -284 142t-113 394zM172 575h510q-3 183 -70 304.5t-178 121.5q-107 0 -180 -114.5t-82 -311.5zM260 1206 v144h107v-144h-107zM502 1206v144h106v-144h-106z" />
<glyph unicode="&#xec;" horiz-adv-x="380" d="M-20 1397l104 55l145 -260h-65zM145 0v1067h91v-1067h-91z" />
<glyph unicode="&#xed;" horiz-adv-x="380" d="M145 0v1067h91v-1067h-91zM154 1192l145 260l104 -55l-184 -205h-65z" />
<glyph unicode="&#xee;" horiz-adv-x="380" d="M-2 1198l156 250h73l156 -250h-80l-115 150l-114 -150h-76zM145 0v1067h91v-1067h-91z" />
<glyph unicode="&#xef;" horiz-adv-x="380" d="M16 1206v144h107v-144h-107zM145 0v1067h91v-1067h-91zM258 1206v144h107v-144h-107z" />
<glyph unicode="&#xf0;" d="M82 526v15q0 239 105 387.5t247 148.5q134 0 238 -129q-58 151 -197 326l-170 -98l-41 65l160 92q-37 43 -123 129h121q25 -27 76 -86l155 90l41 -65l-149 -86q276 -362 276 -735v-23q0 -270 -106 -422.5t-266 -152.5q-152 0 -259.5 151.5t-107.5 392.5zM174 524 q0 -200 81 -329t198 -129t196.5 127t79.5 333v15q0 209 -83 331.5t-204 122.5q-114 0 -191 -127.5t-77 -328.5v-15z" />
<glyph unicode="&#xf1;" d="M133 0v1067h90v-170q38 83 105 135.5t166 52.5q133 0 211.5 -91.5t78.5 -264.5v-729h-90v696q0 310 -221 310q-107 0 -178.5 -88t-71.5 -226v-692h-90zM231 1210q23 86 54 126t75 40q50 0 113 -51q57 -45 86 -45q22 0 38 22.5t32 71.5l65 -16q-23 -86 -54 -125t-75 -39 q-30 0 -53.5 11.5t-58.5 37.5q-56 47 -86 47q-23 0 -39 -22.5t-31 -73.5z" />
<glyph unicode="&#xf2;" horiz-adv-x="907" d="M82 526v15q0 238 105.5 391t267.5 153t266 -152t104 -392v-15q0 -238 -105 -391t-267 -153t-266.5 152t-104.5 392zM174 526q0 -202 81.5 -331t199.5 -129q117 0 197.5 129.5t80.5 330.5v15q0 200 -82 330t-198 130q-117 0 -198 -129.5t-81 -330.5v-15zM242 1397l104 55 l146 -260h-66z" />
<glyph unicode="&#xf3;" horiz-adv-x="907" d="M82 526v15q0 238 105.5 391t267.5 153t266 -152t104 -392v-15q0 -238 -105 -391t-267 -153t-266.5 152t-104.5 392zM174 526q0 -202 81.5 -331t199.5 -129q117 0 197.5 129.5t80.5 330.5v15q0 200 -82 330t-198 130q-117 0 -198 -129.5t-81 -330.5v-15zM414 1192l145 260 l105 -55l-185 -205h-65z" />
<glyph unicode="&#xf4;" horiz-adv-x="907" d="M82 526v15q0 238 105.5 391t267.5 153t266 -152t104 -392v-15q0 -238 -105 -391t-267 -153t-266.5 152t-104.5 392zM174 526q0 -202 81.5 -331t199.5 -129q117 0 197.5 129.5t80.5 330.5v15q0 200 -82 330t-198 130q-117 0 -198 -129.5t-81 -330.5v-15zM262 1198l156 250 h74l155 -250h-80l-114 150l-115 -150h-76z" />
<glyph unicode="&#xf5;" horiz-adv-x="907" d="M82 526v15q0 238 105.5 391t267.5 153t266 -152t104 -392v-15q0 -238 -105 -391t-267 -153t-266.5 152t-104.5 392zM174 526q0 -202 81.5 -331t199.5 -129q117 0 197.5 129.5t80.5 330.5v15q0 200 -82 330t-198 130q-117 0 -198 -129.5t-81 -330.5v-15zM227 1210 q23 86 54 126t75 40q50 0 113 -51q57 -45 86 -45q22 0 38 22.5t32 71.5l65 -16q-23 -86 -54 -125t-75 -39q-30 0 -53.5 11.5t-58.5 37.5q-56 47 -87 47q-23 0 -38 -22.5t-31 -73.5z" />
<glyph unicode="&#xf6;" horiz-adv-x="907" d="M82 526v15q0 238 105.5 391t267.5 153t266 -152t104 -392v-15q0 -238 -105 -391t-267 -153t-266.5 152t-104.5 392zM174 526q0 -202 81.5 -331t199.5 -129q117 0 197.5 129.5t80.5 330.5v15q0 200 -82 330t-198 130q-117 0 -198 -129.5t-81 -330.5v-15zM281 1206v144h106 v-144h-106zM522 1206v144h107v-144h-107z" />
<glyph unicode="&#xf7;" horiz-adv-x="897" d="M88 674v94h721v-94h-721zM383 334v158h131v-158h-131zM383 950v158h131v-158h-131z" />
<glyph unicode="&#xf8;" horiz-adv-x="907" d="M78 -10l100 160q-96 153 -96 376v15q0 239 108 391.5t265 152.5q127 0 221 -102l61 94h92l-100 -159q96 -153 96 -377v-15q0 -239 -107.5 -391.5t-264.5 -152.5q-130 0 -224 102l-59 -94h-92zM172 528q0 -181 57 -295l408 670q-78 101 -184 101q-120 0 -200.5 -130.5 t-80.5 -332.5v-13zM270 162q74 -99 185 -99q120 0 200 130t80 333v13q0 171 -57 295z" />
<glyph unicode="&#xf9;" d="M121 338v729h90v-696q0 -310 221 -310q107 0 178.5 88t71.5 226v692h90v-1067h-90v170q-85 -188 -270 -188q-133 0 -212 92t-79 264zM236 1391l104 55l145 -260h-65z" />
<glyph unicode="&#xfa;" d="M121 338v729h90v-696q0 -310 221 -310q107 0 178.5 88t71.5 226v692h90v-1067h-90v170q-85 -188 -270 -188q-133 0 -212 92t-79 264zM408 1186l145 260l104 -55l-184 -205h-65z" />
<glyph unicode="&#xfb;" d="M121 338v729h90v-696q0 -310 221 -310q107 0 178.5 88t71.5 226v692h90v-1067h-90v170q-85 -188 -270 -188q-133 0 -212 92t-79 264zM254 1192l156 250h73l156 -250h-80l-115 149l-114 -149h-76z" />
<glyph unicode="&#xfc;" d="M121 338v729h90v-696q0 -310 221 -310q107 0 178.5 88t71.5 226v692h90v-1067h-90v170q-85 -188 -270 -188q-133 0 -212 92t-79 264zM272 1200v143h107v-143h-107zM514 1200v143h107v-143h-107z" />
<glyph unicode="&#xfd;" horiz-adv-x="851" d="M61 1067h97l280 -936l254 936h96l-305 -1067q-46 -161 -107 -226t-153 -65q-77 0 -139 41l31 84q50 -37 108 -37q57 0 95 42t77 153zM391 1186l146 260l104 -55l-184 -205h-66z" />
<glyph unicode="&#xfe;" horiz-adv-x="937" d="M133 -285v1747h90v-610q45 104 117 168.5t168 64.5q140 0 243 -145t103 -391v-29q0 -245 -103 -391.5t-243 -146.5q-185 0 -285 231v-498h-90zM217 514q0 -203 84.5 -327t196.5 -124t188 123t76 334v25q0 209 -77 334t-187 125q-112 0 -196.5 -125t-84.5 -328v-37z" />
<glyph unicode="&#xff;" horiz-adv-x="851" d="M61 1067h97l280 -936l254 936h96l-305 -1067q-46 -161 -107 -226t-153 -65q-77 0 -139 41l31 84q50 -37 108 -37q57 0 95 42t77 153zM254 1200v143h106v-143h-106zM496 1200v143h106v-143h-106z" />
<glyph unicode="&#x152;" horiz-adv-x="1570" d="M102 702v27q0 324 156.5 514.5t407.5 190.5h815v-88h-568v-580h512v-86h-512v-592h574v-88h-821q-251 0 -407.5 189t-156.5 513zM199 705q0 -284 129 -450.5t340 -166.5h149v1258h-151q-213 0 -340 -165t-127 -450v-26z" />
<glyph unicode="&#x153;" horiz-adv-x="1499" d="M82 526v15q0 239 108 391.5t265 152.5q107 0 191.5 -74t127.5 -204q41 133 123 205.5t184 72.5q151 0 244.5 -144.5t93.5 -387.5v-57h-600q6 -204 93.5 -317t215.5 -113q127 0 226 90l47 -70q-73 -56 -134 -80t-143 -24q-121 0 -214 75.5t-134 208.5q-44 -132 -130 -208 t-193 -76q-157 0 -264 152t-107 392zM174 526q0 -203 80.5 -331.5t200.5 -128.5t199 129t79 331v15q0 201 -80.5 330.5t-199.5 129.5q-120 0 -199.5 -129t-79.5 -331v-15zM819 575h510q-3 184 -71 305t-179 121q-107 0 -179 -114t-81 -312z" />
<glyph unicode="&#x178;" horiz-adv-x="980" d="M33 1434h106l353 -732l352 732h104l-409 -832v-602h-97v600zM301 1536v139h121v-139h-121zM565 1536v139h119v-139h-119z" />
<glyph unicode="&#x2c6;" horiz-adv-x="1024" d="M319 1198l156 250h74l156 -250h-80l-115 150l-115 -150h-76z" />
<glyph unicode="&#x2dc;" horiz-adv-x="1024" d="M281 1210q23 86 54 126t75 40q30 0 54 -12t58 -39q57 -45 86 -45q22 0 38 22.5t32 71.5l65 -16q-23 -86 -54 -125t-75 -39q-30 0 -53.5 11.5t-58.5 37.5q-56 47 -86 47q-23 0 -39 -22.5t-31 -73.5z" />
<glyph unicode="&#x2000;" horiz-adv-x="884" />
<glyph unicode="&#x2001;" horiz-adv-x="1769" />
<glyph unicode="&#x2002;" horiz-adv-x="884" />
<glyph unicode="&#x2003;" horiz-adv-x="1769" />
<glyph unicode="&#x2004;" horiz-adv-x="589" />
<glyph unicode="&#x2005;" horiz-adv-x="442" />
<glyph unicode="&#x2006;" horiz-adv-x="294" />
<glyph unicode="&#x2007;" horiz-adv-x="294" />
<glyph unicode="&#x2008;" horiz-adv-x="221" />
<glyph unicode="&#x2009;" horiz-adv-x="353" />
<glyph unicode="&#x200a;" horiz-adv-x="98" />
<glyph unicode="&#x2010;" horiz-adv-x="649" d="M104 561v92h443v-92h-443z" />
<glyph unicode="&#x2011;" horiz-adv-x="649" d="M104 561v92h443v-92h-443z" />
<glyph unicode="&#x2012;" horiz-adv-x="649" d="M104 561v92h443v-92h-443z" />
<glyph unicode="&#x2013;" horiz-adv-x="909" d="M104 561v90h701v-90h-701z" />
<glyph unicode="&#x2014;" horiz-adv-x="1413" d="M104 561v90h1207v-90h-1207z" />
<glyph unicode="&#x2018;" horiz-adv-x="364" d="M111 1051v151q0 94 35 145.5t122 90.5l25 -52q-62 -28 -86.5 -65.5t-20.5 -95.5h56v-174h-131z" />
<glyph unicode="&#x2019;" horiz-adv-x="364" d="M72 1102q61 28 86 65.5t20 96.5h-55v170h131v-148q0 -94 -35.5 -146t-122.5 -89z" />
<glyph unicode="&#x201a;" horiz-adv-x="364" d="M66 -162q61 28 86 65.5t20 96.5h-55v170h131v-147q0 -94 -35.5 -145.5t-122.5 -90.5z" />
<glyph unicode="&#x201c;" horiz-adv-x="667" d="M111 1051v151q0 94 35 145.5t122 90.5l25 -52q-62 -28 -86.5 -65.5t-20.5 -95.5h56v-174h-131zM414 1051v151q0 95 34.5 146.5t122.5 89.5l25 -52q-62 -28 -87.5 -65.5t-21.5 -95.5h56v-174h-129z" />
<glyph unicode="&#x201d;" horiz-adv-x="667" d="M72 1102q61 28 86 65.5t20 96.5h-55v170h131v-148q0 -94 -35.5 -146t-122.5 -89zM373 1102q63 28 88 65.5t20 96.5h-55v170h129v-148q0 -95 -35 -146.5t-123 -88.5z" />
<glyph unicode="&#x201e;" horiz-adv-x="667" d="M66 -162q61 28 86 65.5t20 96.5h-55v170h131v-147q0 -94 -35.5 -145.5t-122.5 -90.5zM367 -162q62 28 87 66t21 96h-55v170h129v-147q0 -95 -35 -146t-123 -90z" />
<glyph unicode="&#x2022;" horiz-adv-x="751" d="M180 715v18q0 103 55.5 164t141.5 61q84 0 140 -61t56 -164v-18q0 -104 -55.5 -166t-140.5 -62q-86 0 -141.5 62t-55.5 166z" />
<glyph unicode="&#x2026;" horiz-adv-x="1114" d="M117 0v172h131v-172h-131zM492 0v172h131v-172h-131zM866 0v172h131v-172h-131z" />
<glyph unicode="&#x202f;" horiz-adv-x="353" />
<glyph unicode="&#x2039;" horiz-adv-x="512" d="M80 514v16l274 426l68 -36l-240 -396l240 -399l-68 -37z" />
<glyph unicode="&#x203a;" horiz-adv-x="512" d="M90 125l240 395l-240 400l68 36l274 -426v-16l-274 -426z" />
<glyph unicode="&#x205f;" horiz-adv-x="442" />
<glyph unicode="&#x20ac;" horiz-adv-x="993" d="M57 512v82h133q-2 33 -2 106v27q0 52 7 127h-138v80h148q23 148 78 262t147 183t207 69q90 0 156 -35t131 -106l-62 -62q-98 113 -227 113q-128 0 -216 -117t-120 -307h418v-80h-426q-6 -64 -6 -129v-18q0 -78 4 -113h428v-82h-418q31 -202 121.5 -319t216.5 -117 q133 0 227 125l64 -60q-62 -76 -132 -115.5t-161 -39.5q-172 0 -286.5 143t-147.5 383h-144z" />
<glyph unicode="&#x2122;" horiz-adv-x="1011" d="M25 1370v64h344v-64h-140v-577h-65v577h-139zM475 793v641h80l150 -336l149 336h78v-641h-66v520l-157 -361h-11l-159 361v-520h-64z" />
<glyph unicode="&#xe000;" horiz-adv-x="1064" d="M0 0v1065h1065v-1065h-1065z" />
</font>
</defs>
</svg>
