<?xml version="1.0" standalone="no"?>
<!DOCTYPE svg PUBLIC "-//W3C//DTD SVG 1.1//EN" "http://www.w3.org/Graphics/SVG/1.1/DTD/svg11.dtd" >
<svg xmlns="http://www.w3.org/2000/svg">
<metadata></metadata>
<defs>
<font id="gotham_xnarrowbook_italic" horiz-adv-x="915" >
<font-face units-per-em="2048" ascent="1638" descent="-410" />
<missing-glyph horiz-adv-x="401" />
<glyph unicode="&#xfb01;" horiz-adv-x="952" d="M49 0l207 954h-113l29 121h111l26 115q29 141 92 201q72 75 189 75q75 0 135 -26l-29 -121q-55 22 -98 22q-63 0 -99 -39t-55 -124l-24 -103h219l-27 -121h-217l-207 -954h-139zM563 0l234 1075h137l-234 -1075h-137zM838 1282l36 172h148l-37 -172h-147z" />
<glyph unicode="&#xfb02;" horiz-adv-x="952" d="M49 0l207 954h-113l29 121h111l26 115q29 141 92 201q72 75 189 75q75 0 135 -26l-29 -121q-55 22 -98 22q-63 0 -99 -39t-55 -124l-24 -103h219l-27 -121h-217l-207 -954h-139zM563 0l318 1462h137l-318 -1462h-137z" />
<glyph unicode="&#xfb03;" horiz-adv-x="1503" d="M49 0l207 954h-113l29 121h111l26 115q29 141 92 201q72 75 189 75q75 0 135 -26l-29 -121q-55 22 -98 22q-63 0 -99 -39t-55 -124l-24 -103h219l-27 -121h-217l-207 -954h-139zM598 0l207 954h-113l29 121h110l27 115q29 141 92 201q72 75 189 75q75 0 135 -26l-29 -121 q-55 22 -98 22q-63 0 -99 -39t-55 -124l-24 -103h219l-27 -121h-217l-207 -954h-139zM1114 0l234 1075h137l-234 -1075h-137zM1389 1282l36 172h148l-37 -172h-147z" />
<glyph unicode="&#xfb04;" horiz-adv-x="1503" d="M49 0l207 954h-113l29 121h111l26 115q29 141 92 201q72 75 189 75q75 0 135 -26l-29 -121q-55 22 -98 22q-63 0 -99 -39t-55 -124l-24 -103h219l-27 -121h-217l-207 -954h-139zM598 0l207 954h-113l29 121h110l27 115q29 141 92 201q72 75 189 75q75 0 135 -26l-29 -121 q-55 22 -98 22q-63 0 -99 -39t-55 -124l-24 -103h219l-27 -121h-217l-207 -954h-139zM1114 0l318 1462h137l-318 -1462h-137z" />
<glyph horiz-adv-x="2048" />
<glyph horiz-adv-x="2048" />
<glyph unicode="&#xd;" horiz-adv-x="2048" />
<glyph unicode=" "  horiz-adv-x="401" />
<glyph unicode="&#x09;" horiz-adv-x="401" />
<glyph unicode="&#xa0;" horiz-adv-x="401" />
<glyph unicode="!" horiz-adv-x="462" d="M29 0l41 205h174l-43 -205h-172zM162 397l155 922l25 115h168l-25 -115l-247 -922h-76z" />
<glyph unicode="&#x22;" horiz-adv-x="667" d="M176 889l131 545h158l-4 -17l-219 -528h-66zM479 889l131 545h158l-2 -17l-221 -528h-66z" />
<glyph unicode="#" horiz-adv-x="1005" d="M33 362l24 127h176l115 457h-176l27 127h182l92 361h115l-92 -361h268l90 361h115l-90 -361h168l-27 -127h-176l-115 -457h176l-24 -127h-185l-92 -362h-115l95 362h-271l-90 -362h-114l92 362h-168zM348 489h266l115 457h-266z" />
<glyph unicode="$" horiz-adv-x="905" d="M-35 207l101 100q114 -137 245 -172l125 551q-129 93 -184 183.5t-55 189.5q0 159 113 270t284 111h6l31 129h108l-30 -144q148 -38 262 -165l-103 -99q-93 106 -192 135l-117 -516q126 -94 183 -184.5t57 -196.5q0 -109 -48 -200.5t-142 -149t-216 -57.5h-10l-45 -197 h-109l50 209q-187 44 -314 203zM342 1067q0 -120 125 -225l108 467q-107 -6 -170 -75.5t-63 -166.5zM414 123q113 4 176 82.5t63 189.5q0 61 -27.5 115t-99.5 113z" />
<glyph unicode="%" horiz-adv-x="1294" d="M82 0l567 739l522 695h121l-569 -740l-520 -694h-121zM162 1012q0 104 35 199.5t94 154.5q77 80 180 80q100 0 159.5 -74.5t59.5 -204.5q0 -104 -35 -200.5t-94 -155.5q-80 -80 -182 -80q-98 0 -157.5 74.5t-59.5 206.5zM274 1010q0 -83 29.5 -127.5t83.5 -44.5 q49 0 92 43q45 43 72 124.5t27 163.5q0 81 -30 126.5t-83 45.5q-51 0 -94 -43t-70 -125.5t-27 -162.5zM684 266q0 104 35 201t92 156q82 79 182 79t159.5 -74t59.5 -206q0 -104 -35 -199.5t-94 -154.5q-77 -80 -182 -80q-98 0 -157.5 74t-59.5 204zM797 264q0 -82 29 -127 t83 -45q49 0 92 43q44 43 71.5 125.5t27.5 163.5q0 82 -30 127t-83 45q-51 0 -94 -43t-69.5 -125t-26.5 -164z" />
<glyph unicode="&#x26;" horiz-adv-x="1052" d="M31 322q0 320 368 493q-77 173 -77 299q0 141 87 240.5t228 99.5q127 0 201.5 -78.5t74.5 -191.5q0 -262 -352 -422l184 -383q72 118 140 285l108 -48q-85 -201 -186 -348l119 -233l-115 -55l-92 182q-165 -180 -354 -180q-151 0 -242.5 95.5t-91.5 244.5zM172 340 q0 -103 54.5 -167t152.5 -64q146 0 283 159l-213 443q-138 -63 -207.5 -158.5t-69.5 -212.5zM453 1118q0 -118 61 -256q268 117 268 312q0 70 -41 115.5t-112 45.5q-79 0 -127.5 -65t-48.5 -152z" />
<glyph unicode="'" horiz-adv-x="354" d="M176 889l131 545h158l-4 -17l-219 -528h-66z" />
<glyph unicode="(" horiz-adv-x="649" d="M104 406q0 255 83.5 465.5t238.5 365.5q147 147 334 225l39 -94q-155 -76 -260 -184q-146 -146 -221.5 -354.5t-75.5 -428.5q0 -354 219 -600l-72 -75q-136 131 -210.5 295.5t-74.5 384.5z" />
<glyph unicode=")" horiz-adv-x="649" d="M-127 -180q155 76 260 184q146 146 221.5 354t75.5 428q0 354 -219 600l72 76q136 -131 210 -295t74 -385q0 -255 -83 -465.5t-238 -365.5q-147 -147 -334 -225z" />
<glyph unicode="*" horiz-adv-x="686" d="M190 1102l224 53l-181 141l72 78l148 -174l30 242l99 -21l-74 -233l207 92l30 -96l-221 -54l178 -143l-69 -76l-148 174l-30 -243l-99 22l74 232l-207 -90z" />
<glyph unicode="+" horiz-adv-x="917" d="M111 655l28 131h307l70 314h133l-69 -314h307l-29 -131h-307l-68 -313h-133l70 313h-309z" />
<glyph unicode="," horiz-adv-x="407" d="M-96 -174q86 23 124 65.5t46 108.5h-74l43 205h176l-39 -180q-26 -123 -84.5 -183.5t-173.5 -85.5z" />
<glyph unicode="-" horiz-adv-x="675" d="M100 545l31 139h475l-31 -139h-475z" />
<glyph unicode="." horiz-adv-x="407" d="M0 0l43 205h176l-43 -205h-176z" />
<glyph unicode="/" horiz-adv-x="731" d="M-193 -223l1024 1818h132l-1024 -1818h-132z" />
<glyph unicode="0" horiz-adv-x="1024" d="M98 442q0 231 79.5 493t213.5 396q123 123 273 123q163 0 251.5 -120t88.5 -345q0 -146 -32.5 -311.5t-101.5 -325.5t-159 -250q-122 -122 -273 -122q-163 0 -251.5 119.5t-88.5 342.5zM242 442q0 -162 51.5 -246.5t148.5 -84.5q89 0 164 75q111 111 182.5 357t71.5 448 q0 162 -52 247t-149 85q-87 0 -163 -76q-111 -111 -182.5 -357t-71.5 -448z" />
<glyph unicode="1" horiz-adv-x="550" d="M125 0l276 1270l-206 -74l14 145l262 99h111l-314 -1440h-143z" />
<glyph unicode="2" horiz-adv-x="876" d="M-47 0l22 111l543 614q116 131 167.5 220t51.5 175q0 89 -54.5 143t-145.5 54q-69 0 -130.5 -32.5t-132.5 -102.5l-79 104q163 166 354 166q151 0 244.5 -88.5t93.5 -226.5q0 -119 -58 -222.5t-184 -244.5l-475 -533h547l-31 -137h-733z" />
<glyph unicode="3" horiz-adv-x="864" d="M-31 141l92 105q116 -133 265 -133q130 0 209 95t79 234q0 60 -22 108t-56 76.5t-78 47.5t-83.5 26t-77.5 7h-2l4 90l440 499h-503l32 138h682l-22 -111l-463 -522q295 -82 295 -361q0 -92 -34 -182.5t-101 -157.5q-120 -120 -301 -120q-212 0 -355 161z" />
<glyph unicode="4" horiz-adv-x="950" d="M20 322l7 116l768 1004h145l-215 -998h154l-27 -122h-154l-69 -322h-137l69 322h-541zM180 444h412l164 760z" />
<glyph unicode="5" horiz-adv-x="882" d="M-20 145l96 103q114 -135 262 -135q72 0 133 35t99.5 92t59.5 126.5t21 141.5q0 124 -62.5 184t-164.5 60q-98 0 -184 -45l-78 61l178 666h584l-29 -136h-463l-121 -448q74 29 150 29q153 0 244.5 -93t91.5 -264q0 -120 -40.5 -229t-113.5 -182q-67 -65 -140.5 -97 t-168.5 -32q-106 0 -197.5 42.5t-156.5 120.5z" />
<glyph unicode="6" horiz-adv-x="948" d="M96 422q0 95 19 215.5t54 246.5t94 243.5t130 189.5q134 137 309 137q165 0 295 -121l-84 -108q-100 96 -219 96q-113 0 -202 -92q-143 -143 -218 -481q107 151 279 151q150 0 235.5 -99t85.5 -261q0 -129 -43 -248.5t-120 -196.5q-114 -114 -271 -114q-70 0 -130 25 t-99 65q-115 112 -115 352zM238 381q0 -150 67 -217q58 -58 146 -58q89 0 159 70q60 60 91.5 155t31.5 193q0 123 -56.5 187.5t-156.5 64.5q-94 0 -168 -71q-56 -56 -85 -143.5t-29 -180.5z" />
<glyph unicode="7" horiz-adv-x="847" d="M68 0l698 1296h-541l33 138h690l-26 -119l-699 -1315h-155z" />
<glyph unicode="8" horiz-adv-x="921" d="M39 338q0 146 81 262.5t224 161.5q-61 39 -98 112t-37 160q0 110 47.5 205t138.5 154t205 59q150 0 242 -90.5t92 -245.5q0 -132 -74.5 -242.5t-191.5 -148.5q72 -46 116.5 -127.5t44.5 -181.5q0 -83 -29 -161t-82 -139.5t-133.5 -98.5t-176.5 -37q-166 0 -267.5 98.5 t-101.5 259.5zM182 346q0 -114 64 -179t166 -65q122 0 199 97.5t77 226.5q0 115 -62.5 183.5t-166.5 68.5q-80 0 -144.5 -49t-98.5 -124.5t-34 -158.5zM346 1022q0 -96 52 -160.5t143 -64.5q111 0 182.5 95t71.5 218q0 98 -54.5 159.5t-146.5 61.5q-75 0 -133 -45.5 t-86.5 -115t-28.5 -148.5z" />
<glyph unicode="9" horiz-adv-x="948" d="M14 115l84 110q112 -112 238 -112q112 0 201 92q138 138 213 463q-112 -150 -279 -150q-149 0 -234 100.5t-85 268.5q0 132 44 253t121 199q115 115 271 115q70 0 130 -25t99 -65q115 -112 115 -352q0 -131 -31 -294.5t-101.5 -335t-164.5 -265.5q-134 -137 -309 -137 q-174 0 -312 135zM293 901q0 -127 55.5 -192.5t155.5 -65.5q95 0 168 70q58 57 88.5 145.5t30.5 185.5q0 159 -70 226q-57 57 -143 57q-90 0 -160 -70q-61 -61 -93 -157.5t-32 -198.5z" />
<glyph unicode=":" horiz-adv-x="425" d="M8 0l45 205h176l-43 -205h-178zM197 868l45 205h176l-43 -205h-178z" />
<glyph unicode=";" horiz-adv-x="425" d="M-86 -174q86 23 123 65t47 109h-76l45 205h176l-39 -180q-28 -124 -86 -184t-174 -85zM197 868l45 205h176l-43 -205h-178z" />
<glyph unicode="&#x3c;" horiz-adv-x="917" d="M123 657l27 127l776 383l-35 -166l-608 -288l479 -293l-29 -144z" />
<glyph unicode="=" horiz-adv-x="917" d="M84 465l31 139h719l-31 -139h-719zM166 838l31 139h718l-30 -139h-719z" />
<glyph unicode="&#x3e;" horiz-adv-x="917" d="M70 274l36 166l609 289l-482 293l31 143l610 -381l-28 -127z" />
<glyph unicode="?" horiz-adv-x="796" d="M135 0l45 205h174l-43 -205h-176zM182 1329q155 119 318 119q155 0 247.5 -91t92.5 -237q0 -173 -112.5 -290t-299.5 -160l-76 -273h-92l51 361l15 10q175 29 271.5 121t96.5 221q0 96 -57.5 150.5t-144.5 54.5q-113 0 -244 -98z" />
<glyph unicode="@" horiz-adv-x="1550" d="M82 375q0 160 39 318t114 294t175.5 241t232 165.5t275.5 60.5q182 0 315.5 -82.5t199.5 -221t66 -314.5q0 -177 -54 -336.5t-146 -257t-197 -97.5q-91 0 -139 56.5t-48 144.5q-136 -203 -290 -203q-97 0 -157 72t-60 197q0 142 56.5 286.5t155 242t207.5 97.5 q85 0 134.5 -52t68.5 -138l47 162l117 -25l-141 -514q-27 -86 -27 -139q0 -51 25.5 -80t74.5 -29q74 0 144.5 87t115 230.5t44.5 295.5q0 116 -33 215.5t-96 175t-163.5 119t-226.5 43.5q-132 0 -253.5 -59.5t-212.5 -161.5t-159.5 -231.5t-103.5 -274.5t-35 -287 q0 -147 43 -263.5t119.5 -190t177 -112t218.5 -38.5q172 0 352 94l30 -58q-195 -100 -382 -100q-135 0 -248 42.5t-197 124.5t-131 210t-47 291zM541 422q0 -81 34 -123.5t93 -42.5q72 0 146 75.5t120.5 187t46.5 214.5q0 86 -38.5 137.5t-106.5 51.5q-73 0 -143.5 -82.5 t-111 -198.5t-40.5 -219z" />
<glyph unicode="A" horiz-adv-x="1091" d="M-66 0l740 1442h147l115 -1442h-145l-27 375h-492l-190 -375h-148zM334 502h422l-51 733z" />
<glyph unicode="B" horiz-adv-x="1021" d="M23 0l311 1434h299q182 0 285.5 -86t103.5 -236q0 -156 -94.5 -255.5t-235.5 -133.5q104 -34 165 -108t61 -181q0 -138 -74 -238t-195.5 -148t-273.5 -48h-352zM195 131h194q180 0 282.5 80t102.5 227q0 102 -74 161.5t-204 59.5h-187zM338 786h160q174 0 277.5 88 t103.5 222q0 98 -65.5 152.5t-184.5 54.5h-180z" />
<glyph unicode="C" horiz-adv-x="968" d="M115 510q0 214 73.5 434.5t206.5 353.5q152 152 336 152q191 0 324 -172l-105 -96q-52 67 -104 100t-117 33q-120 0 -225 -105q-108 -108 -176 -306.5t-68 -389.5q0 -187 72 -291t198 -104q117 0 238 106l70 -112q-151 -129 -314 -129q-189 0 -299 137.5t-110 388.5z" />
<glyph unicode="D" horiz-adv-x="1097" d="M23 0l311 1434h219q237 0 371 -134q137 -134 137 -409q0 -180 -65 -375t-193 -323q-193 -193 -496 -193h-284zM197 131h137q212 0 364 152q105 105 161 276t56 324q0 222 -104 323q-97 97 -260 97h-100z" />
<glyph unicode="E" horiz-adv-x="905" d="M23 0l311 1434h690l-29 -134h-544l-113 -512h491l-28 -131h-492l-112 -524h555l-31 -133h-698z" />
<glyph unicode="F" horiz-adv-x="884" d="M23 0l311 1434h678l-29 -134h-532l-115 -530h477l-29 -133h-477l-139 -637h-145z" />
<glyph unicode="G" horiz-adv-x="1095" d="M115 528q0 205 73 409.5t209 340.5q172 172 387 172q205 0 338 -152l-100 -104q-42 52 -105 85.5t-141 33.5q-150 0 -276 -129q-112 -112 -175 -294.5t-63 -361.5q0 -193 85.5 -304t230.5 -111q105 0 176 49l102 467h-276l30 131h412l-152 -688q-153 -90 -307 -90 q-204 0 -326 148t-122 398z" />
<glyph unicode="H" horiz-adv-x="1101" d="M23 0l311 1434h145l-141 -648h536l140 648h145l-311 -1434h-146l144 655h-537l-141 -655h-145z" />
<glyph unicode="I" horiz-adv-x="446" d="M35 0l311 1434h146l-312 -1434h-145z" />
<glyph unicode="J" horiz-adv-x="737" d="M-55 158l104 84q65 -121 178 -121q71 0 123 49q47 47 76 170l236 1094h145l-246 -1125q-35 -158 -112 -235q-85 -88 -224 -88q-91 0 -165.5 43.5t-114.5 128.5z" />
<glyph unicode="K" horiz-adv-x="1021" d="M23 0l311 1434h145l-172 -793l686 793h172l-555 -639l269 -795h-158l-225 676l-240 -270l-88 -406h-145z" />
<glyph unicode="L" horiz-adv-x="821" d="M23 0l311 1434h145l-282 -1301h501l-30 -133h-645z" />
<glyph unicode="M" horiz-adv-x="1265" d="M23 0l311 1434h143l180 -758l506 758h160l-311 -1434h-140l246 1145l-516 -760h-6l-184 760l-250 -1145h-139z" />
<glyph unicode="N" horiz-adv-x="1128" d="M23 0l311 1434h135l338 -1121l244 1121h139l-311 -1434h-121l-346 1149l-250 -1149h-139z" />
<glyph unicode="O" horiz-adv-x="1153" d="M111 489q0 214 78 450t212 370q145 145 328 145q187 0 290 -138t103 -372q0 -213 -78.5 -449t-212.5 -370q-145 -145 -327 -145q-189 0 -291 137t-102 372zM256 494q0 -182 67 -282.5t191 -100.5q113 0 211 98q115 114 183.5 331.5t68.5 399.5t-67 282.5t-191 100.5 q-113 0 -211 -98q-115 -114 -183.5 -331.5t-68.5 -399.5z" />
<glyph unicode="P" horiz-adv-x="972" d="M23 0l311 1434h248q224 0 333 -109q101 -101 101 -270q0 -110 -38 -211.5t-114 -177.5q-158 -158 -440 -158h-148l-108 -508h-145zM305 637h127q210 0 328 115q110 113 110 299q0 117 -65 182q-70 70 -230 70h-124z" />
<glyph unicode="Q" horiz-adv-x="1157" d="M111 489q0 214 78 450t212 370q145 145 328 145q187 0 290 -138t103 -372q0 -195 -65 -410t-180 -356l112 -145l-102 -78l-99 133q-126 -108 -284 -108q-189 0 -291 137t-102 372zM256 494q0 -182 67 -282.5t191 -100.5q111 0 199 82l-146 194l101 80l127 -176 q84 127 133 312t49 337q0 182 -67 282.5t-191 100.5q-113 0 -211 -98q-115 -114 -183.5 -331.5t-68.5 -399.5z" />
<glyph unicode="R" horiz-adv-x="1032" d="M23 0l311 1434h287q212 0 323 -111q96 -92 96 -254q0 -217 -139 -356q-84 -87 -239 -129l190 -584h-154l-180 559q-23 -2 -63 -2h-166l-121 -557h-145zM315 686h164q209 0 316 107q102 102 102 268q0 107 -59 166q-73 73 -226 73h-161z" />
<glyph unicode="S" horiz-adv-x="892" d="M-12 203l102 98q69 -90 142 -137t169 -47q102 0 170 69t68 168q0 71 -42.5 144.5t-143.5 171.5q-132 134 -185 221.5t-53 187.5q0 74 27 142t75 116q113 113 277 113q214 0 362 -182l-104 -97q-113 146 -262 146q-103 0 -166.5 -66.5t-63.5 -158.5q0 -68 42.5 -137 t146.5 -171q123 -122 178 -216.5t55 -196.5q0 -172 -112 -281q-48 -48 -118 -77t-151 -29q-251 0 -413 219z" />
<glyph unicode="T" horiz-adv-x="849" d="M205 1300l28 134h771l-31 -134h-311l-283 -1300h-146l283 1300h-311z" />
<glyph unicode="U" horiz-adv-x="1091" d="M102 330q0 77 25 196l197 908h143l-203 -934q-18 -89 -18 -160q0 -106 62.5 -166.5t176.5 -60.5q115 0 195 80q87 90 127 268l211 973h143l-213 -988q-52 -229 -168 -342q-121 -124 -307 -124q-174 0 -272.5 94t-98.5 256z" />
<glyph unicode="V" horiz-adv-x="1032" d="M236 1434h145l61 -1201l582 1201h156l-717 -1442h-137z" />
<glyph unicode="W" horiz-adv-x="1589" d="M244 1434h147l2 -1166l525 1168h129l16 -1168l510 1166h153l-649 -1442h-135l-18 1147l-521 -1147h-135z" />
<glyph unicode="X" horiz-adv-x="989" d="M-63 0l518 752l-201 682h152l155 -562l385 562h164l-492 -703l216 -731h-152l-172 608l-412 -608h-161z" />
<glyph unicode="Y" horiz-adv-x="958" d="M203 1434h151l164 -684l461 684h166l-588 -850l-125 -584h-145l129 596z" />
<glyph unicode="Z" horiz-adv-x="921" d="M-39 0l19 100l854 1207h-580l29 127h751l-18 -101l-856 -1206h608l-29 -127h-778z" />
<glyph unicode="[" horiz-adv-x="665" d="M8 -266l369 1700h411l-24 -107h-283l-321 -1487h280l-22 -106h-410z" />
<glyph unicode="\" horiz-adv-x="729" d="M231 1595h113l240 -1818h-115z" />
<glyph unicode="]" horiz-adv-x="665" d="M-104 -266l24 106h283l321 1487h-280l22 107h410l-369 -1700h-411z" />
<glyph unicode="^" horiz-adv-x="829" d="M256 1053l285 366h112l127 -366h-104l-94 256l-205 -256h-121z" />
<glyph unicode="_" horiz-adv-x="1034" d="M-190 -324l24 113h1040l-24 -113h-1040z" />
<glyph unicode="`" horiz-adv-x="1024" d="M528 1399l131 69l136 -276h-95z" />
<glyph unicode="a" horiz-adv-x="854" d="M10 260q0 87 31 170.5t88 140.5q99 99 254 99q115 0 242 -54l8 37q18 95 18 138q0 80 -50 125t-146 45q-105 0 -207 -48l-31 119q128 55 256 55q150 0 231.5 -72.5t81.5 -201.5q0 -68 -22 -178l-137 -635h-135l30 145q-113 -165 -270 -165q-108 0 -175 74t-67 206z M147 276q0 -87 42 -135.5t116 -48.5q95 0 168 77t98 196l33 147q-100 49 -207 49q-104 0 -166 -65q-39 -39 -61.5 -99.5t-22.5 -120.5z" />
<glyph unicode="b" horiz-adv-x="950" d="M6 0l318 1462h137l-121 -559q130 191 289 191q121 0 191.5 -101t70.5 -282q0 -175 -59 -350.5t-164 -280.5q-98 -98 -224 -98q-100 0 -163.5 63.5t-90.5 165.5l-47 -211h-137zM240 381q0 -127 52.5 -201t135.5 -74q79 0 145 66q80 80 129.5 229.5t49.5 290.5 q0 132 -44.5 205.5t-129.5 73.5q-84 0 -162 -78q-78 -76 -127 -226t-49 -286z" />
<glyph unicode="c" horiz-adv-x="751" d="M55 379q0 162 58.5 327.5t160.5 266.5q119 119 263 119q156 0 258 -134l-93 -94q-39 49 -77.5 75t-92.5 26q-84 0 -159 -78q-82 -82 -131 -225.5t-49 -270.5q0 -141 54 -210.5t138 -69.5q82 0 168 67l61 -104q-109 -92 -239 -92q-144 0 -232 101.5t-88 295.5z" />
<glyph unicode="d" horiz-adv-x="950" d="M61 365q0 175 59.5 350t164.5 280q99 99 223 99q100 0 164.5 -64t91.5 -166l129 598h137l-317 -1462h-138l39 172q-132 -190 -288 -190q-123 0 -194 101t-71 282zM201 383q0 -133 45 -206t131 -73q82 0 160 78q78 76 127 226t49 286q0 127 -52 201t-137 74 q-76 0 -145 -66q-80 -80 -129 -229.5t-49 -290.5z" />
<glyph unicode="e" horiz-adv-x="864" d="M55 393q0 165 60 325.5t159 258.5q114 117 254 117q132 0 207.5 -95.5t75.5 -261.5q0 -104 -37 -256h-579q-5 -36 -5 -84q0 -139 60.5 -215t161.5 -76q107 0 217 82l49 -110q-143 -96 -279 -96q-157 0 -250.5 106.5t-93.5 304.5zM215 592h447q18 63 18 149 q0 105 -40.5 167.5t-119.5 62.5q-78 0 -151 -70q-106 -106 -154 -309z" />
<glyph unicode="f" horiz-adv-x="546" d="M49 0l207 954h-113l29 121h111l26 115q29 141 92 201q72 75 189 75q75 0 135 -26l-29 -121q-55 22 -98 22q-63 0 -99 -39t-55 -124l-24 -103h219l-27 -121h-217l-207 -954h-139z" />
<glyph unicode="g" horiz-adv-x="948" d="M-37 -195l57 117q63 -41 143.5 -65.5t151.5 -24.5q117 0 193 76q56 56 88 188l33 156q-131 -186 -291 -186q-121 0 -192.5 97t-71.5 273q0 142 53.5 299t148.5 252q107 107 232 107q100 0 163 -63.5t91 -162.5l45 207h137l-213 -989q-22 -95 -51 -157t-74 -107 q-57 -57 -127.5 -85t-169.5 -28q-81 0 -175.5 25.5t-170.5 70.5zM211 444q0 -123 47.5 -188.5t126.5 -65.5q97 0 172 78q62 61 109 182t47 255q0 121 -51 192.5t-136 71.5q-81 0 -155 -74q-71 -72 -115.5 -203t-44.5 -248z" />
<glyph unicode="h" d="M6 0l318 1462h137l-119 -544q127 176 281 176q106 0 168.5 -66t62.5 -184q0 -78 -20 -168l-146 -676h-137l145 670q17 80 17 143q0 76 -40 117t-112 41q-91 0 -166 -79.5t-100 -195.5l-152 -696h-137z" />
<glyph unicode="i" horiz-adv-x="403" d="M16 0l234 1075h137l-233 -1075h-138zM291 1282l37 172h147l-37 -172h-147z" />
<glyph unicode="j" horiz-adv-x="411" d="M-211 -276l27 116q33 -10 69 -10q56 0 87.5 40.5t50.5 119.5l235 1085h137l-243 -1118q-52 -248 -256 -248q-53 0 -107 15zM297 1282l37 172h149l-37 -172h-149z" />
<glyph unicode="k" horiz-adv-x="825" d="M6 0l318 1462h137l-203 -936l475 549h164l-391 -444l168 -631h-146l-137 518l-178 -201l-70 -317h-137z" />
<glyph unicode="l" horiz-adv-x="403" d="M16 0l318 1462h137l-317 -1462h-138z" />
<glyph unicode="m" horiz-adv-x="1427" d="M6 0l234 1075h137l-35 -157q124 176 270 176q89 0 145 -52.5t70 -142.5q126 195 310 195q105 0 167 -66t62 -184q0 -65 -20 -168l-148 -676h-137l145 670q19 90 19 143q0 76 -38.5 117t-105.5 41q-84 0 -158.5 -76.5t-99.5 -187.5l-151 -707h-137l143 670q18 85 18 143 q0 76 -38 117t-105 41q-87 0 -159 -79t-99 -196l-152 -696h-137z" />
<glyph unicode="n" d="M6 0l234 1075h137l-35 -157q127 176 281 176q106 0 168.5 -66t62.5 -184q0 -78 -20 -168l-146 -676h-137l145 670q17 80 17 143q0 76 -40 117t-112 41q-91 0 -166 -79.5t-100 -195.5l-152 -696h-137z" />
<glyph unicode="o" d="M59 387q0 168 55.5 329.5t153.5 260.5q117 117 269 117q148 0 233.5 -109.5t85.5 -298.5q0 -167 -56 -329t-153 -259q-118 -118 -268 -118q-148 0 -234 109t-86 298zM195 391q0 -138 50.5 -212.5t139.5 -74.5q87 0 162 78q79 77 125.5 219.5t46.5 282.5q0 137 -50 211 t-139 74q-85 0 -161 -76q-79 -79 -126.5 -222t-47.5 -280z" />
<glyph unicode="p" horiz-adv-x="950" d="M-55 -287l295 1362h137l-37 -172q130 191 289 191q121 0 191.5 -101t70.5 -282q0 -175 -59 -350.5t-164 -280.5q-98 -98 -224 -98q-100 0 -163.5 63.5t-90.5 165.5l-108 -498h-137zM240 381q0 -127 52.5 -201t135.5 -74q79 0 145 66q80 80 129.5 229.5t49.5 290.5 q0 132 -44.5 205.5t-129.5 73.5q-84 0 -162 -78q-78 -76 -127 -226t-49 -286z" />
<glyph unicode="q" horiz-adv-x="950" d="M61 365q0 175 59.5 350t164.5 280q99 99 223 99q100 0 164.5 -64t91.5 -166l45 211h137l-295 -1362h-137l100 459q-132 -190 -288 -190q-123 0 -194 101t-71 282zM201 383q0 -133 45 -206t131 -73q82 0 160 78q78 76 127 226t49 286q0 127 -52 201t-137 74 q-76 0 -145 -66q-80 -80 -129 -229.5t-49 -290.5z" />
<glyph unicode="r" horiz-adv-x="591" d="M6 0l234 1075h137l-41 -192q66 103 146 157q71 48 164 48q12 0 24 -1l-35 -151h-8q-128 0 -221.5 -85t-129.5 -247l-133 -604h-137z" />
<glyph unicode="s" horiz-adv-x="706" d="M-43 156l84 96q68 -76 127 -112t125 -36q71 0 119.5 46t48.5 122q0 50 -31 99.5t-111 120.5q-108 95 -152 163t-44 152q0 118 81.5 201.5t215.5 83.5q166 0 305 -146l-84 -98q-113 123 -219 123q-72 0 -118 -44t-46 -110q0 -49 30.5 -97t117.5 -124q107 -97 149.5 -169 t42.5 -151q0 -125 -87 -208.5t-220 -83.5q-186 0 -334 172z" />
<glyph unicode="t" horiz-adv-x="579" d="M88 156q0 54 14 108l150 690h-111l27 121h111l65 303h137l-65 -303h213l-27 -121h-213l-149 -694q-11 -46 -11 -70q0 -77 99 -77q41 0 98 22l-27 -121q-54 -26 -123 -26q-86 0 -137 43t-51 125z" />
<glyph unicode="u" d="M63 231q0 70 19 168l147 676h138l-146 -667q-16 -78 -16 -146q0 -76 39 -117t110 -41q91 0 167.5 79.5t101.5 195.5l149 696h139l-233 -1075h-137l32 158q-123 -176 -278 -176q-106 0 -169 66t-63 183z" />
<glyph unicode="v" horiz-adv-x="851" d="M156 1075h139l47 -874l428 874h145l-550 -1081h-127z" />
<glyph unicode="w" horiz-adv-x="1284" d="M168 1075h137l6 -848l381 848h117l10 -848l375 848h141l-497 -1081h-127l-15 829l-377 -829h-126z" />
<glyph unicode="x" horiz-adv-x="839" d="M-59 0l407 557l-158 518h142l112 -407l291 407h154l-389 -524l170 -551h-144l-125 438l-309 -438h-151z" />
<glyph unicode="y" horiz-adv-x="854" d="M-84 -236l51 113q54 -43 109 -43q44 0 81.5 36t88.5 132l-90 1073h139l57 -866l418 866h145l-538 -1085q-77 -157 -145 -220t-156 -63q-92 0 -160 57z" />
<glyph unicode="z" horiz-adv-x="741" d="M-49 0l18 96l631 860h-440l26 119h602l-16 -96l-633 -860h457l-27 -119h-618z" />
<glyph unicode="{" horiz-adv-x="718" d="M70 539l24 104h33q138 0 207 72q48 48 64 116.5t8 178.5q-7 115 10 196t86 150q108 108 329 108v-100q-158 -8 -229 -76q-37 -38 -53.5 -87t-15.5 -101.5t4 -118.5q16 -205 -86 -307q-66 -66 -191 -90q160 -52 160 -185q0 -62 -55 -186q-2 -4 -13 -30t-14 -33.5l-12 -30 t-12.5 -33.5t-8.5 -29t-6.5 -32.5t-1.5 -28.5q0 -67 46 -112t151 -72l-31 -97q-297 57 -297 275q0 33 10.5 73.5t22.5 70t39 93.5q51 115 51 170q0 61 -46.5 101.5t-146.5 40.5h-26z" />
<glyph unicode="|" horiz-adv-x="518" d="M37 -223l395 1818h115l-397 -1818h-113z" />
<glyph unicode="}" horiz-adv-x="718" d="M-90 -184q159 8 229 75q37 38 53.5 87.5t16 102t-3.5 118.5q-16 205 86 307q66 66 190 90q-159 52 -159 184q0 63 55 187q1 3 10 23.5t11 25.5t9.5 23.5t10 26t8.5 23.5t8 25.5t5 22.5t4 24.5t1 22.5q0 67 -45.5 112t-150.5 72l31 96q296 -56 296 -274q0 -48 -16.5 -98.5 t-54.5 -139.5q-51 -115 -51 -170q0 -61 46 -101t146 -40h27l-25 -104h-33q-137 0 -206 -72q-48 -48 -64 -116.5t-8 -178.5q7 -115 -10 -196t-86 -150q-109 -109 -330 -109v101z" />
<glyph unicode="~" horiz-adv-x="759" d="M117 537q37 97 80.5 143.5t99.5 46.5q36 0 61 -14t58 -45q30 -30 45.5 -41t34.5 -11q47 0 96 107l84 -31q-37 -96 -81 -142t-101 -46q-35 0 -60 13.5t-57 43.5q-23 22 -32 30t-22 14.5t-26 6.5q-46 0 -94 -106z" />
<glyph unicode="&#xa1;" horiz-adv-x="462" d="M31 0l24 115l248 921h76l-156 -921l-24 -115h-168zM297 1229l43 205h172l-41 -205h-174z" />
<glyph unicode="&#xa2;" horiz-adv-x="798" d="M104 569q0 162 55.5 327t153.5 263q114 114 269 117l45 166h108l-49 -180q100 -24 188 -127l-96 -97q-63 79 -129 99l-221 -842h27q92 0 182 67l53 -106q-115 -90 -250 -90q-31 0 -45 2l-45 -178h-108l57 203q-93 40 -144 136.5t-51 239.5zM246 578q0 -184 92 -248 l211 815q-74 -12 -133 -74q-79 -79 -124.5 -220.5t-45.5 -272.5z" />
<glyph unicode="&#xa3;" horiz-adv-x="897" d="M-29 0l19 82l133 41l108 506h-129l29 127h127l64 293q24 109 56.5 180t84.5 121q97 100 246 100q192 0 297 -162l-109 -86q-71 115 -190 115q-86 0 -146 -60q-66 -69 -98 -227l-60 -274h361l-29 -127h-360l-109 -500h488l-27 -129h-756z" />
<glyph unicode="&#xa5;" horiz-adv-x="978" d="M82 254l24 113h273l39 182h-273l27 110h240l-191 775h148l155 -701l461 701h164l-533 -775h240l-25 -110h-276l-39 -182h277l-25 -113h-276l-54 -254h-139l55 254h-272z" />
<glyph unicode="&#xa7;" horiz-adv-x="950" d="M76 104l74 105q121 -105 253 -105q76 0 123 38.5t47 97.5q0 53 -40.5 94t-149.5 102q-145 82 -209.5 148t-64.5 151q0 114 86.5 185t226.5 79q-100 82 -100 191q0 106 84 184t225 78q183 0 323 -123l-73 -104q-120 104 -252 104q-76 0 -124 -37.5t-48 -97.5 q0 -53 41 -94.5t151 -102.5q146 -82 209.5 -147t63.5 -150q0 -115 -86.5 -186t-225.5 -80q101 -86 101 -190q0 -106 -84.5 -184t-225.5 -78q-182 0 -325 122zM250 752q0 -51 32.5 -89.5t100.5 -82.5q96 -58 190 -58q88 0 148.5 43t60.5 117q0 51 -32.5 89.5t-100.5 82.5 q-94 57 -190 57q-89 0 -149 -42.5t-60 -116.5z" />
<glyph unicode="&#xa8;" horiz-adv-x="1024" d="M444 1204l37 168h146l-37 -168h-146zM713 1204l37 168h145l-37 -168h-145z" />
<glyph unicode="&#xa9;" horiz-adv-x="1294" d="M96 565q0 199 65 393.5t195 323.5q177 174 412 174q156 0 272 -77t175 -209.5t59 -301.5q0 -199 -65 -393t-195 -323q-178 -175 -412 -175q-156 0 -272 77t-175 209.5t-59 301.5zM160 565q0 -110 29 -205.5t84 -167.5t141 -113.5t192 -41.5q210 0 363 153 q122 123 181.5 309t59.5 369q0 148 -49.5 266t-152 190.5t-244.5 72.5q-209 0 -363 -154q-122 -123 -181.5 -309t-59.5 -369zM418 602q0 120 43.5 243.5t118.5 198.5q78 78 182 78q105 0 176 -90l-70 -71q-51 67 -112 67q-60 0 -107 -47q-57 -57 -93 -161.5t-36 -209.5 q0 -94 34.5 -145t98.5 -51q54 0 121 51l39 -80q-85 -66 -168 -66q-105 0 -166 75t-61 208z" />
<glyph unicode="&#xaa;" horiz-adv-x="614" d="M106 629l17 78h412l-19 -78h-410zM186 977q0 93 55.5 162t149.5 69q65 0 133 -28l6 24q9 52 9 62q0 40 -27.5 63t-81.5 23q-53 0 -117 -27l-22 82q85 33 151 33q90 0 139.5 -43t49.5 -117q0 -25 -10 -90l-78 -350h-90l16 73q-71 -86 -150 -86q-59 0 -96 41t-37 109z M281 987q0 -41 19 -62.5t52 -21.5q49 0 91.5 43.5t54.5 104.5l12 59q-52 25 -109 25q-59 0 -89.5 -44.5t-30.5 -103.5z" />
<glyph unicode="&#xab;" horiz-adv-x="888" d="M70 520l4 17l381 434l84 -70l-318 -387l154 -381l-109 -47zM414 520l2 17l385 434l86 -70l-320 -387l150 -381l-111 -47z" />
<glyph unicode="&#xad;" horiz-adv-x="675" d="M100 545l31 139h475l-31 -139h-475z" />
<glyph unicode="&#xae;" horiz-adv-x="704" d="M172 1018q0 97 33.5 192.5t97.5 161.5q95 92 215 92q119 0 187.5 -81.5t68.5 -206.5q0 -98 -33 -194t-98 -161q-87 -90 -213 -90q-119 0 -188.5 82t-69.5 205zM215 1020q0 -105 57 -177.5t162 -72.5q102 0 178 76q59 61 90 151.5t31 176.5q0 106 -57 177.5t-162 71.5 q-103 0 -180 -77q-58 -58 -88.5 -149t-30.5 -177zM328 911l80 383h73q137 0 137 -110q0 -44 -24.5 -77t-69.5 -46l49 -150h-59l-43 140h-55l-29 -140h-59zM426 1102h37q57 0 76 22q22 19 22 58q0 59 -76 59h-30z" />
<glyph unicode="&#xaf;" horiz-adv-x="1024" d="M422 1219l24 108h476l-23 -108h-477z" />
<glyph unicode="&#xb0;" horiz-adv-x="624" d="M172 1053q0 91 32 175.5t87 141.5q78 78 178 78q93 0 151 -68.5t58 -177.5q0 -93 -31.5 -177.5t-87.5 -139.5q-78 -78 -178 -78q-93 0 -151 68t-58 178zM274 1059q0 -73 31 -114.5t88 -41.5q48 0 96 45q39 41 64 110.5t25 137.5q0 72 -31 113t-88 41q-49 0 -94 -41 q-42 -43 -66.5 -112t-24.5 -138z" />
<glyph unicode="&#xb1;" horiz-adv-x="917" d="M-4 94l29 129h733l-29 -129h-733zM123 690l31 131h299l67 305h131l-67 -305h303l-27 -131h-303l-65 -305h-132l68 305h-305z" />
<glyph unicode="&#xb2;" horiz-adv-x="614" d="M172 922l18 77l312 291q65 63 90.5 105t25.5 86t-31 72t-81 28q-71 0 -158 -74l-51 72q105 94 219 94q90 0 147.5 -52t57.5 -132q0 -60 -31.5 -115.5t-114.5 -132.5l-245 -225h311l-20 -94h-449z" />
<glyph unicode="&#xb3;" horiz-adv-x="614" d="M186 1026l66 66q68 -93 168 -93q65 0 102 41.5t37 102.5t-46.5 93t-133.5 34h-10v63l247 238h-288l20 92h418l-16 -76l-267 -250q81 -15 128.5 -65t47.5 -127q0 -103 -67.5 -169.5t-173.5 -66.5q-79 0 -138 33.5t-94 83.5z" />
<glyph unicode="&#xb4;" horiz-adv-x="1024" d="M494 1192l219 276l131 -69l-238 -207h-112z" />
<glyph unicode="&#xb6;" horiz-adv-x="817" d="M139 895q0 112 38 212.5t112 174.5q152 152 426 152h157l-311 -1434h-143l108 510q-192 20 -284 115q-103 103 -103 270z" />
<glyph unicode="&#xb7;" horiz-adv-x="417" d="M113 512l45 209h178l-45 -209h-178z" />
<glyph unicode="&#xb8;" horiz-adv-x="1024" d="M195 -203l194 228h103l-175 -285z" />
<glyph unicode="&#xb9;" horiz-adv-x="499" d="M297 1485l10 100l193 82h82l-162 -745h-101l138 630z" />
<glyph unicode="&#xba;" horiz-adv-x="616" d="M115 629l16 78h416l-19 -78h-413zM201 1055q0 86 29.5 174t86.5 145q67 70 156 70q87 0 138 -61.5t51 -168.5q0 -88 -30 -175.5t-87 -143.5q-70 -70 -156 -70q-87 0 -137.5 61t-50.5 169zM295 1053q0 -64 26 -103t72 -39q48 0 84 39q41 41 65.5 118t24.5 149 q0 64 -26 102.5t-74 38.5q-46 0 -82 -39q-42 -41 -66 -117t-24 -149z" />
<glyph unicode="&#xbb;" horiz-adv-x="888" d="M-4 154l319 387l-149 381l110 47l193 -434l-2 -17l-385 -434zM344 154l318 387l-154 381l108 47l197 -434l-4 -17l-381 -434z" />
<glyph unicode="&#xbc;" horiz-adv-x="1269" d="M47 0l535 735l495 701h101l-535 -738l-496 -698h-100zM211 1257l10 99l193 84h82l-162 -746h-101l138 631zM592 156l10 84l393 505h125l-108 -505h82l-19 -84h-82l-35 -158h-90l33 158h-309zM702 238h220l82 383h-9z" />
<glyph unicode="&#xbd;" horiz-adv-x="1269" d="M8 0l535 735l495 701h101l-535 -738l-495 -698h-101zM211 1257l10 99l193 84h82l-162 -746h-101l138 631zM575 0l19 78l311 291q66 64 91.5 105t25.5 85t-31.5 72t-81.5 28q-71 0 -157 -73l-52 71q106 95 220 95q90 0 147 -52.5t57 -132.5q0 -60 -31 -116t-114 -132 l-246 -225h311l-20 -94h-449z" />
<glyph unicode="&#xbe;" horiz-adv-x="1382" d="M98 797l66 65q69 -90 168 -90q64 0 101.5 41t37.5 100q0 61 -46.5 94t-133.5 35h-10v62l247 237h-288l20 95h418l-16 -78l-267 -248q82 -18 129 -67.5t47 -124.5q0 -103 -68 -170.5t-175 -67.5q-77 0 -136 34t-94 83zM162 0l534 735l496 701h100l-534 -738l-496 -698 h-100zM713 156l10 84l393 505h125l-108 -505h81l-18 -84h-82l-35 -158h-90l33 158h-309zM823 238h219l82 383h-8z" />
<glyph unicode="&#xbf;" horiz-adv-x="796" d="M35 313q0 173 112.5 290.5t298.5 160.5l76 272h92l-51 -360l-14 -10q-175 -29 -272 -121t-97 -221q0 -96 58 -150.5t145 -54.5q113 0 244 98l65 -113q-154 -118 -317 -118q-155 0 -247.5 90.5t-92.5 236.5zM520 1229l43 205h176l-45 -205h-174z" />
<glyph unicode="&#xc0;" horiz-adv-x="1091" d="M-66 0l740 1442h147l115 -1442h-145l-27 375h-492l-190 -375h-148zM334 502h422l-51 733zM537 1718l133 66l149 -240h-102z" />
<glyph unicode="&#xc1;" horiz-adv-x="1091" d="M-66 0l740 1442h147l115 -1442h-145l-27 375h-492l-190 -375h-148zM334 502h422l-51 733zM700 1544l215 240l136 -68l-232 -172h-119z" />
<glyph unicode="&#xc2;" horiz-adv-x="1091" d="M-66 0l740 1442h147l115 -1442h-145l-27 375h-492l-190 -375h-148zM334 502h422l-51 733zM528 1548l224 224h127l127 -224h-117l-94 117l-142 -117h-125z" />
<glyph unicode="&#xc3;" horiz-adv-x="1091" d="M-66 0l740 1442h147l115 -1442h-145l-27 375h-492l-190 -375h-148zM334 502h422l-51 733zM512 1569q42 91 80.5 131.5t93.5 40.5q49 0 119 -41q60 -37 88 -37q27 0 46.5 18.5t45.5 63.5l88 -27q-40 -92 -79 -132t-95 -40q-49 0 -119 41q-60 37 -88 37q-27 0 -45.5 -18.5 t-44.5 -63.5z" />
<glyph unicode="&#xc4;" horiz-adv-x="1091" d="M-66 0l740 1442h147l115 -1442h-145l-27 375h-492l-190 -375h-148zM334 502h422l-51 733zM553 1554l35 166h155l-34 -166h-156zM844 1554l35 166h153l-35 -166h-153z" />
<glyph unicode="&#xc5;" horiz-adv-x="1091" d="M-66 0l703 1370q-66 47 -66 127t60.5 135.5t146.5 55.5q75 0 123.5 -45t48.5 -111q0 -59 -33 -105.5t-88 -68.5l107 -1358h-145l-27 375h-492l-190 -375h-148zM334 502h422l-51 733zM651 1503q0 -40 27.5 -67t71.5 -27q53 0 86.5 34t33.5 81q0 42 -26 68t-72 26 q-52 0 -86.5 -34t-34.5 -81z" />
<glyph unicode="&#xc6;" horiz-adv-x="1454" d="M-92 0l864 1434h801l-31 -134h-534l-113 -512h481l-28 -131h-482l-112 -524h544l-30 -133h-686l80 375h-379l-224 -375h-151zM358 502h332l174 798h-30z" />
<glyph unicode="&#xc7;" horiz-adv-x="968" d="M115 510q0 214 73.5 434.5t206.5 353.5q152 152 336 152q191 0 324 -172l-105 -96q-52 67 -104 100t-117 33q-120 0 -225 -105q-108 -108 -176 -306.5t-68 -389.5q0 -187 72 -291t198 -104q117 0 238 106l70 -112q-151 -129 -314 -129h-24l-150 -244l-123 57l174 203 q-136 40 -211 171t-75 339z" />
<glyph unicode="&#xc8;" horiz-adv-x="905" d="M23 0l311 1434h690l-29 -134h-544l-113 -512h491l-28 -131h-492l-112 -524h555l-31 -133h-698zM451 1704l133 65l149 -239h-102z" />
<glyph unicode="&#xc9;" horiz-adv-x="905" d="M23 0l311 1434h690l-29 -134h-544l-113 -512h491l-28 -131h-492l-112 -524h555l-31 -133h-698zM614 1530l215 239l136 -67l-232 -172h-119z" />
<glyph unicode="&#xca;" horiz-adv-x="905" d="M23 0l311 1434h690l-29 -134h-544l-113 -512h491l-28 -131h-492l-112 -524h555l-31 -133h-698zM446 1534l224 223h127l127 -223h-117l-94 117l-142 -117h-125z" />
<glyph unicode="&#xcb;" horiz-adv-x="905" d="M23 0l311 1434h690l-29 -134h-544l-113 -512h491l-28 -131h-492l-112 -524h555l-31 -133h-698zM469 1540l35 166h155l-34 -166h-156zM760 1540l35 166h153l-35 -166h-153z" />
<glyph unicode="&#xcc;" horiz-adv-x="446" d="M35 0l311 1434h146l-312 -1434h-145zM203 1704l133 65l149 -239h-102z" />
<glyph unicode="&#xcd;" horiz-adv-x="446" d="M35 0l311 1434h146l-312 -1434h-145zM369 1530l215 239l135 -67l-232 -172h-118z" />
<glyph unicode="&#xce;" horiz-adv-x="446" d="M35 0l311 1434h146l-312 -1434h-145zM197 1534l223 223h127l127 -223h-117l-94 117l-141 -117h-125z" />
<glyph unicode="&#xcf;" horiz-adv-x="446" d="M35 0l311 1434h146l-312 -1434h-145zM221 1540l35 166h156l-35 -166h-156zM512 1540l35 166h153l-34 -166h-154z" />
<glyph unicode="&#xd0;" horiz-adv-x="1126" d="M53 0l142 655h-121l28 131h121l142 648h217q238 0 372 -134q136 -136 136 -409q0 -180 -65 -374.5t-194 -323.5q-193 -193 -495 -193h-283zM225 131h140q210 0 362 152q105 105 162 276t57 324q0 219 -104 323q-97 97 -260 97h-101l-112 -517h256l-29 -131h-256z" />
<glyph unicode="&#xd1;" horiz-adv-x="1128" d="M23 0l311 1434h135l338 -1121l244 1121h139l-311 -1434h-121l-346 1149l-250 -1149h-139zM516 1544q42 91 80.5 131.5t93.5 40.5q49 0 119 -41q60 -37 88 -37q27 0 46.5 18.5t45.5 63.5l88 -26q-40 -92 -79 -132t-95 -40q-49 0 -119 41q-58 36 -88 36q-28 0 -46.5 -18 t-43.5 -63z" />
<glyph unicode="&#xd2;" horiz-adv-x="1153" d="M111 489q0 214 78 450t212 370q145 145 328 145q187 0 290 -138t103 -372q0 -213 -78.5 -449t-212.5 -370q-145 -145 -327 -145q-189 0 -291 137t-102 372zM256 494q0 -182 67 -282.5t191 -100.5q113 0 211 98q115 114 183.5 331.5t68.5 399.5t-67 282.5t-191 100.5 q-113 0 -211 -98q-115 -114 -183.5 -331.5t-68.5 -399.5zM545 1718l133 66l149 -240h-102z" />
<glyph unicode="&#xd3;" horiz-adv-x="1153" d="M111 489q0 214 78 450t212 370q145 145 328 145q187 0 290 -138t103 -372q0 -213 -78.5 -449t-212.5 -370q-145 -145 -327 -145q-189 0 -291 137t-102 372zM256 494q0 -182 67 -282.5t191 -100.5q113 0 211 98q115 114 183.5 331.5t68.5 399.5t-67 282.5t-191 100.5 q-113 0 -211 -98q-115 -114 -183.5 -331.5t-68.5 -399.5zM709 1544l215 240l135 -68l-232 -172h-118z" />
<glyph unicode="&#xd4;" horiz-adv-x="1153" d="M111 489q0 214 78 450t212 370q145 145 328 145q187 0 290 -138t103 -372q0 -213 -78.5 -449t-212.5 -370q-145 -145 -327 -145q-189 0 -291 137t-102 372zM256 494q0 -182 67 -282.5t191 -100.5q113 0 211 98q115 114 183.5 331.5t68.5 399.5t-67 282.5t-191 100.5 q-113 0 -211 -98q-115 -114 -183.5 -331.5t-68.5 -399.5zM537 1548l223 224h127l127 -224h-117l-94 117l-141 -117h-125z" />
<glyph unicode="&#xd5;" horiz-adv-x="1153" d="M111 489q0 214 78 450t212 370q145 145 328 145q187 0 290 -138t103 -372q0 -213 -78.5 -449t-212.5 -370q-145 -145 -327 -145q-189 0 -291 137t-102 372zM256 494q0 -182 67 -282.5t191 -100.5q113 0 211 98q115 114 183.5 331.5t68.5 399.5t-67 282.5t-191 100.5 q-113 0 -211 -98q-115 -114 -183.5 -331.5t-68.5 -399.5zM520 1569q42 91 80.5 131.5t93.5 40.5q49 0 119 -41q60 -37 88 -37q27 0 46.5 18.5t45.5 63.5l88 -27q-40 -92 -79 -132t-95 -40q-49 0 -119 41q-60 37 -88 37q-27 0 -45.5 -18.5t-44.5 -63.5z" />
<glyph unicode="&#xd6;" horiz-adv-x="1153" d="M111 489q0 214 78 450t212 370q145 145 328 145q187 0 290 -138t103 -372q0 -213 -78.5 -449t-212.5 -370q-145 -145 -327 -145q-189 0 -291 137t-102 372zM256 494q0 -182 67 -282.5t191 -100.5q113 0 211 98q115 114 183.5 331.5t68.5 399.5t-67 282.5t-191 100.5 q-113 0 -211 -98q-115 -114 -183.5 -331.5t-68.5 -399.5zM559 1554l35 166h156l-35 -166h-156zM850 1554l35 166h153l-34 -166h-154z" />
<glyph unicode="&#xd7;" horiz-adv-x="917" d="M96 459l316 270l-191 264l107 80l184 -260l309 264l82 -92l-315 -272l190 -262l-104 -82l-187 260l-307 -264z" />
<glyph unicode="&#xd8;" horiz-adv-x="1153" d="M-35 -12l191 229q-45 110 -45 272q0 214 78 450t212 370q145 145 328 145q190 0 293 -143l113 135h133l-191 -234q45 -118 45 -268q0 -213 -78.5 -449t-212.5 -370q-145 -145 -327 -145q-191 0 -293 139l-113 -131h-133zM254 494q0 -84 12 -148l662 848q-69 129 -209 129 q-118 0 -213 -98q-115 -114 -183.5 -331.5t-68.5 -399.5zM307 233q66 -122 207 -122q115 0 213 98q115 114 183.5 331.5t68.5 399.5q0 76 -12 141z" />
<glyph unicode="&#xd9;" horiz-adv-x="1091" d="M102 330q0 77 25 196l197 908h143l-203 -934q-18 -89 -18 -160q0 -106 62.5 -166.5t176.5 -60.5q115 0 195 80q87 90 127 268l211 973h143l-213 -988q-52 -229 -168 -342q-121 -124 -307 -124q-174 0 -272.5 94t-98.5 256zM510 1694l133 65l150 -239h-103z" />
<glyph unicode="&#xda;" horiz-adv-x="1091" d="M102 330q0 77 25 196l197 908h143l-203 -934q-18 -89 -18 -160q0 -106 62.5 -166.5t176.5 -60.5q115 0 195 80q87 90 127 268l211 973h143l-213 -988q-52 -229 -168 -342q-121 -124 -307 -124q-174 0 -272.5 94t-98.5 256zM674 1520l215 239l135 -67l-231 -172h-119z" />
<glyph unicode="&#xdb;" horiz-adv-x="1091" d="M102 330q0 77 25 196l197 908h143l-203 -934q-18 -89 -18 -160q0 -106 62.5 -166.5t176.5 -60.5q115 0 195 80q87 90 127 268l211 973h143l-213 -988q-52 -229 -168 -342q-121 -124 -307 -124q-174 0 -272.5 94t-98.5 256zM502 1524l223 223h127l127 -223h-117l-94 116 l-141 -116h-125z" />
<glyph unicode="&#xdc;" horiz-adv-x="1091" d="M102 330q0 77 25 196l197 908h143l-203 -934q-18 -89 -18 -160q0 -106 62.5 -166.5t176.5 -60.5q115 0 195 80q87 90 127 268l211 973h143l-213 -988q-52 -229 -168 -342q-121 -124 -307 -124q-174 0 -272.5 94t-98.5 256zM524 1530l35 166h156l-35 -166h-156zM815 1530 l35 166h154l-35 -166h-154z" />
<glyph unicode="&#xdd;" horiz-adv-x="958" d="M203 1434h151l164 -684l461 684h166l-588 -850l-125 -584h-145l129 596zM600 1520l215 239l135 -67l-231 -172h-119z" />
<glyph unicode="&#xde;" horiz-adv-x="972" d="M23 0l311 1434h145l-53 -240h104q225 0 334 -109q101 -101 101 -272q0 -107 -38.5 -209t-113.5 -178q-160 -160 -442 -160h-146l-57 -266h-145zM254 397h127q214 0 326 115q110 107 110 299q0 117 -63 180q-70 70 -230 70h-125z" />
<glyph unicode="&#xdf;" horiz-adv-x="921" d="M6 0l234 1075q43 194 139 295q103 100 244 100q136 0 220.5 -86t84.5 -223q0 -146 -85.5 -258.5t-236.5 -161.5q219 -105 219 -317q0 -71 -20 -135.5t-62 -120t-103 -95t-148.5 -60.5t-192.5 -17l27 117q184 -4 272 85.5t88 229.5q0 198 -235 260l22 105 q153 36 235.5 135t82.5 227q0 88 -47 139.5t-126 51.5q-92 0 -152.5 -73t-94.5 -220l-228 -1053h-137z" />
<glyph unicode="&#xe0;" horiz-adv-x="854" d="M10 260q0 87 31 170.5t88 140.5q99 99 254 99q115 0 242 -54l8 37q18 95 18 138q0 80 -50 125t-146 45q-105 0 -207 -48l-31 119q128 55 256 55q150 0 231.5 -72.5t81.5 -201.5q0 -68 -22 -178l-137 -635h-135l30 145q-113 -165 -270 -165q-108 0 -175 74t-67 206z M147 276q0 -87 42 -135.5t116 -48.5q95 0 168 77t98 196l33 147q-100 49 -207 49q-104 0 -166 -65q-39 -39 -61.5 -99.5t-22.5 -120.5zM311 1403l131 70l136 -277h-95z" />
<glyph unicode="&#xe1;" horiz-adv-x="854" d="M10 260q0 87 31 170.5t88 140.5q99 99 254 99q115 0 242 -54l8 37q18 95 18 138q0 80 -50 125t-146 45q-105 0 -207 -48l-31 119q128 55 256 55q150 0 231.5 -72.5t81.5 -201.5q0 -68 -22 -178l-137 -635h-135l30 145q-113 -165 -270 -165q-108 0 -175 74t-67 206z M147 276q0 -87 42 -135.5t116 -48.5q95 0 168 77t98 196l33 147q-100 49 -207 49q-104 0 -166 -65q-39 -39 -61.5 -99.5t-22.5 -120.5zM477 1196l219 277l131 -70l-237 -207h-113z" />
<glyph unicode="&#xe2;" horiz-adv-x="854" d="M10 260q0 87 31 170.5t88 140.5q99 99 254 99q115 0 242 -54l8 37q18 95 18 138q0 80 -50 125t-146 45q-105 0 -207 -48l-31 119q128 55 256 55q150 0 231.5 -72.5t81.5 -201.5q0 -68 -22 -178l-137 -635h-135l30 145q-113 -165 -270 -165q-108 0 -175 74t-67 206z M147 276q0 -87 42 -135.5t116 -48.5q95 0 168 77t98 196l33 147q-100 49 -207 49q-104 0 -166 -65q-39 -39 -61.5 -99.5t-22.5 -120.5zM319 1200l224 262h112l109 -262h-105l-81 143l-148 -143h-111z" />
<glyph unicode="&#xe3;" horiz-adv-x="854" d="M10 260q0 87 31 170.5t88 140.5q99 99 254 99q115 0 242 -54l8 37q18 95 18 138q0 80 -50 125t-146 45q-105 0 -207 -48l-31 119q128 55 256 55q150 0 231.5 -72.5t81.5 -201.5q0 -68 -22 -178l-137 -635h-135l30 145q-113 -165 -270 -165q-108 0 -175 74t-67 206z M147 276q0 -87 42 -135.5t116 -48.5q95 0 168 77t98 196l33 147q-100 49 -207 49q-104 0 -166 -65q-39 -39 -61.5 -99.5t-22.5 -120.5zM299 1217q39 100 78 143t94 43q49 0 113 -47q52 -43 82 -43q26 0 46 21.5t42 70.5l86 -25q-38 -96 -78 -140t-96 -44q-48 0 -111 49 q-56 43 -82 43q-25 0 -45.5 -22.5t-44.5 -73.5z" />
<glyph unicode="&#xe4;" horiz-adv-x="854" d="M10 260q0 87 31 170.5t88 140.5q99 99 254 99q115 0 242 -54l8 37q18 95 18 138q0 80 -50 125t-146 45q-105 0 -207 -48l-31 119q128 55 256 55q150 0 231.5 -72.5t81.5 -201.5q0 -68 -22 -178l-137 -635h-135l30 145q-113 -165 -270 -165q-108 0 -175 74t-67 206z M147 276q0 -87 42 -135.5t116 -48.5q95 0 168 77t98 196l33 147q-100 49 -207 49q-104 0 -166 -65q-39 -39 -61.5 -99.5t-22.5 -120.5zM342 1208l37 168h145l-37 -168h-145zM610 1208l37 168h146l-37 -168h-146z" />
<glyph unicode="&#xe5;" horiz-adv-x="854" d="M10 260q0 87 31 170.5t88 140.5q99 99 254 99q115 0 242 -54l8 37q18 95 18 138q0 80 -50 125t-146 45q-105 0 -207 -48l-31 119q128 55 256 55q150 0 231.5 -72.5t81.5 -201.5q0 -68 -22 -178l-137 -635h-135l30 145q-113 -165 -270 -165q-108 0 -175 74t-67 206z M147 276q0 -87 42 -135.5t116 -48.5q95 0 168 77t98 196l33 147q-100 49 -207 49q-104 0 -166 -65q-39 -39 -61.5 -99.5t-22.5 -120.5zM399 1358q0 81 58 139.5t143 58.5q74 0 122 -46.5t48 -116.5q0 -81 -58 -140t-143 -59q-74 0 -122 47t-48 117zM473 1362q0 -43 27 -72.5 t73 -29.5q53 0 87 37.5t34 91.5q0 43 -26 71.5t-70 28.5q-53 0 -89 -37.5t-36 -89.5z" />
<glyph unicode="&#xe6;" horiz-adv-x="1394" d="M10 260q0 92 33 174t86 137q99 99 254 99q115 0 242 -54l8 37q18 95 18 138q0 80 -50 125t-146 45q-105 0 -207 -48l-31 119q128 55 256 55q117 0 189.5 -48.5t95.5 -141.5q131 197 307 197q129 0 202.5 -95.5t73.5 -261.5q0 -118 -36 -256h-578q-4 -29 -4 -84 q0 -140 59.5 -215.5t161.5 -75.5q109 0 215 82l49 -110q-140 -96 -272 -96q-114 0 -194 60t-115 177q-153 -239 -355 -239q-121 0 -191.5 74.5t-70.5 205.5zM147 276q0 -86 43.5 -135t118.5 -49q85 0 156.5 62.5t138.5 171.5q-6 91 6 182q-98 53 -213 53q-104 0 -166 -65 q-39 -39 -61.5 -99t-22.5 -121zM748 592h446q18 74 18 149q0 106 -40 168t-119 62q-82 0 -152 -70q-105 -105 -153 -309z" />
<glyph unicode="&#xe7;" horiz-adv-x="751" d="M55 379q0 162 58.5 327.5t160.5 266.5q119 119 263 119q156 0 258 -134l-93 -94q-39 49 -77.5 75t-92.5 26q-84 0 -159 -78q-82 -82 -131 -225.5t-49 -270.5q0 -141 54 -210.5t138 -69.5q82 0 168 67l61 -104q-109 -92 -239 -92h-6l-148 -242l-123 57l170 201 q-99 32 -156 128.5t-57 252.5z" />
<glyph unicode="&#xe8;" horiz-adv-x="864" d="M55 393q0 165 60 325.5t159 258.5q114 117 254 117q132 0 207.5 -95.5t75.5 -261.5q0 -104 -37 -256h-579q-5 -36 -5 -84q0 -139 60.5 -215t161.5 -76q107 0 217 82l49 -110q-143 -96 -279 -96q-157 0 -250.5 106.5t-93.5 304.5zM215 592h447q18 63 18 149 q0 105 -40.5 167.5t-119.5 62.5q-78 0 -151 -70q-106 -106 -154 -309zM340 1403l131 70l135 -277h-94z" />
<glyph unicode="&#xe9;" horiz-adv-x="864" d="M55 393q0 165 60 325.5t159 258.5q114 117 254 117q132 0 207.5 -95.5t75.5 -261.5q0 -104 -37 -256h-579q-5 -36 -5 -84q0 -139 60.5 -215t161.5 -76q107 0 217 82l49 -110q-143 -96 -279 -96q-157 0 -250.5 106.5t-93.5 304.5zM215 592h447q18 63 18 149 q0 105 -40.5 167.5t-119.5 62.5q-78 0 -151 -70q-106 -106 -154 -309zM502 1196l219 277l131 -70l-238 -207h-112z" />
<glyph unicode="&#xea;" horiz-adv-x="864" d="M55 393q0 165 60 325.5t159 258.5q114 117 254 117q132 0 207.5 -95.5t75.5 -261.5q0 -104 -37 -256h-579q-5 -36 -5 -84q0 -139 60.5 -215t161.5 -76q107 0 217 82l49 -110q-143 -96 -279 -96q-157 0 -250.5 106.5t-93.5 304.5zM215 592h447q18 63 18 149 q0 105 -40.5 167.5t-119.5 62.5q-78 0 -151 -70q-106 -106 -154 -309zM348 1200l223 262h113l109 -262h-105l-82 143l-147 -143h-111z" />
<glyph unicode="&#xeb;" horiz-adv-x="864" d="M55 393q0 165 60 325.5t159 258.5q114 117 254 117q132 0 207.5 -95.5t75.5 -261.5q0 -104 -37 -256h-579q-5 -36 -5 -84q0 -139 60.5 -215t161.5 -76q107 0 217 82l49 -110q-143 -96 -279 -96q-157 0 -250.5 106.5t-93.5 304.5zM215 592h447q18 63 18 149 q0 105 -40.5 167.5t-119.5 62.5q-78 0 -151 -70q-106 -106 -154 -309zM369 1208l37 168h145l-37 -168h-145zM637 1208l37 168h145l-37 -168h-145z" />
<glyph unicode="&#xec;" horiz-adv-x="403" d="M16 0l234 1075h137l-233 -1075h-138zM113 1399l131 69l135 -276h-94z" />
<glyph unicode="&#xed;" horiz-adv-x="403" d="M16 0l234 1075h137l-233 -1075h-138zM279 1192l219 276l131 -69l-238 -207h-112z" />
<glyph unicode="&#xee;" horiz-adv-x="403" d="M16 0l234 1075h137l-233 -1075h-138zM121 1196l223 262h113l108 -262h-104l-82 143l-148 -143h-110z" />
<glyph unicode="&#xef;" horiz-adv-x="403" d="M16 0l234 1075h137l-233 -1075h-138zM143 1204l37 168h146l-37 -168h-146zM412 1204l37 168h145l-37 -168h-145z" />
<glyph unicode="&#xf0;" horiz-adv-x="913" d="M59 381q0 167 56 332t149 260q111 108 242 108q73 0 125.5 -34.5t93.5 -102.5q-26 133 -119 305l-198 -78l-33 91l182 71q-34 54 -88 129h156l51 -82l174 68l33 -90l-160 -64q137 -264 137 -524q0 -214 -61.5 -394t-159.5 -278q-118 -118 -264 -118q-143 0 -229.5 108 t-86.5 293zM197 377q0 -129 50 -201t138 -72q86 0 162 76q73 73 120.5 223.5t47.5 288.5q0 127 -52.5 200t-140.5 73q-86 0 -155 -72q-75 -74 -122.5 -225t-47.5 -291z" />
<glyph unicode="&#xf1;" d="M6 0l234 1075h137l-35 -157q127 176 281 176q106 0 168.5 -66t62.5 -184q0 -78 -20 -168l-146 -676h-137l145 670q17 80 17 143q0 76 -40 117t-112 41q-91 0 -166 -79.5t-100 -195.5l-152 -696h-137zM344 1217q39 100 78 143t94 43q49 0 113 -47q52 -43 82 -43 q26 0 46 21.5t42 70.5l86 -25q-38 -96 -78 -140t-96 -44q-48 0 -111 49q-56 43 -82 43q-25 0 -45.5 -22.5t-44.5 -73.5z" />
<glyph unicode="&#xf2;" d="M59 387q0 168 55.5 329.5t153.5 260.5q117 117 269 117q148 0 233.5 -109.5t85.5 -298.5q0 -167 -56 -329t-153 -259q-118 -118 -268 -118q-148 0 -234 109t-86 298zM195 391q0 -138 50.5 -212.5t139.5 -74.5q87 0 162 78q79 77 125.5 219.5t46.5 282.5q0 137 -50 211 t-139 74q-85 0 -161 -76q-79 -79 -126.5 -222t-47.5 -280zM360 1403l132 70l135 -277h-95z" />
<glyph unicode="&#xf3;" d="M59 387q0 168 55.5 329.5t153.5 260.5q117 117 269 117q148 0 233.5 -109.5t85.5 -298.5q0 -167 -56 -329t-153 -259q-118 -118 -268 -118q-148 0 -234 109t-86 298zM195 391q0 -138 50.5 -212.5t139.5 -74.5q87 0 162 78q79 77 125.5 219.5t46.5 282.5q0 137 -50 211 t-139 74q-85 0 -161 -76q-79 -79 -126.5 -222t-47.5 -280zM522 1196l219 277l131 -70l-237 -207h-113z" />
<glyph unicode="&#xf4;" d="M59 387q0 168 55.5 329.5t153.5 260.5q117 117 269 117q148 0 233.5 -109.5t85.5 -298.5q0 -167 -56 -329t-153 -259q-118 -118 -268 -118q-148 0 -234 109t-86 298zM195 391q0 -138 50.5 -212.5t139.5 -74.5q87 0 162 78q79 77 125.5 219.5t46.5 282.5q0 137 -50 211 t-139 74q-85 0 -161 -76q-79 -79 -126.5 -222t-47.5 -280zM369 1200l223 262h113l108 -262h-104l-82 143l-148 -143h-110z" />
<glyph unicode="&#xf5;" d="M59 387q0 168 55.5 329.5t153.5 260.5q117 117 269 117q148 0 233.5 -109.5t85.5 -298.5q0 -167 -56 -329t-153 -259q-118 -118 -268 -118q-148 0 -234 109t-86 298zM195 391q0 -138 50.5 -212.5t139.5 -74.5q87 0 162 78q79 77 125.5 219.5t46.5 282.5q0 137 -50 211 t-139 74q-85 0 -161 -76q-79 -79 -126.5 -222t-47.5 -280zM346 1217q39 100 78 143t94 43q49 0 113 -47q52 -43 82 -43q26 0 46 21.5t42 70.5l86 -25q-38 -96 -78 -140t-96 -44q-48 0 -111 49q-56 43 -82 43q-25 0 -45.5 -22.5t-44.5 -73.5z" />
<glyph unicode="&#xf6;" d="M59 387q0 168 55.5 329.5t153.5 260.5q117 117 269 117q148 0 233.5 -109.5t85.5 -298.5q0 -167 -56 -329t-153 -259q-118 -118 -268 -118q-148 0 -234 109t-86 298zM195 391q0 -138 50.5 -212.5t139.5 -74.5q87 0 162 78q79 77 125.5 219.5t46.5 282.5q0 137 -50 211 t-139 74q-85 0 -161 -76q-79 -79 -126.5 -222t-47.5 -280zM389 1208l37 168h145l-36 -168h-146zM657 1208l37 168h146l-37 -168h-146z" />
<glyph unicode="&#xf7;" horiz-adv-x="917" d="M113 655l28 131h746l-29 -131h-745zM326 303l41 184h165l-40 -184h-166zM467 954l41 185h166l-41 -185h-166z" />
<glyph unicode="&#xf8;" d="M-59 -12l155 184q-37 87 -37 215q0 168 55.5 329.5t153.5 260.5q117 117 267 117q146 0 233 -107l84 98h123l-158 -184q39 -95 39 -215q0 -167 -56 -329t-153 -259q-118 -118 -268 -118q-146 0 -232 106l-84 -98h-122zM193 391q0 -61 8 -102l479 594q-50 90 -150 90 q-84 0 -165 -78q-79 -79 -125.5 -222t-46.5 -282zM233 190q50 -90 152 -90q86 0 166 80q79 79 125.5 221t46.5 283q0 38 -8 100z" />
<glyph unicode="&#xf9;" d="M63 231q0 70 19 168l147 676h138l-146 -667q-16 -78 -16 -146q0 -76 39 -117t110 -41q91 0 167.5 79.5t101.5 195.5l149 696h139l-233 -1075h-137l32 158q-123 -176 -278 -176q-106 0 -169 66t-63 183zM356 1395l131 69l136 -276h-95z" />
<glyph unicode="&#xfa;" d="M63 231q0 70 19 168l147 676h138l-146 -667q-16 -78 -16 -146q0 -76 39 -117t110 -41q91 0 167.5 79.5t101.5 195.5l149 696h139l-233 -1075h-137l32 158q-123 -176 -278 -176q-106 0 -169 66t-63 183zM518 1188l219 276l131 -69l-237 -207h-113z" />
<glyph unicode="&#xfb;" d="M63 231q0 70 19 168l147 676h138l-146 -667q-16 -78 -16 -146q0 -76 39 -117t110 -41q91 0 167.5 79.5t101.5 195.5l149 696h139l-233 -1075h-137l32 158q-123 -176 -278 -176q-106 0 -169 66t-63 183zM365 1192l223 262h112l109 -262h-104l-82 143l-148 -143h-110z" />
<glyph unicode="&#xfc;" d="M63 231q0 70 19 168l147 676h138l-146 -667q-16 -78 -16 -146q0 -76 39 -117t110 -41q91 0 167.5 79.5t101.5 195.5l149 696h139l-233 -1075h-137l32 158q-123 -176 -278 -176q-106 0 -169 66t-63 183zM383 1200l37 168h145l-37 -168h-145zM651 1200l37 168h146l-37 -168 h-146z" />
<glyph unicode="&#xfd;" horiz-adv-x="854" d="M-84 -236l51 113q54 -43 109 -43q44 0 81.5 36t88.5 132l-90 1073h139l57 -866l418 866h145l-538 -1085q-77 -157 -145 -220t-156 -63q-92 0 -160 57zM475 1188l219 276l131 -69l-237 -207h-113z" />
<glyph unicode="&#xfe;" horiz-adv-x="950" d="M-55 -287l379 1749h137l-121 -559q130 191 289 191q121 0 191.5 -101t70.5 -282q0 -175 -59 -350.5t-164 -280.5q-98 -98 -224 -98q-100 0 -163.5 63.5t-90.5 165.5l-108 -498h-137zM240 381q0 -127 52.5 -201t135.5 -74q79 0 145 66q80 80 129.5 229.5t49.5 290.5 q0 132 -44.5 205.5t-129.5 73.5q-84 0 -162 -78q-78 -76 -127 -226t-49 -286z" />
<glyph unicode="&#xff;" horiz-adv-x="854" d="M-84 -236l51 113q54 -43 109 -43q44 0 81.5 36t88.5 132l-90 1073h139l57 -866l418 866h145l-538 -1085q-77 -157 -145 -220t-156 -63q-92 0 -160 57zM338 1200l37 168h145l-37 -168h-145zM606 1200l37 168h145l-36 -168h-146z" />
<glyph unicode="&#x152;" horiz-adv-x="1550" d="M117 543q0 180 65 375t193 323q193 193 495 193h799l-31 -134h-534l-113 -512h482l-29 -131h-479l-115 -524h545l-31 -133h-739q-238 0 -371 133q-137 134 -137 410zM262 551q0 -222 105 -324q96 -96 260 -96h80l254 1172h-117q-213 0 -365 -152q-105 -105 -161 -276 t-56 -324z" />
<glyph unicode="&#x153;" horiz-adv-x="1495" d="M59 387q0 165 55 327t156 263q117 117 267 117q111 0 182.5 -66t103.5 -186q58 110 144 181t196 71q130 0 204.5 -95.5t74.5 -261.5q0 -104 -37 -256h-578q-4 -58 -4 -84q0 -140 60.5 -215.5t165.5 -75.5q102 0 221 84l26 -118q-121 -90 -260 -90q-118 0 -198.5 64.5 t-110.5 189.5q-60 -116 -150 -186t-198 -70q-148 0 -234 109t-86 298zM195 391q0 -138 50.5 -212.5t139.5 -74.5q86 0 162 76q79 79 125.5 222t46.5 282q0 137 -50 211t-139 74q-88 0 -161 -76q-79 -77 -126.5 -220.5t-47.5 -281.5zM846 592h446q19 66 19 149q0 106 -40 168 t-120 62q-79 0 -152 -70q-100 -100 -153 -309z" />
<glyph unicode="&#x178;" horiz-adv-x="958" d="M203 1434h151l164 -684l461 684h166l-588 -850l-125 -584h-145l129 596zM455 1530l34 166h156l-35 -166h-155zM745 1530l35 166h154l-35 -166h-154z" />
<glyph unicode="&#x2c6;" horiz-adv-x="1024" d="M434 1196l223 262h113l109 -262h-105l-82 143l-147 -143h-111z" />
<glyph unicode="&#x2dc;" horiz-adv-x="1024" d="M406 1212q39 100 78 143.5t94 43.5q48 0 112 -47q52 -43 82 -43q26 0 46 21.5t42 70.5l86 -25q-38 -96 -78 -140t-96 -44q-47 0 -110 49q-56 43 -82 43t-46.5 -22.5t-44.5 -73.5z" />
<glyph unicode="&#x2000;" horiz-adv-x="892" />
<glyph unicode="&#x2001;" horiz-adv-x="1784" />
<glyph unicode="&#x2002;" horiz-adv-x="892" />
<glyph unicode="&#x2003;" horiz-adv-x="1784" />
<glyph unicode="&#x2004;" horiz-adv-x="594" />
<glyph unicode="&#x2005;" horiz-adv-x="446" />
<glyph unicode="&#x2006;" horiz-adv-x="297" />
<glyph unicode="&#x2007;" horiz-adv-x="297" />
<glyph unicode="&#x2008;" horiz-adv-x="223" />
<glyph unicode="&#x2009;" horiz-adv-x="356" />
<glyph unicode="&#x200a;" horiz-adv-x="99" />
<glyph unicode="&#x2010;" horiz-adv-x="675" d="M100 545l31 139h475l-31 -139h-475z" />
<glyph unicode="&#x2011;" horiz-adv-x="675" d="M100 545l31 139h475l-31 -139h-475z" />
<glyph unicode="&#x2012;" horiz-adv-x="675" d="M100 545l31 139h475l-31 -139h-475z" />
<glyph unicode="&#x2013;" horiz-adv-x="931" d="M100 547l29 135h733l-28 -135h-734z" />
<glyph unicode="&#x2014;" horiz-adv-x="1449" d="M100 547l29 135h1251l-28 -135h-1252z" />
<glyph unicode="&#x2018;" horiz-adv-x="409" d="M207 989l39 182q28 123 86 182.5t174 84.5l16 -68q-85 -25 -122.5 -66.5t-47.5 -107.5h76l-43 -207h-178z" />
<glyph unicode="&#x2019;" horiz-adv-x="409" d="M174 1053q85 25 121.5 67t46.5 109h-74l43 205h176l-38 -181q-28 -124 -85.5 -183.5t-173.5 -84.5z" />
<glyph unicode="&#x201a;" horiz-adv-x="417" d="M-88 -174q86 23 124 65.5t46 108.5h-76l45 205h176l-39 -180q-28 -124 -86 -184t-174 -85z" />
<glyph unicode="&#x201c;" horiz-adv-x="749" d="M207 989l39 182q28 123 86 182.5t174 84.5l16 -68q-86 -25 -123 -66.5t-47 -107.5h76l-45 -207h-176zM545 989l41 182q28 123 85.5 182.5t172.5 84.5l16 -68q-85 -25 -122.5 -66.5t-47.5 -107.5h76l-43 -207h-178z" />
<glyph unicode="&#x201d;" horiz-adv-x="749" d="M172 1053q86 25 123 66.5t47 109.5h-76l45 205h176l-38 -181q-28 -124 -86.5 -183.5t-174.5 -84.5zM512 1053q85 25 121.5 67t46.5 109h-74l43 205h176l-37 -181q-29 -124 -86.5 -183.5t-173.5 -84.5z" />
<glyph unicode="&#x201e;" horiz-adv-x="761" d="M-88 -174q86 23 124 65.5t46 108.5h-76l45 205h176l-39 -180q-28 -124 -86 -184t-174 -85zM252 -174q86 23 123 65.5t45 108.5h-74l45 205h174l-37 -180q-28 -124 -86 -184t-174 -85z" />
<glyph unicode="&#x2022;" horiz-adv-x="774" d="M207 659q0 162 94 256q66 66 156 66q82 0 132 -52.5t50 -142.5q0 -76 -25.5 -143.5t-70.5 -110.5q-67 -67 -154 -67q-82 0 -132 52.5t-50 141.5z" />
<glyph unicode="&#x2026;" horiz-adv-x="1249" d="M2 0l45 207h178l-47 -207h-176zM420 0l45 207h176l-43 -207h-178zM838 0l43 207h178l-45 -207h-176z" />
<glyph unicode="&#x202f;" horiz-adv-x="356" />
<glyph unicode="&#x2039;" horiz-adv-x="544" d="M70 520l4 17l383 434l86 -70l-322 -387l150 -381l-107 -47z" />
<glyph unicode="&#x203a;" horiz-adv-x="544" d="M-4 154l321 387l-149 381l106 47l195 -434l-4 -17l-383 -434z" />
<glyph unicode="&#x205f;" horiz-adv-x="446" />
<glyph unicode="&#x20ac;" horiz-adv-x="987" d="M37 498l24 110h129q9 111 37 230h-116l22 110h123q82 242 213 373t299 131q200 0 324 -172l-103 -90q-96 127 -225 127q-107 0 -193 -86q-98 -101 -163 -285h397l-23 -108h-405q-29 -108 -41 -230h395l-24 -110h-375v-2q0 -178 63.5 -277.5t184.5 -99.5q59 0 108.5 24.5 t106.5 71.5l69 -106q-149 -127 -301 -127q-173 0 -275 131t-102 372v4v9h-149z" />
<glyph unicode="&#x2122;" horiz-adv-x="1032" d="M199 1354l18 80h354l-18 -80h-137l-121 -561h-84l121 561h-133zM530 793l140 641h94l72 -316l202 316h103l-140 -641h-83l106 489l-217 -334h-8l-78 334l-107 -489h-84z" />
<glyph unicode="&#xe000;" horiz-adv-x="1075" d="M0 0v1075h1075v-1075h-1075z" />
</font>
</defs>
</svg>
