<?xml version="1.0" standalone="no"?>
<!DOCTYPE svg PUBLIC "-//W3C//DTD SVG 1.1//EN" "http://www.w3.org/Graphics/SVG/1.1/DTD/svg11.dtd" >
<svg xmlns="http://www.w3.org/2000/svg">
<metadata></metadata>
<defs>
<font id="gotham_xnarrowlight_italic" horiz-adv-x="897" >
<font-face units-per-em="2048" ascent="1638" descent="-410" />
<missing-glyph horiz-adv-x="409" />
<glyph unicode="&#xfb01;" horiz-adv-x="909" d="M66 0l213 983h-123l20 84h121l29 127q29 142 88 201q69 69 170 69q70 0 127 -26l-21 -84q-58 24 -106 24q-69 0 -107.5 -44t-60.5 -142l-29 -125h236l-19 -84h-235l-213 -983h-90zM559 0l232 1067h90l-232 -1067h-90zM838 1309l30 141h103l-31 -141h-102z" />
<glyph unicode="&#xfb02;" horiz-adv-x="909" d="M66 0l213 983h-123l20 84h121l29 127q29 142 88 201q69 69 170 69q70 0 127 -26l-21 -84q-58 24 -106 24q-69 0 -107.5 -44t-60.5 -142l-29 -125h236l-19 -84h-235l-213 -983h-90zM559 0l318 1462h90l-318 -1462h-90z" />
<glyph unicode="&#xfb03;" horiz-adv-x="1439" d="M66 0l213 983h-123l20 84h121l29 127q29 142 88 201q69 69 170 69q70 0 127 -26l-21 -84q-58 24 -106 24q-69 0 -107.5 -44t-60.5 -142l-29 -125h236l-19 -84h-235l-213 -983h-90zM596 0l213 983h-123l21 84h120l29 127q29 142 88 201q69 69 170 69q70 0 127 -26l-20 -84 q-59 24 -107 24q-69 0 -107.5 -44t-60.5 -142l-28 -125h235l-18 -84h-236l-213 -983h-90zM1090 0l231 1067h90l-231 -1067h-90zM1368 1309l31 141h102l-31 -141h-102z" />
<glyph unicode="&#xfb04;" horiz-adv-x="1439" d="M66 0l213 983h-123l20 84h121l29 127q29 142 88 201q69 69 170 69q70 0 127 -26l-21 -84q-58 24 -106 24q-69 0 -107.5 -44t-60.5 -142l-29 -125h236l-19 -84h-235l-213 -983h-90zM596 0l213 983h-123l21 84h120l29 127q29 142 88 201q69 69 170 69q70 0 127 -26l-20 -84 q-59 24 -107 24q-69 0 -107.5 -44t-60.5 -142l-28 -125h235l-18 -84h-236l-213 -983h-90zM1090 0l317 1462h90l-317 -1462h-90z" />
<glyph horiz-adv-x="2048" />
<glyph horiz-adv-x="2048" />
<glyph unicode="&#xd;" horiz-adv-x="2048" />
<glyph unicode=" "  horiz-adv-x="409" />
<glyph unicode="&#x09;" horiz-adv-x="409" />
<glyph unicode="&#xa0;" horiz-adv-x="409" />
<glyph unicode="!" horiz-adv-x="436" d="M39 0l35 170h127l-35 -170h-127zM158 375l170 915l30 144h111l-31 -144l-231 -915h-49z" />
<glyph unicode="&#x22;" horiz-adv-x="602" d="M180 930l127 504h113l-4 -17l-189 -487h-47zM449 930l126 504h113l-2 -17l-190 -487h-47z" />
<glyph unicode="#" horiz-adv-x="1003" d="M41 379l16 86h189l125 504h-189l17 86h192l96 379h82l-96 -379h297l94 379h82l-94 -379h182l-16 -86h-189l-124 -504h188l-16 -86h-193l-96 -379h-82l96 379h-297l-94 -379h-82l94 379h-182zM328 465h295l125 504h-295z" />
<glyph unicode="$" horiz-adv-x="894" d="M-33 197l68 67q128 -149 272 -178l137 621q-135 92 -187 181t-52 183q0 154 108.5 261.5t278.5 107.5h14l31 127h80l-31 -137q144 -32 270 -158l-67 -68q-112 116 -225 142l-129 -580q131 -89 188 -179t57 -198q0 -107 -46 -196.5t-137.5 -145t-211.5 -55.5h-23l-43 -195 h-81l47 205q-193 40 -318 195zM299 1075q0 -152 168 -270l123 549q-133 0 -212 -81t-79 -198zM383 78h14q138 0 213.5 92.5t75.5 222.5q0 76 -37 142.5t-135 134.5z" />
<glyph unicode="%" horiz-adv-x="1253" d="M78 0l561 735l524 699h94l-561 -736l-524 -698h-94zM164 1024q0 100 34.5 193t90.5 149q80 80 180 80q95 0 154 -74t59 -205q0 -100 -34.5 -193t-90.5 -149q-80 -80 -180 -80q-95 0 -154 74t-59 205zM252 1024q0 -94 35 -145.5t96 -51.5q59 0 109 50q47 47 74.5 125.5 t27.5 164.5q0 94 -35 145.5t-96 51.5q-60 0 -109 -49q-47 -47 -74.5 -125.5t-27.5 -165.5zM653 266q0 100 34.5 193t90.5 149q80 80 180 80q95 0 154 -74t59 -204q0 -100 -34 -193t-90 -149q-80 -80 -181 -80q-95 0 -154 74t-59 204zM741 266q0 -94 35 -145t96 -51 q60 0 109 49q47 47 74.5 125.5t27.5 165.5q0 94 -35 145t-96 51q-59 0 -108 -49q-47 -47 -75 -126t-28 -165z" />
<glyph unicode="&#x26;" horiz-adv-x="1040" d="M37 313q0 319 381 502q-82 188 -82 311q0 135 83.5 230.5t213.5 95.5q120 0 189 -74.5t69 -179.5q0 -261 -361 -418l207 -440q72 117 156 313l78 -35q-95 -219 -189 -354l123 -246l-80 -36l-102 206q-83 -101 -172 -152.5t-195 -51.5q-144 0 -231.5 92t-87.5 237z M135 330q0 -117 60 -188.5t170 -71.5q168 0 317 192l-227 481q-160 -69 -240 -175t-80 -238zM428 1130q0 -122 68 -280q149 59 226 147.5t77 192.5q0 78 -46 129t-128 51q-87 0 -142 -72t-55 -168z" />
<glyph unicode="'" horiz-adv-x="319" d="M180 930l127 504h113l-4 -17l-189 -487h-47z" />
<glyph unicode="(" horiz-adv-x="620" d="M109 383q0 268 87.5 486t247.5 378q137 137 308 217l28 -59q-154 -83 -262 -191q-157 -157 -238 -378.5t-81 -448.5q0 -365 227 -616l-49 -47q-128 133 -198 291.5t-70 367.5z" />
<glyph unicode=")" horiz-adv-x="620" d="M-133 -217q156 84 262 190q157 157 238.5 379t81.5 449q0 364 -228 616l49 47q128 -133 198.5 -291.5t70.5 -367.5q0 -268 -88 -486t-248 -378q-137 -137 -307 -217z" />
<glyph unicode="*" horiz-adv-x="677" d="M203 1102l225 59l-180 148l55 59l154 -172l35 244l75 -17l-69 -237l211 90l24 -74l-225 -59l180 -150l-55 -57l-152 172l-37 -244l-75 17l69 235l-211 -88z" />
<glyph unicode="+" d="M119 678l18 86h318l69 321h90l-71 -321h317l-18 -86h-318l-69 -322h-88l69 322h-317z" />
<glyph unicode="," horiz-adv-x="364" d="M-88 -158q72 28 105 63t40 95h-55l37 170h129l-31 -147q-23 -102 -67.5 -151.5t-139.5 -82.5z" />
<glyph unicode="-" horiz-adv-x="649" d="M109 561l20 92h442l-20 -92h-442z" />
<glyph unicode="." horiz-adv-x="364" d="M2 0l37 170h129l-35 -170h-131z" />
<glyph unicode="/" horiz-adv-x="704" d="M-184 -223l1022 1818h92l-1022 -1818h-92z" />
<glyph unicode="0" horiz-adv-x="1003" d="M106 430q0 152 33 320.5t102.5 330.5t161.5 254q117 117 256 117q153 0 235.5 -116t82.5 -335q0 -237 -80.5 -502t-216.5 -401q-116 -116 -256 -116q-153 0 -235.5 115.5t-82.5 332.5zM203 432q0 -178 56.5 -271t164.5 -93q98 0 182 84q121 121 198 375.5t77 473.5 q0 178 -57 271.5t-165 93.5q-98 0 -182 -84q-121 -121 -197.5 -376t-76.5 -474z" />
<glyph unicode="1" horiz-adv-x="512" d="M127 0l287 1317l-211 -84l10 104l242 101h82l-314 -1438h-96z" />
<glyph unicode="2" horiz-adv-x="860" d="M-43 0l12 68l557 639q125 144 179.5 240.5t54.5 191.5q0 100 -62 160.5t-166 60.5q-70 0 -132.5 -33t-133.5 -104l-61 65q150 164 336 164q146 0 233.5 -85.5t87.5 -217.5q0 -121 -60 -226.5t-188 -250.5l-510 -580h578l-20 -92h-705z" />
<glyph unicode="3" horiz-adv-x="847" d="M-23 141l68 68q58 -65 123.5 -102t155.5 -37q140 0 228.5 105t88.5 263q0 70 -26 124.5t-63.5 84t-86 48.5t-85 24.5t-69.5 5.5v59l471 555h-534l22 95h662l-14 -66l-488 -575q142 -31 225.5 -119.5t83.5 -239.5q0 -89 -33.5 -179.5t-101.5 -158.5q-114 -114 -287 -114 q-200 0 -340 159z" />
<glyph unicode="4" horiz-adv-x="919" d="M27 338l4 82l786 1024h88l-221 -1024h156l-19 -82h-155l-74 -338h-90l73 338h-548zM133 420h463l180 840z" />
<glyph unicode="5" horiz-adv-x="868" d="M-14 137l67 68q114 -137 275 -137q80 0 147 38.5t109.5 102t66 141.5t23.5 160q0 139 -69 203.5t-181 64.5q-99 0 -193 -47l-57 45l174 658h553l-20 -93h-469l-138 -510q32 13 80.5 23t81.5 10q153 0 244.5 -90.5t91.5 -263.5q0 -115 -39.5 -222t-109.5 -177 q-65 -65 -136.5 -97t-162.5 -32q-99 0 -187 40.5t-151 114.5z" />
<glyph unicode="6" horiz-adv-x="929" d="M106 416q0 88 18 205.5t53 247.5t95.5 253.5t135.5 198.5q128 131 292 131q154 0 273 -113l-60 -73q-96 96 -221 96q-119 0 -219 -100q-157 -160 -242 -553q116 180 304 180q147 0 231 -98.5t84 -262.5q0 -127 -43 -244.5t-121 -195.5q-106 -106 -254 -106 q-129 0 -213 84q-113 113 -113 350zM205 371q0 -164 78 -242q63 -63 157 -63q101 0 178 77q66 66 101 170.5t35 210.5q0 136 -62.5 207.5t-173.5 71.5q-106 0 -188 -82q-61 -61 -93 -154t-32 -196z" />
<glyph unicode="7" horiz-adv-x="825" d="M78 0l721 1341h-557l22 93h656l-17 -78l-723 -1356h-102z" />
<glyph unicode="8" d="M41 330q0 96 36.5 183t110.5 153t174 92q-66 39 -105.5 114t-39.5 166q0 107 45.5 200.5t133 153.5t196.5 60q141 0 229 -89t88 -239q0 -139 -78 -251.5t-202 -149.5q77 -44 124.5 -129.5t47.5 -190.5q0 -79 -29 -154.5t-80.5 -135t-129 -95.5t-167.5 -36q-160 0 -257 96 t-97 252zM137 336q0 -126 72 -197t188 -71q135 0 221.5 103t86.5 245q0 127 -71 203.5t-190 76.5q-88 0 -160 -53t-109.5 -135t-37.5 -172zM311 1030q0 -107 58 -179.5t161 -72.5q84 0 151 52.5t100.5 130t33.5 159.5q0 110 -61.5 178t-165.5 68q-84 0 -149 -50.5 t-96.5 -126t-31.5 -159.5z" />
<glyph unicode="9" horiz-adv-x="929" d="M23 109l59 73q106 -110 237 -110q120 0 220 100q156 159 237 535q-117 -179 -303 -179q-147 0 -230 100t-83 269q0 132 43.5 251t122.5 198q106 106 254 106q129 0 213 -84q112 -112 112 -350q0 -88 -18 -205.5t-52 -247.5t-95 -253.5t-136 -198.5q-131 -131 -293 -131 q-158 0 -288 127zM256 901q0 -142 61 -214.5t172 -72.5q107 0 189 82q62 62 95.5 157t33.5 202q0 172 -78 250q-63 63 -158 63q-100 0 -178 -78q-66 -66 -101.5 -172t-35.5 -217z" />
<glyph unicode=":" horiz-adv-x="385" d="M12 0l37 170h129l-35 -170h-131zM207 895l37 170h129l-35 -170h-131z" />
<glyph unicode=";" horiz-adv-x="385" d="M-78 -158q73 28 106 63.5t40 94.5h-56l37 170h129l-31 -147q-23 -102 -67.5 -152t-138.5 -82zM207 895l37 170h129l-35 -170h-131z" />
<glyph unicode="&#x3c;" d="M131 680l19 82l743 375l-25 -115l-626 -307l489 -312l-18 -96z" />
<glyph unicode="=" d="M98 502l21 92h688l-21 -92h-688zM174 848l21 92h688l-21 -92h-688z" />
<glyph unicode="&#x3e;" d="M84 305l25 115l626 307l-489 311l18 97l582 -373l-19 -82z" />
<glyph unicode="?" horiz-adv-x="786" d="M152 0l36 170h127l-34 -170h-129zM190 1327q151 119 312 119q146 0 233.5 -88.5t87.5 -229.5q0 -175 -116.5 -293.5t-300.5 -160.5l-82 -299h-60l55 358l15 12q184 30 288.5 133.5t104.5 247.5q0 110 -65.5 171t-161.5 61q-123 0 -262 -105z" />
<glyph unicode="@" horiz-adv-x="1546" d="M86 371q0 161 40 320t115.5 295t176.5 241t231 165t271 60q182 0 313 -82t195.5 -221t64.5 -318q0 -170 -53.5 -328t-142.5 -255.5t-187 -97.5q-92 0 -135.5 61t-38.5 154q-141 -222 -303 -222q-96 0 -155.5 72t-59.5 197q0 104 34.5 215.5t91 202t135.5 148.5t161 58 q90 0 142 -58t67 -151l53 179l84 -19l-146 -516q-24 -84 -24 -135q0 -55 27 -87t79 -32q76 0 148 90.5t116 233.5t44 290q0 164 -57 289.5t-175 200t-283 74.5q-109 0 -212 -42t-186.5 -114.5t-153.5 -172t-117.5 -212.5t-74 -237.5t-26.5 -245.5q0 -150 44 -268t120.5 -191 t176.5 -110.5t216 -37.5q177 0 357 97l26 -51q-96 -49 -186.5 -76t-196.5 -27q-133 0 -244 41.5t-195 121.5t-130.5 208.5t-46.5 292.5zM514 416q0 -90 37.5 -138.5t101.5 -48.5q79 0 162 76.5t137 195.5t54 234q0 97 -44.5 156t-121.5 59q-61 0 -122 -51.5t-105 -130 t-71.5 -173.5t-27.5 -179z" />
<glyph unicode="A" horiz-adv-x="1089" d="M-51 0l749 1442h101l123 -1442h-97l-30 401h-539l-207 -401h-100zM299 487h487l-63 822z" />
<glyph unicode="B" horiz-adv-x="1009" d="M35 0l311 1434h293q169 0 268 -83.5t99 -230.5q0 -85 -30 -155.5t-80.5 -118t-110.5 -78t-128 -45.5q109 -32 174.5 -107t65.5 -186q0 -108 -44.5 -192t-121 -135t-172 -77t-203.5 -26h-321zM150 88h215q204 0 320 89t116 253q0 115 -86 182.5t-232 67.5h-207zM297 766 h178q195 0 313.5 97t118.5 249q0 113 -73 173.5t-203 60.5h-209z" />
<glyph unicode="C" horiz-adv-x="964" d="M123 498q0 218 75.5 442t211.5 360q150 150 331 150q171 0 301 -164l-71 -59q-55 68 -110 100.5t-124 32.5q-139 0 -256 -117q-116 -116 -189 -325t-73 -418q0 -198 79.5 -312t221.5 -114q123 0 250 106l51 -69q-148 -127 -303 -127q-180 0 -287.5 136t-107.5 378z" />
<glyph unicode="D" horiz-adv-x="1085" d="M35 0l311 1434h199q227 0 358 -131q139 -139 139 -418q0 -175 -65 -368.5t-195 -323.5q-193 -193 -487 -193h-260zM150 88h163q236 0 400 164q115 115 174 292.5t59 334.5q0 243 -117 360q-107 107 -290 107h-117z" />
<glyph unicode="E" d="M35 0l311 1434h670l-19 -88h-573l-127 -580h520l-20 -86h-518l-129 -592h583l-20 -88h-678z" />
<glyph unicode="F" horiz-adv-x="878" d="M35 0l311 1434h658l-19 -88h-561l-131 -601h508l-21 -88h-506l-143 -657h-96z" />
<glyph unicode="G" horiz-adv-x="1087" d="M123 518q0 211 76 418t211 342q172 172 383 172q188 0 315 -143l-70 -68q-44 56 -110.5 88.5t-145.5 32.5q-161 0 -307 -146q-118 -118 -186 -310t-68 -386q0 -204 93.5 -327t250.5 -123q121 0 209 59l113 522h-305l20 88h397l-145 -665q-145 -90 -297 -90 q-197 0 -315.5 146.5t-118.5 389.5z" />
<glyph unicode="H" horiz-adv-x="1095" d="M35 0l311 1434h96l-145 -670h604l146 670h96l-312 -1434h-96l148 678h-604l-148 -678h-96z" />
<glyph unicode="I" horiz-adv-x="421" d="M49 0l311 1434h97l-312 -1434h-96z" />
<glyph unicode="J" horiz-adv-x="706" d="M-51 156l78 47q66 -129 188 -129q80 0 135 55q51 51 80 180l244 1125h96l-252 -1153q-31 -145 -104 -218q-77 -77 -203 -77q-88 0 -156.5 42.5t-105.5 127.5z" />
<glyph unicode="K" horiz-adv-x="1003" d="M35 0l311 1434h96l-186 -856l768 856h115l-580 -643l297 -791h-104l-267 709l-264 -295l-90 -414h-96z" />
<glyph unicode="L" horiz-adv-x="808" d="M35 0l311 1434h96l-292 -1346h530l-21 -88h-624z" />
<glyph unicode="M" horiz-adv-x="1259" d="M35 0l311 1434h94l201 -830l555 830h111l-312 -1434h-92l266 1239l-563 -831h-8l-203 831l-270 -1239h-90z" />
<glyph unicode="N" horiz-adv-x="1122" d="M35 0l311 1434h92l377 -1229l266 1229h93l-312 -1434h-78l-385 1260l-272 -1260h-92z" />
<glyph unicode="O" horiz-adv-x="1146" d="M121 483q0 217 79.5 455.5t215.5 374.5q141 141 315 141q175 0 276 -135t101 -369q0 -217 -79.5 -455t-215.5 -374q-141 -141 -315 -141q-175 0 -276 134.5t-101 368.5zM217 487q0 -197 75.5 -308t211.5 -111q129 0 239 110q120 120 194.5 346.5t74.5 421.5 q0 197 -75.5 308.5t-211.5 111.5q-129 0 -240 -111q-120 -120 -194 -346t-74 -422z" />
<glyph unicode="P" horiz-adv-x="960" d="M35 0l311 1434h234q220 0 325 -105q99 -99 99 -264q0 -106 -37.5 -205t-110.5 -172q-158 -158 -442 -158h-168l-115 -530h-96zM264 616h152q241 0 370 129q119 119 119 324q0 128 -71 199q-78 78 -263 78h-147z" />
<glyph unicode="Q" horiz-adv-x="1146" d="M121 483q0 217 79.5 455.5t215.5 374.5q141 141 315 141q175 0 276 -135t101 -369q0 -198 -69 -419t-187 -365l113 -152l-72 -57l-105 141q-130 -118 -290 -118q-175 0 -276 134.5t-101 368.5zM217 487q0 -197 75.5 -308t211.5 -111q127 0 233 100l-153 207l71 57 l144 -194q97 132 155 334.5t58 373.5q0 197 -75.5 308.5t-211.5 111.5q-129 0 -240 -111q-120 -120 -194 -346t-74 -422z" />
<glyph unicode="R" horiz-adv-x="1021" d="M35 0l311 1434h281q198 0 305 -107q92 -92 92 -244q0 -211 -135 -346q-101 -101 -266 -135l211 -602h-105l-203 588q-29 -4 -82 -4h-186l-127 -584h-96zM276 670h189q234 0 352 118q111 111 111 293q0 117 -66 183q-82 82 -248 82h-190z" />
<glyph unicode="S" horiz-adv-x="890" d="M-2 193l74 63q71 -90 147.5 -137t179.5 -47q115 0 192 79t77 191q0 78 -45.5 160.5t-147.5 183.5q-135 140 -186 228.5t-51 185.5q0 70 26.5 134t71.5 109q109 109 266 109q201 0 344 -172l-72 -63q-116 145 -276 145q-119 0 -191.5 -76.5t-72.5 -179.5 q0 -77 45.5 -152.5t155.5 -185.5q122 -124 175.5 -220.5t53.5 -197.5q0 -157 -109 -266q-46 -46 -114 -74t-144 -28q-237 0 -399 211z" />
<glyph unicode="T" horiz-adv-x="835" d="M217 1346l21 88h749l-18 -88h-328l-293 -1346h-96l293 1346h-328z" />
<glyph unicode="U" horiz-adv-x="1083" d="M111 317q0 75 26 205l197 912h96l-205 -949q-18 -86 -18 -161q0 -119 71 -187.5t201 -68.5q127 0 217 90q97 98 144 299l211 977h96l-215 -992q-51 -228 -166 -340q-119 -122 -295 -122q-170 0 -265 91t-95 246z" />
<glyph unicode="V" horiz-adv-x="1030" d="M248 1434h96l80 -1291l639 1291h104l-729 -1444h-90z" />
<glyph unicode="W" horiz-adv-x="1583" d="M258 1434h96l15 -1260l571 1262h84l23 -1262l561 1260h102l-657 -1444h-84l-25 1249l-571 -1249h-84z" />
<glyph unicode="X" horiz-adv-x="970" d="M-53 0l530 756l-211 678h99l180 -607l426 607h108l-495 -699l225 -735h-98l-199 664l-461 -664h-104z" />
<glyph unicode="Y" horiz-adv-x="948" d="M213 1434h100l193 -732l508 732h114l-596 -840l-129 -594h-96l131 606z" />
<glyph unicode="Z" horiz-adv-x="909" d="M-37 0l8 57l918 1295h-623l21 82h733l-8 -58l-918 -1294h651l-18 -82h-764z" />
<glyph unicode="[" horiz-adv-x="645" d="M18 -266l369 1700h381l-16 -72h-293l-338 -1557h291l-15 -71h-379z" />
<glyph unicode="\" horiz-adv-x="704" d="M248 1595h78l229 -1818h-80z" />
<glyph unicode="]" horiz-adv-x="645" d="M-100 -266l16 71h293l338 1557h-291l14 72h379l-368 -1700h-381z" />
<glyph unicode="^" horiz-adv-x="757" d="M246 1063l282 354h78l129 -354h-82l-100 258l-211 -258h-96z" />
<glyph unicode="_" horiz-adv-x="1032" d="M-190 -326l16 78h1040l-16 -78h-1040z" />
<glyph unicode="`" horiz-adv-x="1024" d="M551 1397l100 55l125 -260h-63z" />
<glyph unicode="a" horiz-adv-x="841" d="M16 264q0 81 30.5 161t88.5 138q103 103 260 103q119 0 254 -56l8 41q21 114 21 158q0 86 -53.5 135t-157.5 49q-115 0 -211 -47l-31 78q121 55 246 55q141 0 219 -69t78 -189q0 -55 -25 -180l-137 -641h-90l35 156q-122 -176 -283 -176q-112 0 -182 75.5t-70 208.5z M109 268q0 -98 48 -153.5t132 -55.5q109 0 194 89.5t115 224.5l35 157q-49 25 -115.5 40.5t-122.5 15.5q-118 0 -192 -74q-44 -44 -69 -110t-25 -134z" />
<glyph unicode="b" horiz-adv-x="935" d="M18 0l318 1462h90l-127 -581q135 204 303 204q123 0 195.5 -102t72.5 -285q0 -170 -57.5 -339t-163.5 -275q-102 -102 -227 -102q-104 0 -170.5 70.5t-91.5 183.5l-51 -236h-91zM203 375q0 -141 61 -226.5t156 -85.5q90 0 166 76q89 89 140.5 242t51.5 309q0 148 -50 232 t-148 84q-96 0 -187 -91q-85 -85 -137.5 -239t-52.5 -301z" />
<glyph unicode="c" horiz-adv-x="743" d="M59 369q0 166 61 331t161 265q118 118 258 118q143 0 243 -120l-65 -64q-25 29 -46.5 48t-59 35.5t-79.5 16.5q-96 0 -184 -88q-87 -87 -140.5 -238t-53.5 -288q0 -159 61 -238t156 -79q89 0 180 71l47 -69q-104 -86 -231 -86q-137 0 -222.5 99.5t-85.5 285.5z" />
<glyph unicode="d" horiz-adv-x="935" d="M70 369q0 170 57.5 339t163.5 275q102 102 227 102q104 0 170.5 -70.5t91.5 -183.5l138 631h90l-318 -1462h-90l41 186q-135 -204 -303 -204q-123 0 -195.5 102t-72.5 285zM162 377q0 -148 50 -232t148 -84q96 0 187 91q85 85 137.5 239t52.5 301q0 141 -61 226.5 t-156 85.5q-90 0 -166 -76q-89 -89 -140.5 -242t-51.5 -309z" />
<glyph unicode="e" horiz-adv-x="851" d="M63 389q0 165 60 325t158 257q111 114 245 114q124 0 195.5 -93t71.5 -253q0 -107 -35 -241h-598q-6 -56 -6 -107q0 -154 67.5 -238.5t177.5 -84.5q112 0 222 82l41 -74q-139 -92 -267 -92q-150 0 -241 105t-91 300zM174 578h510q18 68 18 163q0 119 -46 189.5t-136 70.5 q-95 0 -176 -81q-118 -115 -170 -342z" />
<glyph unicode="f" horiz-adv-x="526" d="M66 0l213 983h-123l20 84h121l29 127q29 142 88 201q69 69 170 69q70 0 127 -26l-21 -84q-58 24 -106 24q-69 0 -107.5 -44t-60.5 -142l-29 -125h236l-19 -84h-235l-213 -983h-90z" />
<glyph unicode="g" horiz-adv-x="935" d="M-23 -190l43 79q62 -42 145 -68t154 -26q68 0 116 19.5t89 60.5q60 60 94 203l39 184q-58 -88 -138 -143.5t-169 -55.5q-120 0 -195 98.5t-75 272.5q0 138 53.5 290.5t149.5 248.5q112 112 237 112q107 0 171.5 -69.5t88.5 -179.5l51 231h91l-215 -993 q-39 -176 -119 -256q-55 -55 -120.5 -81t-156.5 -26q-77 0 -169 26.5t-165 72.5zM170 434q0 -138 54.5 -213.5t144.5 -75.5q53 0 106.5 24.5t95.5 66.5q68 68 119 192t51 272q0 135 -60 219.5t-157 84.5q-92 0 -178 -86q-81 -81 -128.5 -219.5t-47.5 -264.5z" />
<glyph unicode="h" horiz-adv-x="903" d="M18 0l318 1462h90l-123 -565q124 188 291 188q107 0 171 -66.5t64 -187.5q0 -78 -20 -178l-141 -653h-90l143 662q18 88 18 163q0 87 -45 134t-127 47q-104 0 -192.5 -93.5t-116.5 -226.5l-149 -686h-91z" />
<glyph unicode="i" horiz-adv-x="380" d="M31 0l231 1067h90l-231 -1067h-90zM309 1309l31 141h102l-30 -141h-103z" />
<glyph unicode="j" horiz-adv-x="391" d="M-209 -276l21 83q30 -10 71 -10q61 0 96 45.5t54 130.5l237 1094h90l-243 -1124q-50 -232 -234 -232q-42 0 -92 13zM317 1309l31 141h103l-31 -141h-103z" />
<glyph unicode="k" horiz-adv-x="798" d="M18 0l318 1462h90l-217 -1003l536 608h109l-399 -442l186 -625h-94l-162 547l-207 -228l-69 -319h-91z" />
<glyph unicode="l" horiz-adv-x="380" d="M31 0l317 1462h90l-317 -1462h-90z" />
<glyph unicode="m" horiz-adv-x="1419" d="M18 0l232 1067h90l-37 -170q122 188 281 188q92 0 148.5 -56.5t68.5 -151.5q62 101 142.5 154.5t172.5 53.5q104 0 168 -67t64 -187q0 -73 -21 -178l-141 -653h-90l143 662q18 88 18 163q0 87 -43 134t-118 47q-95 0 -182 -89.5t-115 -214.5l-152 -702h-90l143 662 q19 93 19 163q0 86 -43.5 133.5t-118.5 47.5q-99 0 -184 -93.5t-115 -226.5l-149 -686h-91z" />
<glyph unicode="n" horiz-adv-x="903" d="M18 0l232 1067h90l-37 -170q124 188 291 188q107 0 171 -66.5t64 -187.5q0 -78 -20 -178l-141 -653h-90l143 662q18 88 18 163q0 87 -45 134t-127 47q-104 0 -192.5 -93.5t-116.5 -226.5l-149 -686h-91z" />
<glyph unicode="o" horiz-adv-x="903" d="M66 381q0 173 56 331.5t154 256.5q116 116 261 116q137 0 219 -107t82 -292q0 -173 -56.5 -331.5t-154.5 -256.5q-116 -116 -260 -116q-137 0 -219 107t-82 292zM158 385q0 -153 57.5 -236t157.5 -83q98 0 186 88q86 86 136 232.5t50 295.5q0 153 -57.5 236t-157.5 83 q-98 0 -186 -88q-86 -86 -136 -232.5t-50 -295.5z" />
<glyph unicode="p" horiz-adv-x="935" d="M-43 -285l293 1352h90l-41 -186q135 204 303 204q123 0 195.5 -102t72.5 -285q0 -170 -57.5 -339t-163.5 -275q-102 -102 -227 -102q-104 0 -170.5 70.5t-91.5 183.5l-113 -521h-90zM203 375q0 -141 61 -226.5t156 -85.5q90 0 166 76q89 89 140.5 242t51.5 309 q0 148 -50 232t-148 84q-96 0 -187 -91q-85 -85 -137.5 -239t-52.5 -301z" />
<glyph unicode="q" horiz-adv-x="935" d="M70 369q0 170 57.5 339t163.5 275q102 102 227 102q104 0 170.5 -70.5t91.5 -183.5l51 236h91l-293 -1352h-90l102 471q-135 -204 -303 -204q-123 0 -195.5 102t-72.5 285zM162 377q0 -148 50 -232t148 -84q96 0 187 91q85 85 137.5 239t52.5 301q0 141 -61 226.5 t-156 85.5q-90 0 -166 -76q-89 -89 -140.5 -242t-51.5 -309z" />
<glyph unicode="r" horiz-adv-x="575" d="M18 0l232 1067h90l-43 -199q139 212 333 212q11 0 23 -1l-22 -96h-8q-135 0 -236.5 -89.5t-138.5 -256.5l-139 -637h-91z" />
<glyph unicode="s" horiz-adv-x="696" d="M-37 154l64 65q67 -77 128.5 -114t131.5 -37q84 0 140 53t56 141q0 55 -33.5 109.5t-121.5 130.5q-109 96 -152 162.5t-43 146.5q0 112 77.5 191t203.5 79q157 0 291 -141l-62 -68q-58 62 -112 94.5t-117 32.5q-85 0 -137 -51.5t-52 -128.5q0 -53 33 -107t125 -134 q106 -92 149 -164t43 -150q0 -121 -82 -199.5t-210 -78.5q-172 0 -320 168z" />
<glyph unicode="t" horiz-adv-x="563" d="M98 145q0 49 15 107l157 731h-116l18 84h117l67 311h90l-67 -311h227l-18 -84h-228l-163 -764q-9 -35 -9 -59q0 -86 109 -86q50 0 100 24l-16 -86q-49 -22 -107 -22q-80 0 -128 39t-48 116z" />
<glyph unicode="u" horiz-adv-x="903" d="M76 236q0 78 20 178l142 653h90l-144 -661q-18 -88 -18 -164q0 -87 45 -134t127 -47q104 0 192.5 93.5t116.5 226.5l150 686h90l-232 -1067h-90l37 170q-124 -188 -291 -188q-107 0 -171 66.5t-64 187.5z" />
<glyph unicode="v" horiz-adv-x="831" d="M162 1067h92l63 -932l469 932h99l-555 -1073h-78z" />
<glyph unicode="w" horiz-adv-x="1271" d="M176 1067h90l17 -926l419 926h78l19 -926l418 926h94l-504 -1073h-80l-22 901l-414 -901h-80z" />
<glyph unicode="x" horiz-adv-x="821" d="M-47 0l414 553l-162 514h92l131 -442l326 442h104l-393 -518l176 -549h-92l-146 477l-350 -477h-100z" />
<glyph unicode="y" horiz-adv-x="835" d="M-92 -233l45 79q57 -49 110 -49q48 0 89.5 43.5t105.5 161.5l-100 1065h92l78 -936l460 936h99l-543 -1081q-76 -153 -141.5 -215t-143.5 -62q-85 0 -151 58z" />
<glyph unicode="z" horiz-adv-x="729" d="M-41 0l8 59l674 928h-467l19 80h575l-8 -59l-674 -928h483l-16 -80h-594z" />
<glyph unicode="{" horiz-adv-x="698" d="M74 559l16 66h31q144 0 217 73q50 50 68.5 121.5t9.5 186.5q-9 117 8.5 200.5t87.5 153.5q101 101 305 104l2 -69q-90 -4 -144 -22.5t-93 -57.5q-57 -57 -69 -130.5t-5 -201.5q12 -209 -90 -311q-63 -63 -176 -86q147 -51 147 -183q0 -61 -55 -186q-1 -3 -11.5 -27 t-13 -30t-11.5 -28t-12 -31.5l-9 -28.5t-8.5 -31t-4.5 -28t-2 -29q0 -72 47 -121.5t160 -77.5l-18 -68q-279 59 -279 271q0 34 11.5 76.5t24 74t42.5 101.5q51 114 51 170q0 63 -48 106t-153 43h-26z" />
<glyph unicode="|" horiz-adv-x="493" d="M43 -223l397 1818h78l-397 -1818h-78z" />
<glyph unicode="}" horiz-adv-x="698" d="M-94 -213q90 4 144 22.5t93 57.5q57 57 69 130.5t5 201.5q-12 209 90 311q63 63 176 86q-147 51 -147 182q0 62 55 187q1 3 11.5 27t13 30t11.5 28t12 31.5l9 28.5t8.5 31t4.5 28t2 29q0 72 -47 121.5t-160 77.5l18 67q279 -59 279 -270q0 -34 -11.5 -76.5t-24 -74 t-42.5 -101.5q-51 -114 -51 -170q0 -63 48 -106t153 -43h26l-16 -66h-31q-143 0 -217 -74q-50 -50 -68.5 -121.5t-9.5 -185.5q9 -117 -8.5 -200.5t-87.5 -153.5q-102 -102 -305 -105z" />
<glyph unicode="~" horiz-adv-x="720" d="M127 535q37 89 73 129.5t85 40.5q33 0 55.5 -14t50.5 -46q30 -31 45 -42t31 -11q43 0 90 104l66 -22q-36 -88 -73 -128t-87 -40q-32 0 -55 13.5t-52 43.5q-31 33 -44.5 43t-30.5 10q-41 0 -88 -104z" />
<glyph unicode="&#xa1;" horiz-adv-x="436" d="M49 0l31 143l231 916h49l-170 -916l-30 -143h-111zM317 1264l35 170h127l-35 -170h-127z" />
<glyph unicode="&#xa2;" horiz-adv-x="786" d="M111 565q0 165 55 329.5t151 260.5q115 115 265 115h6l47 172h82l-51 -182q109 -25 196 -130l-67 -61q-74 88 -156 107l-242 -916q28 -4 47 -4q96 0 193 70l39 -70q-110 -86 -240 -86q-41 0 -59 4l-49 -184h-82l57 205q-92 40 -142 136t-50 234zM205 575q0 -223 125 -292 l237 901q-101 -5 -180 -84q-86 -86 -134 -236t-48 -289z" />
<glyph unicode="&#xa3;" horiz-adv-x="876" d="M-23 0l11 45l133 39l123 569h-133l20 84h131l70 320q45 205 137 297q94 94 231 94q187 0 283 -156l-76 -51q-74 121 -209 121q-95 0 -161 -66q-74 -74 -113 -256l-66 -303h383l-18 -84h-383l-123 -567h514l-18 -86h-736z" />
<glyph unicode="&#xa5;" horiz-adv-x="956" d="M90 276l19 80h278l43 203h-278l18 78h256l-207 797h100l183 -756l514 756h112l-559 -797h256l-18 -78h-285l-45 -203h287l-19 -80h-284l-60 -276h-92l60 276h-279z" />
<glyph unicode="&#xa7;" horiz-adv-x="931" d="M78 100l53 74q121 -106 262 -106q87 0 141 44t54 111q0 59 -42.5 104.5t-156.5 110.5q-151 86 -212.5 152.5t-61.5 148.5q0 114 91 185.5t255 72.5q-127 87 -127 205q0 103 79.5 175.5t211.5 72.5q173 0 311 -117l-53 -73q-121 106 -262 106q-87 0 -141 -44.5t-54 -111.5 q0 -59 42.5 -104.5t156.5 -110.5q151 -86 212.5 -152.5t61.5 -148.5q0 -116 -91.5 -187t-256.5 -71q69 -49 99 -97.5t30 -107.5q0 -103 -79.5 -175t-211.5 -72q-175 0 -311 116zM211 748q0 -56 32.5 -97t104.5 -88q95 -59 209 -59q104 0 175 48.5t71 133.5q0 55 -32 95.5 t-105 88.5q-97 60 -209 60q-104 0 -175 -48.5t-71 -133.5z" />
<glyph unicode="&#xa8;" horiz-adv-x="1024" d="M477 1206l31 144h108l-30 -144h-109zM719 1206l31 144h108l-31 -144h-108z" />
<glyph unicode="&#xa9;" horiz-adv-x="1290" d="M96 569q0 199 66.5 392t193.5 319q179 176 414 176q158 0 275 -80t175 -212.5t58 -299.5q0 -199 -66 -391.5t-194 -318.5q-180 -177 -414 -177q-158 0 -275 80t-175 212.5t-58 299.5zM154 567q0 -109 29 -204.5t84 -170t143 -118t198 -43.5q212 0 367 155 q122 122 184 310.5t62 369.5q0 109 -29 204.5t-84 170.5t-143.5 118.5t-198.5 43.5q-211 0 -367 -156q-122 -122 -183.5 -310t-61.5 -370zM426 602q0 121 43 243.5t119 198.5t174 76q100 0 168 -84l-58 -57q-51 65 -114 65q-64 0 -115 -51q-59 -59 -98 -166.5t-39 -216.5 q0 -100 36.5 -156.5t104.5 -56.5q53 0 123 54l37 -62q-83 -67 -164 -67q-100 0 -158.5 74t-58.5 206z" />
<glyph unicode="&#xaa;" horiz-adv-x="612" d="M113 639l14 66h395l-14 -66h-395zM188 979q0 93 56 161t149 68q67 0 139 -28l7 28q8 46 8 68q0 42 -28.5 67t-84.5 25q-54 0 -121 -27l-22 66q80 33 147 33q87 0 135 -41.5t48 -110.5q0 -33 -11 -92l-78 -354h-71l16 80q-23 -28 -40.5 -45t-48 -32.5t-64.5 -15.5 q-60 0 -98 40.5t-38 109.5zM262 983q0 -43 22 -66.5t58 -23.5q55 0 103.5 50.5t62.5 117.5l12 59q-64 27 -123 27q-64 0 -99.5 -49.5t-35.5 -114.5z" />
<glyph unicode="&#xab;" horiz-adv-x="821" d="M72 514l4 16l368 426l60 -47l-328 -397l152 -393l-72 -31zM381 514l2 16l369 426l61 -47l-328 -397l152 -393l-74 -31z" />
<glyph unicode="&#xad;" horiz-adv-x="649" d="M109 561l20 92h442l-20 -92h-442z" />
<glyph unicode="&#xae;" horiz-adv-x="712" d="M178 1014q0 98 34 195.5t99 162.5q95 92 215 92t187 -81t67 -203q0 -98 -34 -195.5t-99 -163.5q-90 -90 -213 -90q-120 0 -188 81t-68 202zM219 1016q0 -103 56.5 -175.5t160.5 -72.5q102 0 180 78q61 61 93 153.5t32 178.5q0 104 -56.5 175.5t-162.5 71.5 q-103 0 -180 -77q-59 -59 -91 -152.5t-32 -179.5zM338 913l82 381h63q70 0 105 -28.5t35 -79.5q0 -43 -26 -76t-71 -45l49 -152h-49l-45 144h-63l-31 -144h-49zM428 1100h39q63 0 84 24q22 22 22 62q0 61 -81 61h-33z" />
<glyph unicode="&#xaf;" horiz-adv-x="1024" d="M442 1225l19 84h442l-18 -84h-443z" />
<glyph unicode="&#xb0;" horiz-adv-x="591" d="M164 1065q0 93 31 173.5t84 133.5q76 76 172 76q87 0 142.5 -64.5t55.5 -171.5q0 -93 -31 -174t-83 -133q-76 -76 -173 -76q-87 0 -142.5 64.5t-55.5 171.5zM244 1069q0 -77 34 -120.5t93 -43.5q57 0 106 49q40 42 66 112t26 142q0 77 -34 120.5t-93 43.5q-57 0 -102 -45 q-44 -44 -70 -114t-26 -144z" />
<glyph unicode="&#xb1;" d="M6 129l21 90h706l-20 -90h-707zM129 698l21 88h307l67 312h88l-67 -312h311l-18 -88h-310l-67 -311h-88l67 311h-311z" />
<glyph unicode="&#xb2;" horiz-adv-x="614" d="M178 926l12 53l332 313q66 63 93.5 108.5t27.5 92.5q0 50 -35.5 80.5t-91.5 30.5q-73 0 -166 -78l-41 55q107 92 215 92q87 0 141 -50t54 -126q0 -60 -31.5 -115t-112.5 -131l-272 -254h334l-16 -71h-443z" />
<glyph unicode="&#xb3;" horiz-adv-x="614" d="M193 1034l53 47q71 -98 180 -98q71 0 113.5 46t42.5 114q0 67 -49.5 102t-139.5 37h-14l-2 47l270 264h-311l16 72h412l-12 -59l-281 -269q86 -14 136 -64t50 -128q0 -99 -66 -165.5t-169 -66.5q-79 0 -138 35.5t-91 85.5z" />
<glyph unicode="&#xb4;" horiz-adv-x="1024" d="M516 1192l205 260l100 -55l-227 -205h-78z" />
<glyph unicode="&#xb6;" horiz-adv-x="780" d="M145 911q0 227 146 373q147 150 420 150h116l-311 -1434h-96l115 532q-193 14 -289 113q-101 101 -101 266z" />
<glyph unicode="&#xb7;" horiz-adv-x="368" d="M115 522l37 174h133l-37 -174h-133z" />
<glyph unicode="&#xb8;" horiz-adv-x="1024" d="M213 -203l188 223h74l-170 -268z" />
<glyph unicode="&#xb9;" horiz-adv-x="499" d="M309 1505l8 78l187 84h67l-159 -741h-76l141 653z" />
<glyph unicode="&#xba;" horiz-adv-x="612" d="M121 639l14 66h404l-17 -66h-401zM203 1053q0 89 30 176t86 143q70 70 154 70t133 -60.5t49 -164.5q0 -89 -30 -176.5t-86 -143.5q-70 -70 -154 -70q-83 0 -132.5 61t-49.5 165zM279 1051q0 -68 29 -111t81 -43q51 0 94 43q44 44 70.5 124t26.5 155q0 68 -29 110.5 t-82 42.5q-51 0 -94 -43q-44 -44 -70 -123t-26 -155z" />
<glyph unicode="&#xbb;" horiz-adv-x="821" d="M2 133l328 397l-152 394l74 30l182 -426l-2 -16l-369 -426zM311 133l328 397l-152 394l72 30l184 -426l-4 -16l-368 -426z" />
<glyph unicode="&#xbc;" horiz-adv-x="1269" d="M59 0l529 731l502 705h79l-530 -734l-500 -702h-80zM221 1276l8 78l187 84h67l-159 -742h-76l141 654zM602 160l4 57l412 526h96l-113 -520h86l-14 -63h-86l-35 -162h-69l35 162h-316zM692 223h240l88 412h-8z" />
<glyph unicode="&#xbd;" horiz-adv-x="1269" d="M14 0l529 731l501 705h80l-530 -734l-500 -702h-80zM221 1276l8 78l187 84h67l-159 -742h-76l141 654zM580 0l12 53l332 314q66 63 93 108t27 92q0 51 -35 81t-91 30q-73 0 -166 -78l-41 55q108 93 215 93q86 0 140 -50.5t54 -126.5q0 -60 -31 -114.5t-112 -130.5 l-272 -254h333l-16 -72h-442z" />
<glyph unicode="&#xbe;" horiz-adv-x="1382" d="M102 805l54 47q71 -98 180 -98q71 0 113.5 45.5t42.5 113.5q0 67 -49.5 102.5t-139.5 37.5h-14l-2 47l270 264h-311l16 72h412l-12 -60l-281 -268q86 -14 136 -64.5t50 -128.5q0 -99 -66 -165t-169 -66q-79 0 -138.5 35.5t-91.5 85.5zM174 0l528 731l502 705h80 l-530 -734l-500 -702h-80zM721 160l4 57l412 526h96l-113 -520h86l-14 -63h-86l-35 -162h-70l35 162h-315zM811 223h240l88 412h-9z" />
<glyph unicode="&#xbf;" horiz-adv-x="786" d="M43 305q0 175 117 294t301 161l82 299h59l-55 -359l-15 -12q-184 -30 -288.5 -133.5t-104.5 -247.5q0 -110 65.5 -170.5t162.5 -60.5q125 0 262 104l47 -74q-150 -118 -311 -118q-146 0 -234 88t-88 229zM551 1264l35 170h129l-37 -170h-127z" />
<glyph unicode="&#xc0;" horiz-adv-x="1089" d="M-51 0l749 1442h101l123 -1442h-97l-30 401h-539l-207 -401h-100zM299 487h487l-63 822zM565 1720l101 49l139 -223h-70z" />
<glyph unicode="&#xc1;" horiz-adv-x="1089" d="M-51 0l749 1442h101l123 -1442h-97l-30 401h-539l-207 -401h-100zM299 487h487l-63 822zM721 1546l197 223l104 -51l-217 -172h-84z" />
<glyph unicode="&#xc2;" horiz-adv-x="1089" d="M-51 0l749 1442h101l123 -1442h-97l-30 401h-539l-207 -401h-100zM299 487h487l-63 822zM555 1552l215 207h86l125 -207h-90l-94 121l-146 -121h-96z" />
<glyph unicode="&#xc3;" horiz-adv-x="1089" d="M-51 0l749 1442h101l123 -1442h-97l-30 401h-539l-207 -401h-100zM299 487h487l-63 822zM541 1569q37 76 72 110.5t83 34.5q45 0 109 -41q55 -37 86 -37q25 0 44 18t44 60l68 -20q-37 -76 -73 -111t-85 -35q-41 0 -107 41q-61 39 -86 39q-26 0 -44 -18t-44 -62z" />
<glyph unicode="&#xc4;" horiz-adv-x="1089" d="M-51 0l749 1442h101l123 -1442h-97l-30 401h-539l-207 -401h-100zM299 487h487l-63 822zM588 1559l28 139h119l-28 -139h-119zM852 1559l29 139h118l-28 -139h-119z" />
<glyph unicode="&#xc5;" horiz-adv-x="1089" d="M-51 0l713 1370q-38 19 -60 54t-22 79q0 76 58 129.5t140 53.5q72 0 119 -44t47 -108q0 -62 -39 -109t-100 -65l117 -1360h-97l-30 401h-539l-207 -401h-100zM299 487h487l-63 822zM649 1507q0 -42 28 -69t73 -27q54 0 89 34.5t35 82.5q0 42 -27 70t-73 28 q-54 0 -89.5 -35t-35.5 -84z" />
<glyph unicode="&#xc6;" horiz-adv-x="1431" d="M-86 0l877 1434h759l-20 -88h-565l-127 -580h514l-21 -86h-512l-129 -592h576l-21 -88h-670l87 401h-400l-244 -401h-104zM313 487h367l188 861h-32z" />
<glyph unicode="&#xc7;" horiz-adv-x="964" d="M123 498q0 218 75.5 442t211.5 360q150 150 331 150q171 0 301 -164l-71 -59q-55 68 -110 100.5t-124 32.5q-139 0 -256 -117q-116 -116 -189 -325t-73 -418q0 -198 79.5 -312t221.5 -114q123 0 250 106l51 -69q-148 -127 -303 -127q-21 0 -31 2l-147 -234l-92 45 l168 199q-136 36 -214.5 166.5t-78.5 335.5z" />
<glyph unicode="&#xc8;" d="M35 0l311 1434h670l-19 -88h-573l-127 -580h520l-20 -86h-518l-129 -592h583l-20 -88h-678zM479 1708l101 49l139 -223h-70z" />
<glyph unicode="&#xc9;" d="M35 0l311 1434h670l-19 -88h-573l-127 -580h520l-20 -86h-518l-129 -592h583l-20 -88h-678zM635 1534l196 223l105 -51l-217 -172h-84z" />
<glyph unicode="&#xca;" d="M35 0l311 1434h670l-19 -88h-573l-127 -580h520l-20 -86h-518l-129 -592h583l-20 -88h-678zM471 1540l215 207h86l125 -207h-90l-94 121l-146 -121h-96z" />
<glyph unicode="&#xcb;" d="M35 0l311 1434h670l-19 -88h-573l-127 -580h520l-20 -86h-518l-129 -592h583l-20 -88h-678zM502 1546l28 140h119l-28 -140h-119zM766 1546l29 140h118l-28 -140h-119z" />
<glyph unicode="&#xcc;" horiz-adv-x="421" d="M49 0l311 1434h97l-312 -1434h-96zM221 1708l101 49l139 -223h-70z" />
<glyph unicode="&#xcd;" horiz-adv-x="421" d="M49 0l311 1434h97l-312 -1434h-96zM377 1534l196 223l105 -51l-217 -172h-84z" />
<glyph unicode="&#xce;" horiz-adv-x="421" d="M49 0l311 1434h97l-312 -1434h-96zM211 1540l215 207h86l125 -207h-90l-94 121l-146 -121h-96z" />
<glyph unicode="&#xcf;" horiz-adv-x="421" d="M49 0l311 1434h97l-312 -1434h-96zM244 1546l28 140h119l-29 -140h-118zM508 1546l29 140h118l-28 -140h-119z" />
<glyph unicode="&#xd0;" horiz-adv-x="1114" d="M63 0l148 678h-127l18 86h127l146 670h198q228 0 359 -131q139 -139 139 -418q0 -175 -65 -368.5t-195 -323.5q-193 -193 -487 -193h-261zM178 88h164q235 0 399 164q115 115 174.5 293t59.5 334q0 243 -117 360q-107 107 -291 107h-116l-125 -582h284l-20 -86h-283z" />
<glyph unicode="&#xd1;" horiz-adv-x="1122" d="M35 0l311 1434h92l377 -1229l266 1229h93l-312 -1434h-78l-385 1260l-272 -1260h-92zM541 1546q37 76 72.5 111t82.5 35q45 0 109 -41q55 -37 86 -37q25 0 44 18t44 60l68 -21q-37 -76 -73 -110.5t-85 -34.5q-41 0 -107 41q-61 39 -86 39q-26 0 -44 -18t-44 -62z" />
<glyph unicode="&#xd2;" horiz-adv-x="1146" d="M121 483q0 217 79.5 455.5t215.5 374.5q141 141 315 141q175 0 276 -135t101 -369q0 -217 -79.5 -455t-215.5 -374q-141 -141 -315 -141q-175 0 -276 134.5t-101 368.5zM217 487q0 -197 75.5 -308t211.5 -111q129 0 239 110q120 120 194.5 346.5t74.5 421.5 q0 197 -75.5 308.5t-211.5 111.5q-129 0 -240 -111q-120 -120 -194 -346t-74 -422zM569 1720l101 49l139 -223h-70z" />
<glyph unicode="&#xd3;" horiz-adv-x="1146" d="M121 483q0 217 79.5 455.5t215.5 374.5q141 141 315 141q175 0 276 -135t101 -369q0 -217 -79.5 -455t-215.5 -374q-141 -141 -315 -141q-175 0 -276 134.5t-101 368.5zM217 487q0 -197 75.5 -308t211.5 -111q129 0 239 110q120 120 194.5 346.5t74.5 421.5 q0 197 -75.5 308.5t-211.5 111.5q-129 0 -240 -111q-120 -120 -194 -346t-74 -422zM725 1546l197 223l104 -51l-217 -172h-84z" />
<glyph unicode="&#xd4;" horiz-adv-x="1146" d="M121 483q0 217 79.5 455.5t215.5 374.5q141 141 315 141q175 0 276 -135t101 -369q0 -217 -79.5 -455t-215.5 -374q-141 -141 -315 -141q-175 0 -276 134.5t-101 368.5zM217 487q0 -197 75.5 -308t211.5 -111q129 0 239 110q120 120 194.5 346.5t74.5 421.5 q0 197 -75.5 308.5t-211.5 111.5q-129 0 -240 -111q-120 -120 -194 -346t-74 -422zM559 1552l215 207h86l125 -207h-90l-94 121l-146 -121h-96z" />
<glyph unicode="&#xd5;" horiz-adv-x="1146" d="M121 483q0 217 79.5 455.5t215.5 374.5q141 141 315 141q175 0 276 -135t101 -369q0 -217 -79.5 -455t-215.5 -374q-141 -141 -315 -141q-175 0 -276 134.5t-101 368.5zM217 487q0 -197 75.5 -308t211.5 -111q129 0 239 110q120 120 194.5 346.5t74.5 421.5 q0 197 -75.5 308.5t-211.5 111.5q-129 0 -240 -111q-120 -120 -194 -346t-74 -422zM545 1569q37 76 72 110.5t83 34.5q45 0 109 -41q55 -37 86 -37q25 0 44 18t44 60l68 -20q-37 -76 -73 -111t-85 -35q-41 0 -107 41q-61 39 -86 39q-26 0 -44 -18t-44 -62z" />
<glyph unicode="&#xd6;" horiz-adv-x="1146" d="M121 483q0 217 79.5 455.5t215.5 374.5q141 141 315 141q175 0 276 -135t101 -369q0 -217 -79.5 -455t-215.5 -374q-141 -141 -315 -141q-175 0 -276 134.5t-101 368.5zM217 487q0 -197 75.5 -308t211.5 -111q129 0 239 110q120 120 194.5 346.5t74.5 421.5 q0 197 -75.5 308.5t-211.5 111.5q-129 0 -240 -111q-120 -120 -194 -346t-74 -422zM590 1559l28 139h119l-28 -139h-119zM854 1559l29 139h118l-28 -139h-119z" />
<glyph unicode="&#xd7;" d="M115 455l317 272l-192 266l69 54l191 -265l313 269l53 -64l-317 -272l192 -266l-69 -54l-191 264l-313 -268z" />
<glyph unicode="&#xd8;" horiz-adv-x="1146" d="M-29 -14l193 231q-43 110 -43 266q0 217 79.5 455.5t215.5 374.5q141 141 315 141q188 0 291 -156l127 150h108l-192 -236q43 -110 43 -262q0 -217 -79.5 -455t-215.5 -374q-141 -141 -315 -141q-190 0 -291 153l-127 -147h-109zM217 487q0 -103 21 -180l720 910 q-73 149 -233 149q-129 0 -240 -111q-120 -120 -194 -346t-74 -422zM270 215q77 -147 234 -147q129 0 239 110q120 120 194.5 346.5t74.5 421.5q0 87 -21 176z" />
<glyph unicode="&#xd9;" horiz-adv-x="1083" d="M111 317q0 75 26 205l197 912h96l-205 -949q-18 -86 -18 -161q0 -119 71 -187.5t201 -68.5q127 0 217 90q97 98 144 299l211 977h96l-215 -992q-51 -228 -166 -340q-119 -122 -295 -122q-170 0 -265 91t-95 246zM532 1698l101 49l139 -223h-70z" />
<glyph unicode="&#xda;" horiz-adv-x="1083" d="M111 317q0 75 26 205l197 912h96l-205 -949q-18 -86 -18 -161q0 -119 71 -187.5t201 -68.5q127 0 217 90q97 98 144 299l211 977h96l-215 -992q-51 -228 -166 -340q-119 -122 -295 -122q-170 0 -265 91t-95 246zM688 1524l197 223l104 -51l-217 -172h-84z" />
<glyph unicode="&#xdb;" horiz-adv-x="1083" d="M111 317q0 75 26 205l197 912h96l-205 -949q-18 -86 -18 -161q0 -119 71 -187.5t201 -68.5q127 0 217 90q97 98 144 299l211 977h96l-215 -992q-51 -228 -166 -340q-119 -122 -295 -122q-170 0 -265 91t-95 246zM522 1530l215 207h86l125 -207h-90l-94 121l-146 -121h-96 z" />
<glyph unicode="&#xdc;" horiz-adv-x="1083" d="M111 317q0 75 26 205l197 912h96l-205 -949q-18 -86 -18 -161q0 -119 71 -187.5t201 -68.5q127 0 217 90q97 98 144 299l211 977h96l-215 -992q-51 -228 -166 -340q-119 -122 -295 -122q-170 0 -265 91t-95 246zM553 1536l29 139h118l-28 -139h-119zM817 1536l29 139h119 l-29 -139h-119z" />
<glyph unicode="&#xdd;" horiz-adv-x="948" d="M213 1434h100l193 -732l508 732h114l-596 -840l-129 -594h-96l131 606zM614 1524l197 223l104 -51l-217 -172h-84z" />
<glyph unicode="&#xde;" horiz-adv-x="962" d="M35 0l311 1434h96l-55 -254h137q221 0 326 -105q98 -98 98 -264q0 -106 -37 -205t-110 -172q-158 -158 -443 -158h-168l-59 -276h-96zM209 362h151q241 0 371 130q119 119 119 323q0 127 -72 199q-78 78 -262 78h-147z" />
<glyph unicode="&#xdf;" d="M18 0l236 1090q41 190 135 284q96 96 229 96q125 0 205 -81t80 -211q0 -153 -93.5 -270.5t-252.5 -164.5q240 -102 240 -327q0 -90 -33.5 -167.5t-96.5 -136t-163.5 -90t-224.5 -26.5l18 78q106 -1 185.5 25.5t126.5 75t70 110t23 135.5q0 215 -268 287l17 73 q171 36 264.5 144.5t93.5 249.5q0 96 -52.5 153t-142.5 57q-203 0 -276 -321l-229 -1063h-91z" />
<glyph unicode="&#xe0;" horiz-adv-x="841" d="M16 264q0 81 30.5 161t88.5 138q103 103 260 103q119 0 254 -56l8 41q21 114 21 158q0 86 -53.5 135t-157.5 49q-115 0 -211 -47l-31 78q121 55 246 55q141 0 219 -69t78 -189q0 -55 -25 -180l-137 -641h-90l35 156q-122 -176 -283 -176q-112 0 -182 75.5t-70 208.5z M109 268q0 -98 48 -153.5t132 -55.5q109 0 194 89.5t115 224.5l35 157q-49 25 -115.5 40.5t-122.5 15.5q-118 0 -192 -74q-44 -44 -69 -110t-25 -134zM330 1403l100 55l125 -260h-63z" />
<glyph unicode="&#xe1;" horiz-adv-x="841" d="M16 264q0 81 30.5 161t88.5 138q103 103 260 103q119 0 254 -56l8 41q21 114 21 158q0 86 -53.5 135t-157.5 49q-115 0 -211 -47l-31 78q121 55 246 55q141 0 219 -69t78 -189q0 -55 -25 -180l-137 -641h-90l35 156q-122 -176 -283 -176q-112 0 -182 75.5t-70 208.5z M109 268q0 -98 48 -153.5t132 -55.5q109 0 194 89.5t115 224.5l35 157q-49 25 -115.5 40.5t-122.5 15.5q-118 0 -192 -74q-44 -44 -69 -110t-25 -134zM487 1198l205 260l101 -55l-228 -205h-78z" />
<glyph unicode="&#xe2;" horiz-adv-x="841" d="M16 264q0 81 30.5 161t88.5 138q103 103 260 103q119 0 254 -56l8 41q21 114 21 158q0 86 -53.5 135t-157.5 49q-115 0 -211 -47l-31 78q121 55 246 55q141 0 219 -69t78 -189q0 -55 -25 -180l-137 -641h-90l35 156q-122 -176 -283 -176q-112 0 -182 75.5t-70 208.5z M109 268q0 -98 48 -153.5t132 -55.5q109 0 194 89.5t115 224.5l35 157q-49 25 -115.5 40.5t-122.5 15.5q-118 0 -192 -74q-44 -44 -69 -110t-25 -134zM340 1204l211 250h74l100 -250h-76l-78 150l-149 -150h-82z" />
<glyph unicode="&#xe3;" horiz-adv-x="841" d="M16 264q0 81 30.5 161t88.5 138q103 103 260 103q119 0 254 -56l8 41q21 114 21 158q0 86 -53.5 135t-157.5 49q-115 0 -211 -47l-31 78q121 55 246 55q141 0 219 -69t78 -189q0 -55 -25 -180l-137 -641h-90l35 156q-122 -176 -283 -176q-112 0 -182 75.5t-70 208.5z M109 268q0 -98 48 -153.5t132 -55.5q109 0 194 89.5t115 224.5l35 157q-49 25 -115.5 40.5t-122.5 15.5q-118 0 -192 -74q-44 -44 -69 -110t-25 -134zM317 1217q34 87 70.5 126t83.5 39q43 0 102 -49q50 -47 80 -47q43 0 84 96l64 -18q-34 -87 -70.5 -125.5t-85.5 -38.5 q-48 0 -100 49q-53 47 -80 47q-43 0 -86 -98z" />
<glyph unicode="&#xe4;" horiz-adv-x="841" d="M16 264q0 81 30.5 161t88.5 138q103 103 260 103q119 0 254 -56l8 41q21 114 21 158q0 86 -53.5 135t-157.5 49q-115 0 -211 -47l-31 78q121 55 246 55q141 0 219 -69t78 -189q0 -55 -25 -180l-137 -641h-90l35 156q-122 -176 -283 -176q-112 0 -182 75.5t-70 208.5z M109 268q0 -98 48 -153.5t132 -55.5q109 0 194 89.5t115 224.5l35 157q-49 25 -115.5 40.5t-122.5 15.5q-118 0 -192 -74q-44 -44 -69 -110t-25 -134zM369 1212l30 144h109l-31 -144h-108zM610 1212l31 144h109l-31 -144h-109z" />
<glyph unicode="&#xe5;" horiz-adv-x="841" d="M16 264q0 81 30.5 161t88.5 138q103 103 260 103q119 0 254 -56l8 41q21 114 21 158q0 86 -53.5 135t-157.5 49q-115 0 -211 -47l-31 78q121 55 246 55q141 0 219 -69t78 -189q0 -55 -25 -180l-137 -641h-90l35 156q-122 -176 -283 -176q-112 0 -182 75.5t-70 208.5z M109 268q0 -98 48 -153.5t132 -55.5q109 0 194 89.5t115 224.5l35 157q-49 25 -115.5 40.5t-122.5 15.5q-118 0 -192 -74q-44 -44 -69 -110t-25 -134zM397 1356q0 77 57 133.5t138 56.5q71 0 117.5 -46t46.5 -114q0 -77 -57 -132.5t-138 -55.5q-72 0 -118 45t-46 113z M461 1360q0 -45 27.5 -76t76.5 -31q55 0 91 38t36 91q0 46 -27 76.5t-75 30.5q-55 0 -92 -38t-37 -91z" />
<glyph unicode="&#xe6;" horiz-adv-x="1396" d="M16 264q0 90 32.5 167.5t86.5 131.5q103 103 260 103q119 0 254 -56l8 41q21 114 21 158q0 86 -53.5 135t-157.5 49q-115 0 -211 -47l-31 78q121 55 246 55q122 0 196 -55.5t89 -155.5q60 99 141 158t174 59q125 0 195.5 -92.5t70.5 -253.5q0 -110 -34 -241h-598 q-7 -65 -7 -107q0 -154 67.5 -238.5t178.5 -84.5t221 82l41 -74q-139 -92 -262 -92q-115 0 -194 64.5t-111 189.5q-159 -258 -360 -258q-120 0 -191.5 75.5t-71.5 208.5zM109 268q0 -98 49.5 -153.5t134.5 -55.5q97 0 176.5 73t153.5 200q-6 104 10 196q-49 26 -115.5 42 t-122.5 16q-118 0 -192 -74q-44 -44 -69 -110t-25 -134zM719 578h510q20 76 20 163q0 119 -46 189.5t-138 70.5q-95 0 -176 -81q-118 -115 -170 -342z" />
<glyph unicode="&#xe7;" horiz-adv-x="743" d="M59 369q0 166 61 331t161 265q118 118 258 118q143 0 243 -120l-65 -64q-25 29 -46.5 48t-59 35.5t-79.5 16.5q-96 0 -184 -88q-87 -87 -140.5 -238t-53.5 -288q0 -159 61 -238t156 -79q89 0 180 71l47 -69q-104 -86 -231 -86h-13l-145 -232l-92 45l166 197 q-103 27 -163.5 123.5t-60.5 251.5z" />
<glyph unicode="&#xe8;" horiz-adv-x="851" d="M63 389q0 165 60 325t158 257q111 114 245 114q124 0 195.5 -93t71.5 -253q0 -107 -35 -241h-598q-6 -56 -6 -107q0 -154 67.5 -238.5t177.5 -84.5q112 0 222 82l41 -74q-139 -92 -267 -92q-150 0 -241 105t-91 300zM174 578h510q18 68 18 163q0 119 -46 189.5t-136 70.5 q-95 0 -176 -81q-118 -115 -170 -342zM362 1403l101 55l125 -260h-64z" />
<glyph unicode="&#xe9;" horiz-adv-x="851" d="M63 389q0 165 60 325t158 257q111 114 245 114q124 0 195.5 -93t71.5 -253q0 -107 -35 -241h-598q-6 -56 -6 -107q0 -154 67.5 -238.5t177.5 -84.5q112 0 222 82l41 -74q-139 -92 -267 -92q-150 0 -241 105t-91 300zM174 578h510q18 68 18 163q0 119 -46 189.5t-136 70.5 q-95 0 -176 -81q-118 -115 -170 -342zM518 1198l205 260l100 -55l-227 -205h-78z" />
<glyph unicode="&#xea;" horiz-adv-x="851" d="M63 389q0 165 60 325t158 257q111 114 245 114q124 0 195.5 -93t71.5 -253q0 -107 -35 -241h-598q-6 -56 -6 -107q0 -154 67.5 -238.5t177.5 -84.5q112 0 222 82l41 -74q-139 -92 -267 -92q-150 0 -241 105t-91 300zM174 578h510q18 68 18 163q0 119 -46 189.5t-136 70.5 q-95 0 -176 -81q-118 -115 -170 -342zM373 1204l211 250h73l101 -250h-76l-78 150l-149 -150h-82z" />
<glyph unicode="&#xeb;" horiz-adv-x="851" d="M63 389q0 165 60 325t158 257q111 114 245 114q124 0 195.5 -93t71.5 -253q0 -107 -35 -241h-598q-6 -56 -6 -107q0 -154 67.5 -238.5t177.5 -84.5q112 0 222 82l41 -74q-139 -92 -267 -92q-150 0 -241 105t-91 300zM174 578h510q18 68 18 163q0 119 -46 189.5t-136 70.5 q-95 0 -176 -81q-118 -115 -170 -342zM397 1212l31 144h109l-31 -144h-109zM639 1212l31 144h108l-30 -144h-109z" />
<glyph unicode="&#xec;" horiz-adv-x="380" d="M31 0l229 1067h90l-229 -1067h-90zM129 1397l100 55l125 -260h-63z" />
<glyph unicode="&#xed;" horiz-adv-x="380" d="M31 0l229 1067h90l-229 -1067h-90zM287 1192l205 260l100 -55l-227 -205h-78z" />
<glyph unicode="&#xee;" horiz-adv-x="380" d="M31 0l229 1067h90l-229 -1067h-90zM139 1198l211 250h74l100 -250h-75l-78 150l-150 -150h-82z" />
<glyph unicode="&#xef;" horiz-adv-x="380" d="M31 0l229 1067h90l-229 -1067h-90zM166 1206l31 144h108l-31 -144h-108zM408 1206l30 144h109l-31 -144h-108z" />
<glyph unicode="&#xf0;" d="M66 377q0 175 57.5 337t148.5 253q110 110 244 110q148 0 234 -157q-31 159 -136 346l-202 -90l-31 69l194 86q-44 70 -86 131h105l57 -96l176 78l31 -68l-170 -76q152 -288 152 -552q0 -211 -62 -384t-157 -268q-111 -114 -256 -114q-136 0 -217.5 107t-81.5 288z M158 375q0 -144 57.5 -226.5t157.5 -82.5t186 86q78 78 129 230.5t51 303.5q0 141 -60 225t-161 84q-99 0 -178 -82q-79 -77 -130.5 -231.5t-51.5 -306.5z" />
<glyph unicode="&#xf1;" horiz-adv-x="903" d="M18 0l232 1067h90l-37 -170q124 188 291 188q107 0 171 -66.5t64 -187.5q0 -78 -20 -178l-141 -653h-90l143 662q18 88 18 163q0 87 -45 134t-127 47q-104 0 -192.5 -93.5t-116.5 -226.5l-149 -686h-91zM369 1217q34 88 70 126.5t83 38.5q44 0 103 -49q50 -47 80 -47 q42 0 83 96l64 -18q-34 -87 -70.5 -125.5t-85.5 -38.5q-48 0 -100 49q-53 47 -80 47q-43 0 -86 -98z" />
<glyph unicode="&#xf2;" horiz-adv-x="903" d="M66 381q0 173 56 331.5t154 256.5q116 116 261 116q137 0 219 -107t82 -292q0 -173 -56.5 -331.5t-154.5 -256.5q-116 -116 -260 -116q-137 0 -219 107t-82 292zM158 385q0 -153 57.5 -236t157.5 -83q98 0 186 88q86 86 136 232.5t50 295.5q0 153 -57.5 236t-157.5 83 q-98 0 -186 -88q-86 -86 -136 -232.5t-50 -295.5zM379 1403l100 55l125 -260h-63z" />
<glyph unicode="&#xf3;" horiz-adv-x="903" d="M66 381q0 173 56 331.5t154 256.5q116 116 261 116q137 0 219 -107t82 -292q0 -173 -56.5 -331.5t-154.5 -256.5q-116 -116 -260 -116q-137 0 -219 107t-82 292zM158 385q0 -153 57.5 -236t157.5 -83q98 0 186 88q86 86 136 232.5t50 295.5q0 153 -57.5 236t-157.5 83 q-98 0 -186 -88q-86 -86 -136 -232.5t-50 -295.5zM535 1198l204 260l101 -55l-228 -205h-77z" />
<glyph unicode="&#xf4;" horiz-adv-x="903" d="M66 381q0 173 56 331.5t154 256.5q116 116 261 116q137 0 219 -107t82 -292q0 -173 -56.5 -331.5t-154.5 -256.5q-116 -116 -260 -116q-137 0 -219 107t-82 292zM158 385q0 -153 57.5 -236t157.5 -83q98 0 186 88q86 86 136 232.5t50 295.5q0 153 -57.5 236t-157.5 83 q-98 0 -186 -88q-86 -86 -136 -232.5t-50 -295.5zM389 1204l211 250h74l100 -250h-76l-77 150l-150 -150h-82z" />
<glyph unicode="&#xf5;" horiz-adv-x="903" d="M66 381q0 173 56 331.5t154 256.5q116 116 261 116q137 0 219 -107t82 -292q0 -173 -56.5 -331.5t-154.5 -256.5q-116 -116 -260 -116q-137 0 -219 107t-82 292zM158 385q0 -153 57.5 -236t157.5 -83q98 0 186 88q86 86 136 232.5t50 295.5q0 153 -57.5 236t-157.5 83 q-98 0 -186 -88q-86 -86 -136 -232.5t-50 -295.5zM367 1217q34 88 70 126.5t83 38.5q44 0 103 -49q50 -47 79 -47q43 0 84 96l64 -18q-34 -87 -70.5 -125.5t-85.5 -38.5q-48 0 -100 49q-53 47 -80 47q-43 0 -86 -98z" />
<glyph unicode="&#xf6;" horiz-adv-x="903" d="M66 381q0 173 56 331.5t154 256.5q116 116 261 116q137 0 219 -107t82 -292q0 -173 -56.5 -331.5t-154.5 -256.5q-116 -116 -260 -116q-137 0 -219 107t-82 292zM158 385q0 -153 57.5 -236t157.5 -83q98 0 186 88q86 86 136 232.5t50 295.5q0 153 -57.5 236t-157.5 83 q-98 0 -186 -88q-86 -86 -136 -232.5t-50 -295.5zM416 1212l30 144h109l-31 -144h-108zM657 1212l31 144h109l-31 -144h-109z" />
<glyph unicode="&#xf7;" d="M119 674l20 94h723l-20 -94h-723zM342 334l35 158h129l-35 -158h-129zM475 950l35 158h129l-35 -158h-129z" />
<glyph unicode="&#xf8;" horiz-adv-x="903" d="M-47 -10l149 176q-36 85 -36 215q0 173 56 331.5t154 256.5q116 116 261 116q142 0 221 -112l92 102h100l-151 -176q39 -92 39 -213q0 -173 -56.5 -331.5t-154.5 -256.5q-116 -116 -260 -116q-147 0 -224 112l-90 -104h-100zM156 385q0 -82 14 -137l532 651 q-60 105 -172 105q-97 0 -188 -91q-86 -86 -136 -232t-50 -296zM201 168q55 -105 172 -105q97 0 188 91q86 86 136.5 232t50.5 296q0 69 -17 135z" />
<glyph unicode="&#xf9;" horiz-adv-x="903" d="M76 236q0 78 20 178l142 653h90l-144 -661q-18 -88 -18 -164q0 -87 45 -134t127 -47q104 0 192.5 93.5t116.5 226.5l150 686h90l-232 -1067h-90l37 170q-124 -188 -291 -188q-107 0 -171 66.5t-64 187.5zM375 1391l100 55l125 -260h-63z" />
<glyph unicode="&#xfa;" horiz-adv-x="903" d="M76 236q0 78 20 178l142 653h90l-144 -661q-18 -88 -18 -164q0 -87 45 -134t127 -47q104 0 192.5 93.5t116.5 226.5l150 686h90l-232 -1067h-90l37 170q-124 -188 -291 -188q-107 0 -171 66.5t-64 187.5zM530 1186l205 260l101 -55l-228 -205h-78z" />
<glyph unicode="&#xfb;" horiz-adv-x="903" d="M76 236q0 78 20 178l142 653h90l-144 -661q-18 -88 -18 -164q0 -87 45 -134t127 -47q104 0 192.5 93.5t116.5 226.5l150 686h90l-232 -1067h-90l37 170q-124 -188 -291 -188q-107 0 -171 66.5t-64 187.5zM385 1192l211 250h74l100 -250h-76l-78 149l-149 -149h-82z" />
<glyph unicode="&#xfc;" horiz-adv-x="903" d="M76 236q0 78 20 178l142 653h90l-144 -661q-18 -88 -18 -164q0 -87 45 -134t127 -47q104 0 192.5 93.5t116.5 226.5l150 686h90l-232 -1067h-90l37 170q-124 -188 -291 -188q-107 0 -171 66.5t-64 187.5zM410 1200l30 143h109l-31 -143h-108zM651 1200l31 143h109 l-31 -143h-109z" />
<glyph unicode="&#xfd;" horiz-adv-x="835" d="M-92 -233l45 79q57 -49 110 -49q48 0 89.5 43.5t105.5 161.5l-100 1065h92l78 -936l460 936h99l-543 -1081q-76 -153 -141.5 -215t-143.5 -62q-85 0 -151 58zM477 1186l205 260l100 -55l-227 -205h-78z" />
<glyph unicode="&#xfe;" horiz-adv-x="935" d="M-43 -285l379 1747h90l-127 -581q135 204 303 204q123 0 195.5 -102t72.5 -285q0 -170 -57.5 -339t-163.5 -275q-102 -102 -227 -102q-104 0 -170.5 70.5t-91.5 183.5l-113 -521h-90zM203 375q0 -141 61 -226.5t156 -85.5q90 0 166 76q89 89 140.5 242t51.5 309 q0 148 -50 232t-148 84q-96 0 -187 -91q-85 -85 -137.5 -239t-52.5 -301z" />
<glyph unicode="&#xff;" horiz-adv-x="835" d="M-92 -233l45 79q57 -49 110 -49q48 0 89.5 43.5t105.5 161.5l-100 1065h92l78 -936l460 936h99l-543 -1081q-76 -153 -141.5 -215t-143.5 -62q-85 0 -151 58zM356 1200l31 143h109l-31 -143h-109zM598 1200l31 143h108l-30 -143h-109z" />
<glyph unicode="&#x152;" horiz-adv-x="1560" d="M125 549q0 175 65 368.5t195 323.5q193 193 487 193h807l-20 -88h-565l-127 -580h512l-19 -86h-512l-129 -592h576l-21 -88h-751q-228 0 -359 131q-139 139 -139 418zM221 555q0 -243 117 -360q107 -107 291 -107h94l272 1258h-141q-235 0 -399 -164 q-115 -115 -174.5 -293t-59.5 -334z" />
<glyph unicode="&#x153;" horiz-adv-x="1497" d="M66 381q0 172 57.5 331t155.5 257q116 116 258 116q113 0 185.5 -75t96.5 -207q27 55 60 102.5t76.5 89.5t99 66t116.5 24q125 0 196 -92.5t71 -253.5q0 -107 -35 -241h-596q-6 -56 -6 -107q0 -155 67.5 -239t182.5 -84q109 0 229 86l12 -84q-107 -86 -245 -86 q-124 0 -208 72.5t-110 209.5q-59 -126 -152 -205t-210 -79q-137 0 -219 107t-82 292zM158 385q0 -153 57.5 -236t157.5 -83q98 0 186 88q86 86 136 232.5t50 295.5q0 153 -57.5 236t-157.5 83q-98 0 -186 -88q-86 -86 -136 -232.5t-50 -295.5zM821 578h508q21 80 21 163 q0 119 -46.5 189.5t-138.5 70.5q-95 0 -176 -81q-115 -112 -168 -342z" />
<glyph unicode="&#x178;" horiz-adv-x="948" d="M213 1434h100l193 -732l508 732h114l-596 -840l-129 -594h-96l131 606zM481 1536l29 139h119l-29 -139h-119zM745 1536l29 139h119l-29 -139h-119z" />
<glyph unicode="&#x2c6;" horiz-adv-x="1024" d="M465 1198l211 250h74l100 -250h-76l-78 150l-149 -150h-82z" />
<glyph unicode="&#x2dc;" horiz-adv-x="1024" d="M434 1210q34 88 70.5 127t83.5 39q43 0 102 -49q50 -47 80 -47q43 0 84 96l64 -18q-34 -87 -70.5 -125.5t-85.5 -38.5q-48 0 -100 49q-53 47 -80 47q-43 0 -86 -98z" />
<glyph unicode="&#x2000;" horiz-adv-x="884" />
<glyph unicode="&#x2001;" horiz-adv-x="1769" />
<glyph unicode="&#x2002;" horiz-adv-x="884" />
<glyph unicode="&#x2003;" horiz-adv-x="1769" />
<glyph unicode="&#x2004;" horiz-adv-x="589" />
<glyph unicode="&#x2005;" horiz-adv-x="442" />
<glyph unicode="&#x2006;" horiz-adv-x="294" />
<glyph unicode="&#x2007;" horiz-adv-x="294" />
<glyph unicode="&#x2008;" horiz-adv-x="221" />
<glyph unicode="&#x2009;" horiz-adv-x="353" />
<glyph unicode="&#x200a;" horiz-adv-x="98" />
<glyph unicode="&#x2010;" horiz-adv-x="649" d="M109 561l20 92h442l-20 -92h-442z" />
<glyph unicode="&#x2011;" horiz-adv-x="649" d="M109 561l20 92h442l-20 -92h-442z" />
<glyph unicode="&#x2012;" horiz-adv-x="649" d="M109 561l20 92h442l-20 -92h-442z" />
<glyph unicode="&#x2013;" horiz-adv-x="909" d="M109 561l18 90h702l-18 -90h-702z" />
<glyph unicode="&#x2014;" horiz-adv-x="1413" d="M109 561l18 90h1206l-18 -90h-1206z" />
<glyph unicode="&#x2018;" horiz-adv-x="364" d="M227 1057l31 147q23 102 67.5 151.5t139.5 80.5l18 -52q-72 -30 -104 -64t-41 -93h55l-35 -170h-131z" />
<glyph unicode="&#x2019;" horiz-adv-x="364" d="M188 1106q71 28 104 63.5t42 94.5h-55l34 170h131l-32 -148q-23 -102 -67 -151.5t-138 -81.5z" />
<glyph unicode="&#x201a;" horiz-adv-x="364" d="M-88 -158q72 28 105 63t40 95h-55l37 170h129l-31 -147q-23 -102 -67.5 -151.5t-139.5 -82.5z" />
<glyph unicode="&#x201c;" horiz-adv-x="667" d="M227 1057l31 147q23 102 67.5 151.5t139.5 80.5l18 -52q-73 -30 -105.5 -64t-39.5 -93h55l-37 -170h-129zM528 1057l33 147q23 102 67 151.5t138 80.5l18 -52q-72 -30 -104 -64t-41 -93h55l-35 -170h-131z" />
<glyph unicode="&#x201d;" horiz-adv-x="667" d="M186 1106q73 28 106 63.5t40 94.5h-56l37 170h129l-30 -148q-23 -102 -67.5 -151t-139.5 -82zM489 1106q71 28 104 63.5t42 94.5h-55l34 170h131l-30 -148q-25 -102 -69 -151.5t-138 -81.5z" />
<glyph unicode="&#x201e;" horiz-adv-x="667" d="M-88 -158q72 28 105 63t40 95h-55l37 170h129l-31 -147q-23 -102 -67.5 -151.5t-139.5 -82.5zM215 -158q72 28 105 63t40 95h-55l37 170h129l-31 -147q-23 -102 -67.5 -151.5t-139.5 -82.5z" />
<glyph unicode="&#x2022;" horiz-adv-x="751" d="M211 668q0 143 88 231q64 64 143 64q75 0 122.5 -50t47.5 -135q0 -143 -88 -231q-64 -64 -143 -64q-75 0 -122.5 50t-47.5 135z" />
<glyph unicode="&#x2026;" horiz-adv-x="1116" d="M2 0l37 174h133l-39 -174h-131zM377 0l37 174h133l-37 -174h-133zM752 0l36 174h134l-37 -174h-133z" />
<glyph unicode="&#x202f;" horiz-adv-x="353" />
<glyph unicode="&#x2039;" horiz-adv-x="512" d="M72 514l4 16l368 426l60 -47l-328 -397l152 -393l-72 -31z" />
<glyph unicode="&#x203a;" horiz-adv-x="512" d="M2 135l328 397l-152 394l72 30l184 -426l-4 -16l-369 -426z" />
<glyph unicode="&#x205f;" horiz-adv-x="442" />
<glyph unicode="&#x20ac;" horiz-adv-x="968" d="M41 512l18 82h129q10 144 41 260h-114l16 80h121q40 122 90.5 216.5t128.5 172.5q127 127 289 127q195 0 311 -170l-72 -57q-50 67 -108.5 102t-136.5 35q-119 0 -215 -96q-120 -120 -187 -330h439l-17 -80h-446q-33 -122 -43 -260h432l-19 -82h-415v-6q0 -201 70 -316.5 t206 -115.5q62 0 115 26t117 80l53 -67q-75 -65 -144.5 -97t-152.5 -32q-164 0 -262.5 134t-98.5 374v20h-145z" />
<glyph unicode="&#x2122;" horiz-adv-x="1011" d="M201 1370l16 64h344l-14 -64h-141l-125 -577h-66l125 577h-139zM526 793l140 641h75l78 -347l219 347h86l-139 -641h-65l112 520l-233 -361h-11l-83 361l-113 -520h-66z" />
<glyph unicode="&#xe000;" horiz-adv-x="1064" d="M0 0v1065h1065v-1065h-1065z" />
</font>
</defs>
</svg>
